<svg width="306" height="128" viewBox="0 0 306 128" fill="none" xmlns="http://www.w3.org/2000/svg">
<path d="M52.2773 59.5938C52.2773 58.1406 52.2773 56.6406 52.2773 55.0938C52.2773 53.5 52.3477 51.9062 52.4883 50.3125C52.6289 48.7188 52.8164 47.1719 53.0508 45.6719C53.332 44.1719 53.7539 42.6953 54.3164 41.2422C53.7539 41.4297 53.332 41.4766 53.0508 41.3828C52.7695 41.2891 52.5586 41.125 52.418 40.8906C52.2773 40.6562 52.1836 40.3984 52.1367 40.1172C52.1367 39.7891 52.1367 39.5078 52.1367 39.2734C52.1367 38.6641 52.2305 38.2188 52.418 37.9375C52.6055 37.6562 52.8633 37.4688 53.1914 37.375C53.5195 37.2344 53.8945 37.1641 54.3164 37.1641C54.7852 37.1172 55.2539 37.0938 55.7227 37.0938C57.4102 37.0938 59.168 37.2344 60.9961 37.5156C62.8711 37.7969 64.7227 38.2422 66.5508 38.8516C68.3789 39.4141 70.1133 40.1641 71.7539 41.1016C73.3945 41.9922 74.8477 43.0938 76.1133 44.4062C77.4258 45.6719 78.457 47.1016 79.207 48.6953C79.957 50.2891 80.332 52.1172 80.332 54.1797C80.332 56.6641 79.8398 58.8906 78.8555 60.8594C77.8711 62.8281 76.5352 64.4922 74.8477 65.8516C73.207 67.1641 71.2852 68.1953 69.082 68.9453C66.8789 69.6953 64.6055 70.0703 62.2617 70.0703C60.7617 70.0703 59.3789 69.8125 58.1133 69.2969C56.8945 68.7812 55.8398 68.0781 54.9492 67.1875C54.0586 66.25 53.3789 65.125 52.9102 63.8125C52.4883 62.5 52.2773 61.0938 52.2773 59.5938ZM57.0586 63.8125C57.3867 64.375 57.8555 64.7969 58.4648 65.0781C59.0742 65.3594 59.707 65.5703 60.3633 65.7109C61.0195 65.8516 61.6758 65.9453 62.332 65.9922C63.0352 65.9922 63.668 65.9922 64.2305 65.9922C65.8242 65.9922 67.3477 65.7109 68.8008 65.1484C70.3008 64.5391 71.6133 63.7188 72.7383 62.6875C73.8633 61.6562 74.7305 60.4375 75.3398 59.0312C75.9961 57.5781 76.3242 56.0312 76.3242 54.3906C76.3242 53.0781 76.043 51.8594 75.4805 50.7344C74.918 49.5625 74.168 48.4844 73.2305 47.5C72.3398 46.5156 71.2852 45.6484 70.0664 44.8984C68.8945 44.1016 67.6523 43.4453 66.3398 42.9297C65.0273 42.3672 63.7148 41.9453 62.4023 41.6641C61.0898 41.3828 59.8242 41.2422 58.6055 41.2422H58.3945C57.6914 41.9453 57.1758 42.9062 56.8477 44.125C56.5664 45.2969 56.3789 46.5625 56.2852 47.9219C56.2383 49.2344 56.2383 50.5469 56.2852 51.8594C56.332 53.125 56.3555 54.1562 56.3555 54.9531V56.2891C56.3555 56.5703 56.3789 57.0859 56.4258 57.8359C56.5195 58.5391 56.5898 59.3125 56.6367 60.1562C56.6836 60.9531 56.7539 61.7031 56.8477 62.4062C56.9414 63.1094 57.0117 63.5781 57.0586 63.8125Z" fill="#3371CD"/>
<path d="M83.0742 62.125C83.0742 61.6094 83.0977 61.1875 83.1445 60.8594C83.1914 60.5312 83.4023 60.1562 83.7773 59.7344C84.668 60.2969 85.3242 60.8594 85.7461 61.4219C86.2148 61.9844 86.5898 62.5234 86.8711 63.0391C87.1523 63.5078 87.457 63.9531 87.7852 64.375C88.1133 64.7969 88.6523 65.1719 89.4023 65.5C90.1523 65.8281 91.1836 66.0859 92.4961 66.2734C93.8086 66.4609 95.5898 66.5547 97.8398 66.5547C98.3086 66.5547 98.9648 66.5547 99.8086 66.5547C100.652 66.5547 101.566 66.5078 102.551 66.4141C103.582 66.2734 104.613 66.1094 105.645 65.9219C106.676 65.6875 107.613 65.3828 108.457 65.0078C109.301 64.5859 109.98 64.0938 110.496 63.5312C111.059 62.9219 111.34 62.1953 111.34 61.3516C111.34 61.2109 111.316 61.0469 111.27 60.8594C111.223 60.625 111.199 60.4844 111.199 60.4375L107.824 56.9922L85.1836 50.8047C84.7617 50.7109 84.4336 50.5469 84.1992 50.3125C84.0117 50.0781 83.8711 49.8203 83.7773 49.5391C83.6836 49.2578 83.6367 48.9531 83.6367 48.625V47.6406C83.6367 46.375 84.0586 45.2734 84.9023 44.3359C85.793 43.3984 86.8945 42.625 88.207 42.0156C89.5664 41.4062 91.0664 40.9141 92.707 40.5391C94.3945 40.1172 96.0352 39.8125 97.6289 39.625C99.2695 39.3906 100.77 39.25 102.129 39.2031C103.535 39.1562 104.613 39.1328 105.363 39.1328H106.137C106.465 39.1328 106.816 39.1328 107.191 39.1328C107.613 39.1328 107.988 39.1328 108.316 39.1328H109.09C109.559 39.2734 109.816 39.5312 109.863 39.9062C109.91 40.2344 109.934 40.5625 109.934 40.8906C109.934 41.5469 109.488 42.0391 108.598 42.3672C107.754 42.6484 106.652 42.8828 105.293 43.0703C103.98 43.2109 102.48 43.3516 100.793 43.4922C99.1055 43.6328 97.4648 43.8438 95.8711 44.125C94.3242 44.3594 92.8945 44.7344 91.582 45.25C90.2695 45.7656 89.2852 46.4688 88.6289 47.3594L89.8945 48.0625L109.793 53.5469C110.59 53.7812 111.34 54.2266 112.043 54.8828C112.746 55.4922 113.332 56.2188 113.801 57.0625C114.316 57.8594 114.715 58.7266 114.996 59.6641C115.277 60.5547 115.418 61.375 115.418 62.125C115.418 63.25 115.16 64.2578 114.645 65.1484C114.129 65.9922 113.473 66.7188 112.676 67.3281C111.879 67.8906 110.965 68.3594 109.934 68.7344C108.902 69.0625 107.848 69.3438 106.77 69.5781C105.691 69.7656 104.613 69.9062 103.535 70C102.504 70.0469 101.566 70.0703 100.723 70.0703C99.832 70.0703 98.7539 70.0469 97.4883 70C96.2695 70 95.0039 69.9297 93.6914 69.7891C92.3789 69.6484 91.0898 69.4375 89.8242 69.1562C88.5586 68.8281 87.4102 68.3828 86.3789 67.8203C85.3945 67.2109 84.5977 66.4609 83.9883 65.5703C83.3789 64.6797 83.0742 63.5312 83.0742 62.125ZM117.176 59.1719C117.176 57.1562 117.715 55.5156 118.793 54.25C119.871 52.9375 121.184 51.9297 122.73 51.2266C124.324 50.5234 126.035 50.0547 127.863 49.8203C129.738 49.5391 131.473 49.3984 133.066 49.3984H133.91C134.238 49.3984 134.613 49.4219 135.035 49.4688C135.504 49.4688 135.926 49.4688 136.301 49.4688H137.145C138.082 49.6094 138.691 49.8906 138.973 50.3125C139.254 50.6875 139.395 51.1797 139.395 51.7891C139.395 52.5391 139.137 53.1484 138.621 53.6172C138.152 54.0859 137.543 54.3203 136.793 54.3203C136.324 54.3203 135.996 54.25 135.809 54.1094C135.668 53.9219 135.527 53.7344 135.387 53.5469C135.293 53.3594 135.152 53.1953 134.965 53.0547C134.777 52.8672 134.426 52.7734 133.91 52.7734C133.207 52.7734 132.41 52.8203 131.52 52.9141C130.629 53.0078 129.715 53.1484 128.777 53.3359C127.84 53.5234 126.926 53.7812 126.035 54.1094C125.145 54.4375 124.348 54.8594 123.645 55.375C122.941 55.8906 122.379 56.5234 121.957 57.2734C121.535 57.9766 121.324 58.8438 121.324 59.875C121.324 60.7188 121.559 61.4922 122.027 62.1953C122.543 62.8516 123.199 63.4375 123.996 63.9531C124.793 64.4688 125.684 64.9141 126.668 65.2891C127.699 65.6172 128.707 65.875 129.691 66.0625C130.676 66.25 131.613 66.3906 132.504 66.4844C133.441 66.5781 134.191 66.625 134.754 66.625C136.066 66.625 137.285 66.4375 138.41 66.0625C139.535 65.6406 140.637 65.1953 141.715 64.7266C142.84 64.2578 143.941 63.8359 145.02 63.4609C146.098 63.0859 147.199 62.8984 148.324 62.8984C148.324 64.5859 147.832 65.9219 146.848 66.9062C145.91 67.8906 144.715 68.6172 143.262 69.0859C141.809 69.5547 140.262 69.8359 138.621 69.9297C136.98 70.0234 135.48 70.0703 134.121 70.0703C132.996 70.0703 131.777 70.0234 130.465 69.9297C129.199 69.7891 127.934 69.5781 126.668 69.2969C125.402 68.9688 124.207 68.5469 123.082 68.0312C121.957 67.5156 120.949 66.8594 120.059 66.0625C119.215 65.2188 118.512 64.2344 117.949 63.1094C117.434 61.9844 117.176 60.6719 117.176 59.1719ZM150.785 56.2891C150.738 56.2891 150.621 56.2188 150.434 56.0781C150.246 55.8906 150.152 55.7266 150.152 55.5859C150.105 55.5859 150.082 55.5391 150.082 55.4453V55.0938C150.082 55.0469 150.105 55 150.152 54.9531C150.668 54.4375 151.09 54.0625 151.418 53.8281C151.793 53.5938 152.285 53.4766 152.895 53.4766C153.082 53.4766 153.246 53.5234 153.387 53.6172C153.574 53.7109 153.715 53.8047 153.809 53.8984C153.902 53.9922 153.996 54.0859 154.09 54.1797C154.23 54.2734 154.371 54.3203 154.512 54.3203C154.652 54.3203 154.934 54.1094 155.355 53.6875C155.777 53.2188 156.34 52.6562 157.043 52C157.746 51.3438 158.613 50.6406 159.645 49.8906C160.676 49.0938 161.824 48.3672 163.09 47.7109C164.402 47.0547 165.809 46.5156 167.309 46.0938C168.855 45.625 170.543 45.3906 172.371 45.3906H172.793C172.98 45.4375 173.355 45.5312 173.918 45.6719C174.527 45.7656 175.16 45.9062 175.816 46.0938C176.473 46.2344 177.082 46.375 177.645 46.5156C178.254 46.6094 178.676 46.6797 178.91 46.7266C178.957 46.7734 179.051 46.8672 179.191 47.0078C179.332 47.1016 179.473 47.2188 179.613 47.3594C179.754 47.4531 179.871 47.5703 179.965 47.7109C180.105 47.8516 180.199 47.9688 180.246 48.0625C180.246 48.1094 180.27 48.1797 180.316 48.2734C180.316 48.2734 180.316 48.2969 180.316 48.3438C180.363 48.3906 180.387 48.4141 180.387 48.4141L180.316 48.5547C180.316 48.5547 180.316 48.5781 180.316 48.625C180.27 48.6719 180.246 48.7188 180.246 48.7656C180.199 48.9062 180.082 49.0703 179.895 49.2578C179.707 49.3984 179.613 49.4688 179.613 49.4688H167.238C166.207 49.4688 165.082 49.7734 163.863 50.3828C162.691 50.9453 161.566 51.6953 160.488 52.6328C159.457 53.5234 158.59 54.5547 157.887 55.7266C157.23 56.8516 156.902 57.9531 156.902 59.0312V69.0156C156.387 69.0156 156.012 69.0859 155.777 69.2266C155.543 69.3203 155.332 69.4375 155.145 69.5781C155.004 69.7188 154.84 69.8359 154.652 69.9297C154.465 70.0234 154.207 70.0703 153.879 70.0703H153.738C153.691 70.0703 153.645 70.0469 153.598 70C153.41 69.9531 153.246 69.8594 153.105 69.7188C152.965 69.5312 152.895 69.4141 152.895 69.3672L150.785 56.2891ZM184.324 69.3672C183.996 68.4297 183.691 67.4219 183.41 66.3438C183.176 65.2188 182.965 64.0703 182.777 62.8984C182.637 61.7266 182.52 60.5781 182.426 59.4531C182.332 58.3281 182.285 57.2734 182.285 56.2891C182.285 56.1484 182.309 55.8906 182.355 55.5156C182.402 55.0938 182.449 54.6719 182.496 54.25C182.59 53.8281 182.684 53.4297 182.777 53.0547C182.871 52.6328 182.941 52.3516 182.988 52.2109C183.035 52.1641 183.246 52.1172 183.621 52.0703C183.996 52.0234 184.23 52 184.324 52C184.934 52 185.426 52.3281 185.801 52.9844C186.176 53.6406 186.504 54.4844 186.785 55.5156C187.066 56.5469 187.254 57.6953 187.348 58.9609C187.488 60.1797 187.605 61.375 187.699 62.5469C187.793 63.6719 187.84 64.6797 187.84 65.5703C187.84 66.4609 187.84 67.0703 187.84 67.3984C187.84 67.5391 187.84 67.7734 187.84 68.1016C187.887 68.3828 187.887 68.6875 187.84 69.0156C187.793 69.2969 187.676 69.5312 187.488 69.7188C187.348 69.9062 187.09 70 186.715 70H186.434C186.34 70 186.199 69.9766 186.012 69.9297C185.824 69.8359 185.613 69.7656 185.379 69.7188C185.145 69.625 184.934 69.5547 184.746 69.5078C184.559 69.4609 184.418 69.4141 184.324 69.3672ZM183.551 38.3594C183.551 37.1875 184.301 36.3203 185.801 35.7578C186.129 35.6172 186.41 35.6641 186.645 35.8984C186.926 36.1328 187.137 36.4375 187.277 36.8125C187.465 37.1875 187.582 37.5859 187.629 38.0078C187.723 38.3828 187.77 38.6641 187.77 38.8516C187.77 39.1328 187.699 39.3672 187.559 39.5547C187.418 39.6953 187.23 39.7891 186.996 39.8359C186.809 39.8828 186.598 39.9062 186.363 39.9062H185.801C185.145 39.9062 184.605 39.8359 184.184 39.6953C183.762 39.5547 183.551 39.1094 183.551 38.3594ZM191.637 93.6953C192.152 88.9609 192.363 84.5547 192.27 80.4766C192.223 76.4453 192.082 72.7656 191.848 69.4375C191.613 66.0625 191.379 63.0391 191.145 60.3672C190.91 57.6953 190.863 55.3984 191.004 53.4766C191.191 51.5547 191.637 49.9609 192.34 48.6953C193.043 47.4297 194.238 46.5625 195.926 46.0938C197.613 45.5781 199.84 45.4141 202.605 45.6016C205.418 45.7891 209.004 46.375 213.363 47.3594C214.348 47.9219 215.121 48.5312 215.684 49.1875C216.246 49.7969 216.645 50.5 216.879 51.2969C217.16 52.0469 217.324 52.8906 217.371 53.8281C217.465 54.7656 217.512 55.7734 217.512 56.8516C217.512 58.0703 217.09 59.1484 216.246 60.0859C215.402 61.0234 214.324 61.8203 213.012 62.4766C211.699 63.1328 210.223 63.7188 208.582 64.2344C206.988 64.7031 205.395 65.1016 203.801 65.4297C202.254 65.7109 200.801 65.9453 199.441 66.1328C198.082 66.3203 197.004 66.4609 196.207 66.5547C196.02 66.8828 195.879 67.5391 195.785 68.5234C195.691 69.4609 195.645 70.6094 195.645 71.9688C195.645 73.3281 195.668 74.7578 195.715 76.2578C195.762 77.8047 195.809 79.3047 195.855 80.7578C195.949 82.2109 195.996 83.5469 195.996 84.7656C195.996 85.9844 195.973 86.9219 195.926 87.5781C195.832 88 195.762 88.5625 195.715 89.2656C195.668 90.0156 195.598 90.7188 195.504 91.375C195.41 92.0312 195.34 92.5703 195.293 92.9922L195.223 93.6953H191.637ZM206.051 49.8906C203.613 49.375 201.41 49.2344 199.441 49.4688C197.52 49.7031 196.043 50.3359 195.012 51.3672C193.98 52.3516 193.465 53.7812 193.465 55.6562C193.512 57.5312 194.285 59.9219 195.785 62.8281C196.629 62.8281 197.637 62.8047 198.809 62.7578C199.98 62.6641 201.199 62.5 202.465 62.2656C203.777 62.0312 205.09 61.7266 206.402 61.3516C207.715 60.9766 208.887 60.5078 209.918 59.9453C210.996 59.3359 211.84 58.6328 212.449 57.8359C213.105 57.0391 213.434 56.125 213.434 55.0938C213.668 54.0156 213.645 53.1719 213.363 52.5625C213.082 51.9531 212.59 51.4844 211.887 51.1562C211.184 50.8281 210.316 50.5703 209.285 50.3828C208.301 50.1953 207.223 50.0312 206.051 49.8906ZM228.691 51.6484C227.379 51.6484 226.16 51.7656 225.035 52C223.957 52.1875 222.762 52.2812 221.449 52.2812C220.934 52.2812 220.605 52.0938 220.465 51.7188C220.324 51.2969 220.254 50.8984 220.254 50.5234V50.1719C220.348 49.9844 220.488 49.75 220.676 49.4688C220.91 49.1875 221.145 48.9297 221.379 48.6953C221.613 48.4141 221.801 48.1797 221.941 47.9922C222.129 47.8047 222.246 47.7109 222.293 47.7109H228.762V37.1641C228.762 36.9766 228.832 36.8359 228.973 36.7422C229.113 36.6484 229.277 36.5781 229.465 36.5312C229.699 36.4375 229.91 36.3906 230.098 36.3906C230.285 36.3438 230.426 36.3203 230.52 36.3203C231.27 36.3203 231.809 36.6016 232.137 37.1641C232.512 37.6797 232.746 38.3359 232.84 39.1328C232.98 39.9297 233.027 40.7969 232.98 41.7344C232.98 42.6719 232.98 43.5391 232.98 44.3359C232.98 45.1328 233.027 45.8359 233.121 46.4453C233.262 47.0078 233.543 47.3125 233.965 47.3594C234.34 47.4062 235.043 47.5 236.074 47.6406C237.152 47.7344 238.254 47.875 239.379 48.0625C240.551 48.2031 241.652 48.3438 242.684 48.4844C243.715 48.625 244.465 48.7188 244.934 48.7656C245.027 48.7656 245.191 48.8125 245.426 48.9062C245.707 48.9531 245.988 49 246.27 49.0469C246.598 49.0938 246.879 49.1641 247.113 49.2578C247.348 49.3516 247.512 49.4219 247.605 49.4688C247.699 49.4688 247.84 49.5625 248.027 49.75C248.215 49.9375 248.309 50.0781 248.309 50.1719C248.309 50.5 248.215 50.8047 248.027 51.0859C247.84 51.3672 247.605 51.6016 247.324 51.7891C247.043 51.9297 246.738 52.0469 246.41 52.1406C246.129 52.1875 245.848 52.2109 245.566 52.2109C245.473 52.2109 245.215 52.1875 244.793 52.1406C244.371 52.0469 243.926 51.9531 243.457 51.8594C243.035 51.7656 242.613 51.6953 242.191 51.6484C241.816 51.5547 241.582 51.5078 241.488 51.5078H240.785C240.363 51.5078 239.918 51.5078 239.449 51.5078C238.98 51.5078 238.512 51.5078 238.043 51.5078H236.145C235.816 51.5078 235.488 51.5078 235.16 51.5078C234.832 51.5078 234.551 51.5078 234.316 51.5078H233.965L233.262 52.2109C233.262 52.2578 233.262 52.4219 233.262 52.7031C233.262 52.9844 233.238 53.3125 233.191 53.6875C233.145 54.0625 233.098 54.4609 233.051 54.8828C233.051 55.2578 233.051 55.5625 233.051 55.7969C233.051 58.3281 233.309 60.3203 233.824 61.7734C234.34 63.2266 235.137 64.3281 236.215 65.0781C237.34 65.7812 238.746 66.2266 240.434 66.4141C242.168 66.5547 244.277 66.625 246.762 66.625C247.043 66.625 247.418 66.625 247.887 66.625C248.355 66.625 248.824 66.625 249.293 66.625C249.762 66.625 250.16 66.625 250.488 66.625C250.816 66.5781 251.004 66.5547 251.051 66.5547C251.098 66.5547 251.215 66.5312 251.402 66.4844C251.59 66.3906 251.801 66.3203 252.035 66.2734C252.316 66.1797 252.527 66.0859 252.668 65.9922C252.855 65.8984 252.996 65.8516 253.09 65.8516C253.277 65.8516 253.418 65.9453 253.512 66.1328C253.652 66.2734 253.746 66.4609 253.793 66.6953C253.84 66.9297 253.863 67.1406 253.863 67.3281V67.8203C253.863 68.5703 253.699 69.1094 253.371 69.4375C253.043 69.7656 252.27 69.9531 251.051 70H249.855C249.293 70 248.707 70 248.098 70C247.535 70.0469 246.949 70.0703 246.34 70.0703H245.285C242.613 70.0703 240.34 69.9766 238.465 69.7891C236.59 69.5547 235.043 69.2031 233.824 68.7344C232.605 68.2188 231.645 67.5391 230.941 66.6953C230.238 65.8516 229.723 64.75 229.395 63.3906C229.113 62.0312 228.926 60.3906 228.832 58.4688C228.738 56.5469 228.691 54.2734 228.691 51.6484Z" fill="black"/>
<path d="M8.17383 106.703C8.17383 106.145 8.31706 105.65 8.60352 105.221C8.88997 104.791 9.25521 104.419 9.69922 104.104C10.1432 103.774 10.6517 103.502 11.2246 103.287C11.7975 103.072 12.3704 102.9 12.9434 102.771C13.5163 102.643 14.0677 102.557 14.5977 102.514C15.1419 102.456 15.6074 102.428 15.9941 102.428C16.1517 102.428 16.2949 102.485 16.4238 102.6C16.5527 102.714 16.6172 102.857 16.6172 103.029C16.6172 103.187 16.5957 103.33 16.5527 103.459C16.5241 103.574 16.4596 103.717 16.3594 103.889C16.0586 103.846 15.679 103.824 15.2207 103.824C14.7624 103.824 14.2826 103.853 13.7812 103.91C13.2943 103.967 12.8073 104.068 12.3203 104.211C11.8333 104.34 11.3893 104.526 10.9883 104.77C10.5872 104.999 10.265 105.278 10.0215 105.607C9.77799 105.937 9.65625 106.338 9.65625 106.811C9.65625 107.24 9.72786 107.613 9.87109 107.928C10.0143 108.229 10.2077 108.493 10.4512 108.723C10.6947 108.938 10.974 109.117 11.2891 109.26C11.6042 109.389 11.9336 109.496 12.2773 109.582C12.6354 109.654 12.9935 109.704 13.3516 109.732C13.7096 109.761 14.0534 109.775 14.3828 109.775C14.7552 109.775 15.1204 109.768 15.4785 109.754C15.8509 109.74 16.209 109.711 16.5527 109.668C16.8965 109.625 17.2474 109.568 17.6055 109.496C17.9635 109.41 18.3145 109.281 18.6582 109.109C18.8158 109.152 18.8945 109.231 18.8945 109.346C18.9089 109.446 18.916 109.553 18.916 109.668C18.916 109.94 18.8229 110.162 18.6367 110.334C18.4648 110.506 18.2285 110.642 17.9277 110.742C17.6413 110.842 17.319 110.914 16.9609 110.957C16.6029 111 16.252 111.021 15.9082 111.021C15.5645 111.036 15.2422 111.036 14.9414 111.021C14.6549 111.021 14.4329 111.021 14.2754 111.021C13.8457 111.021 13.3874 110.993 12.9004 110.936C12.4277 110.864 11.9694 110.764 11.5254 110.635C11.0814 110.506 10.6517 110.334 10.2363 110.119C9.83529 109.89 9.48438 109.618 9.18359 109.303C8.88281 108.988 8.63932 108.615 8.45312 108.186C8.26693 107.756 8.17383 107.262 8.17383 106.703ZM19.9258 106.811C19.9115 106.811 19.8757 106.789 19.8184 106.746C19.7611 106.689 19.7324 106.639 19.7324 106.596C19.7181 106.596 19.7109 106.581 19.7109 106.553V106.445C19.7109 106.431 19.7181 106.417 19.7324 106.402C19.89 106.245 20.0189 106.13 20.1191 106.059C20.2337 105.987 20.3841 105.951 20.5703 105.951C20.6276 105.951 20.6777 105.965 20.7207 105.994C20.778 106.023 20.821 106.051 20.8496 106.08C20.8783 106.109 20.9069 106.137 20.9355 106.166C20.9785 106.195 21.0215 106.209 21.0645 106.209C21.1074 106.209 21.1934 106.145 21.3223 106.016C21.4512 105.872 21.623 105.701 21.8379 105.5C22.0527 105.299 22.3177 105.085 22.6328 104.855C22.9479 104.612 23.2988 104.39 23.6855 104.189C24.0866 103.989 24.5163 103.824 24.9746 103.695C25.4473 103.552 25.9629 103.48 26.5215 103.48H26.6504C26.7077 103.495 26.8223 103.523 26.9941 103.566C27.1803 103.595 27.3737 103.638 27.5742 103.695C27.7747 103.738 27.9609 103.781 28.1328 103.824C28.319 103.853 28.4479 103.874 28.5195 103.889C28.5339 103.903 28.5625 103.932 28.6055 103.975C28.6484 104.003 28.6914 104.039 28.7344 104.082C28.7773 104.111 28.8132 104.146 28.8418 104.189C28.8848 104.232 28.9134 104.268 28.9277 104.297C28.9277 104.311 28.9349 104.333 28.9492 104.361C28.9492 104.361 28.9492 104.368 28.9492 104.383C28.9635 104.397 28.9707 104.404 28.9707 104.404L28.9492 104.447C28.9492 104.447 28.9492 104.454 28.9492 104.469C28.9349 104.483 28.9277 104.497 28.9277 104.512C28.9134 104.555 28.8776 104.605 28.8203 104.662C28.763 104.705 28.7344 104.727 28.7344 104.727H24.9531C24.638 104.727 24.2943 104.82 23.9219 105.006C23.5638 105.178 23.2201 105.407 22.8906 105.693C22.5755 105.965 22.3105 106.281 22.0957 106.639C21.8952 106.982 21.7949 107.319 21.7949 107.648V110.699C21.6374 110.699 21.5228 110.721 21.4512 110.764C21.3796 110.792 21.3151 110.828 21.2578 110.871C21.2148 110.914 21.1647 110.95 21.1074 110.979C21.0501 111.007 20.9714 111.021 20.8711 111.021H20.8281C20.8138 111.021 20.7995 111.014 20.7852 111C20.7279 110.986 20.6777 110.957 20.6348 110.914C20.5918 110.857 20.5703 110.821 20.5703 110.807L19.9258 106.811ZM29.5293 107.219C29.5293 106.732 29.6654 106.259 29.9375 105.801C30.2096 105.342 30.5534 104.941 30.9688 104.598C31.3984 104.254 31.8639 103.982 32.3652 103.781C32.8809 103.581 33.3678 103.48 33.8262 103.48C34.1986 103.48 34.5638 103.531 34.9219 103.631C35.2943 103.717 35.6237 103.86 35.9102 104.061C36.1966 104.261 36.4258 104.512 36.5977 104.812C36.7839 105.099 36.877 105.443 36.877 105.844C36.877 106.03 36.8626 106.18 36.834 106.295C36.8197 106.395 36.7767 106.488 36.7051 106.574C36.6335 106.646 36.5404 106.717 36.4258 106.789C36.3255 106.846 36.1966 106.925 36.0391 107.025C35.9531 107.04 35.8242 107.076 35.6523 107.133C35.4805 107.176 35.2799 107.226 35.0508 107.283C34.8359 107.34 34.6068 107.398 34.3633 107.455C34.1198 107.512 33.8835 107.57 33.6543 107.627C33.4395 107.684 33.2461 107.734 33.0742 107.777C32.9023 107.82 32.7734 107.849 32.6875 107.863C32.6445 107.878 32.5514 107.892 32.4082 107.906C32.265 107.921 32.1074 107.942 31.9355 107.971C31.778 107.985 31.6276 108.007 31.4844 108.035C31.3411 108.049 31.2552 108.064 31.2266 108.078C31.1836 108.092 31.1335 108.128 31.0762 108.186C31.0332 108.229 31.0117 108.257 31.0117 108.271C31.0117 108.558 31.0905 108.801 31.248 109.002C31.4056 109.188 31.6061 109.346 31.8496 109.475C32.0931 109.604 32.3652 109.704 32.666 109.775C32.9811 109.833 33.2891 109.883 33.5898 109.926C33.8906 109.954 34.1699 109.969 34.4277 109.969C34.6855 109.969 34.8932 109.969 35.0508 109.969C35.7669 109.969 36.4688 109.933 37.1562 109.861C37.8438 109.775 38.5456 109.732 39.2617 109.732V109.904C39.2617 109.99 39.2474 110.083 39.2188 110.184C39.2044 110.27 39.1758 110.355 39.1328 110.441C39.0898 110.513 39.0326 110.556 38.9609 110.57C38.4167 110.685 37.9297 110.778 37.5 110.85C37.0846 110.907 36.6908 110.95 36.3184 110.979C35.946 110.993 35.5592 111 35.1582 111C34.7572 111.014 34.3132 111.021 33.8262 111.021H33.4609C33.3034 111.021 33.1315 111.014 32.9453 111C32.7591 111 32.5801 111 32.4082 111H32.043C31.599 110.885 31.2122 110.706 30.8828 110.463C30.5677 110.205 30.3099 109.904 30.1094 109.561C29.9089 109.217 29.7585 108.844 29.6582 108.443C29.5723 108.042 29.5293 107.634 29.5293 107.219ZM34.3418 104.684C34.1556 104.684 33.9408 104.705 33.6973 104.748C33.4681 104.777 33.2246 104.834 32.9668 104.92C32.7233 104.992 32.4798 105.092 32.2363 105.221C31.9928 105.335 31.778 105.479 31.5918 105.65C31.4056 105.808 31.248 105.987 31.1191 106.188C31.0046 106.388 30.9473 106.61 30.9473 106.854H31.8281C32.1432 106.854 32.4655 106.839 32.7949 106.811C33.1243 106.782 33.4466 106.739 33.7617 106.682C34.0768 106.61 34.349 106.51 34.5781 106.381C34.8216 106.238 35.015 106.059 35.1582 105.844C35.3158 105.629 35.3945 105.364 35.3945 105.049V104.941L35.1797 104.727C35.151 104.727 35.0938 104.727 35.0078 104.727C34.9362 104.712 34.8574 104.705 34.7715 104.705C34.6855 104.691 34.5996 104.684 34.5137 104.684C34.4421 104.684 34.3848 104.684 34.3418 104.684ZM45.9648 109.947C45.7357 109.947 45.4922 109.983 45.2344 110.055C44.9909 110.112 44.7474 110.184 44.5039 110.27C44.2604 110.355 44.0026 110.434 43.7305 110.506C43.4727 110.563 43.2077 110.592 42.9355 110.592C42.5202 110.592 42.1191 110.527 41.7324 110.398C41.3457 110.27 41.002 110.076 40.7012 109.818C40.4147 109.561 40.1855 109.253 40.0137 108.895C39.8418 108.522 39.7559 108.107 39.7559 107.648C39.7559 107.247 39.8776 106.875 40.1211 106.531C40.3789 106.188 40.694 105.901 41.0664 105.672C41.4388 105.443 41.8398 105.264 42.2695 105.135C42.6992 105.006 43.0859 104.941 43.4297 104.941C43.5872 104.941 43.7806 104.956 44.0098 104.984C44.2533 104.999 44.5111 105.035 44.7832 105.092C45.0697 105.135 45.3561 105.199 45.6426 105.285C45.929 105.357 46.1868 105.457 46.416 105.586C46.6595 105.715 46.86 105.865 47.0176 106.037C47.1895 106.195 47.2897 106.381 47.3184 106.596C47.3184 106.667 47.304 106.796 47.2754 106.982C47.2467 107.154 47.2253 107.34 47.2109 107.541C47.1966 107.742 47.1751 107.935 47.1465 108.121C47.1322 108.293 47.1178 108.422 47.1035 108.508V108.637C47.1035 108.952 47.1751 109.188 47.3184 109.346C47.4616 109.503 47.6335 109.618 47.834 109.689C48.0488 109.747 48.2708 109.775 48.5 109.775H49.1875C49.4023 109.775 49.5384 109.775 49.5957 109.775C49.653 109.761 49.6888 109.754 49.7031 109.754C49.7318 109.754 49.7676 109.754 49.8105 109.754C49.8678 109.74 50.0111 109.732 50.2402 109.732C50.4264 109.732 50.5697 109.768 50.6699 109.84C50.7702 109.911 50.8203 110.062 50.8203 110.291C50.8203 110.535 50.7415 110.706 50.584 110.807C50.4264 110.907 50.2402 110.971 50.0254 111C49.8105 111.043 49.5957 111.057 49.3809 111.043C49.166 111.029 49.0013 111.021 48.8867 111.021C48.5573 111.021 48.2422 110.964 47.9414 110.85C47.6549 110.735 47.39 110.613 47.1465 110.484C46.903 110.341 46.681 110.219 46.4805 110.119C46.2799 110.005 46.1081 109.947 45.9648 109.947ZM41.0234 107.863C41.0234 108.207 41.0951 108.486 41.2383 108.701C41.3958 108.902 41.582 109.052 41.7969 109.152C42.026 109.238 42.2767 109.296 42.5488 109.324C42.821 109.339 43.0859 109.346 43.3438 109.346C43.444 109.346 43.6087 109.339 43.8379 109.324C44.0814 109.31 44.332 109.281 44.5898 109.238C44.8477 109.181 45.0768 109.109 45.2773 109.023C45.4922 108.938 45.6139 108.83 45.6426 108.701L46.0723 107.025C46.1009 106.911 46.0723 106.811 45.9863 106.725C45.9004 106.639 45.7786 106.567 45.6211 106.51C45.4779 106.452 45.3132 106.402 45.127 106.359C44.9551 106.316 44.7832 106.281 44.6113 106.252C44.4395 106.223 44.2819 106.202 44.1387 106.188C44.0098 106.173 43.931 106.166 43.9023 106.166C43.6445 106.166 43.3438 106.195 43 106.252C42.6706 106.295 42.3555 106.381 42.0547 106.51C41.7682 106.624 41.5247 106.789 41.3242 107.004C41.1237 107.219 41.0234 107.505 41.0234 107.863ZM53.5273 105.393C53.1263 105.393 52.7539 105.428 52.4102 105.5C52.0807 105.557 51.7155 105.586 51.3145 105.586C51.1569 105.586 51.0566 105.529 51.0137 105.414C50.9707 105.285 50.9492 105.163 50.9492 105.049V104.941C50.9779 104.884 51.0208 104.812 51.0781 104.727C51.1497 104.641 51.2214 104.562 51.293 104.49C51.3646 104.404 51.4219 104.333 51.4648 104.275C51.5221 104.218 51.5579 104.189 51.5723 104.189H53.5488V100.967C53.5488 100.91 53.5703 100.867 53.6133 100.838C53.6562 100.809 53.7064 100.788 53.7637 100.773C53.8353 100.745 53.8997 100.73 53.957 100.73C54.0143 100.716 54.0573 100.709 54.0859 100.709C54.3151 100.709 54.4798 100.795 54.5801 100.967C54.6947 101.124 54.7663 101.325 54.7949 101.568C54.8379 101.812 54.8522 102.077 54.8379 102.363C54.8379 102.65 54.8379 102.915 54.8379 103.158C54.8379 103.402 54.8522 103.617 54.8809 103.803C54.9238 103.975 55.0098 104.068 55.1387 104.082C55.2533 104.096 55.4681 104.125 55.7832 104.168C56.1126 104.197 56.4492 104.24 56.793 104.297C57.151 104.34 57.4876 104.383 57.8027 104.426C58.1178 104.469 58.347 104.497 58.4902 104.512C58.5189 104.512 58.569 104.526 58.6406 104.555C58.7266 104.569 58.8125 104.583 58.8984 104.598C58.9987 104.612 59.0846 104.633 59.1562 104.662C59.2279 104.691 59.278 104.712 59.3066 104.727C59.3353 104.727 59.3783 104.755 59.4355 104.812C59.4928 104.87 59.5215 104.913 59.5215 104.941C59.5215 105.042 59.4928 105.135 59.4355 105.221C59.3783 105.307 59.3066 105.378 59.2207 105.436C59.1348 105.479 59.0417 105.514 58.9414 105.543C58.8555 105.557 58.7695 105.564 58.6836 105.564C58.6549 105.564 58.5762 105.557 58.4473 105.543C58.3184 105.514 58.1823 105.486 58.0391 105.457C57.9102 105.428 57.7812 105.407 57.6523 105.393C57.5378 105.364 57.4661 105.35 57.4375 105.35H57.2227C57.0938 105.35 56.9577 105.35 56.8145 105.35C56.6712 105.35 56.528 105.35 56.3848 105.35H55.8047C55.7044 105.35 55.6042 105.35 55.5039 105.35C55.4036 105.35 55.3177 105.35 55.2461 105.35H55.1387L54.9238 105.564C54.9238 105.579 54.9238 105.629 54.9238 105.715C54.9238 105.801 54.9167 105.901 54.9023 106.016C54.888 106.13 54.8737 106.252 54.8594 106.381C54.8594 106.495 54.8594 106.589 54.8594 106.66C54.8594 107.434 54.9382 108.042 55.0957 108.486C55.2533 108.93 55.4967 109.267 55.8262 109.496C56.1699 109.711 56.5996 109.847 57.1152 109.904C57.6452 109.947 58.2897 109.969 59.0488 109.969C59.1348 109.969 59.2493 109.969 59.3926 109.969C59.5358 109.969 59.679 109.969 59.8223 109.969C59.9655 109.969 60.0872 109.969 60.1875 109.969C60.2878 109.954 60.3451 109.947 60.3594 109.947C60.3737 109.947 60.4095 109.94 60.4668 109.926C60.5241 109.897 60.5885 109.876 60.6602 109.861C60.7461 109.833 60.8105 109.804 60.8535 109.775C60.9108 109.747 60.9538 109.732 60.9824 109.732C61.0397 109.732 61.0827 109.761 61.1113 109.818C61.1543 109.861 61.1829 109.919 61.1973 109.99C61.2116 110.062 61.2188 110.126 61.2188 110.184V110.334C61.2188 110.563 61.1686 110.728 61.0684 110.828C60.9681 110.928 60.7318 110.986 60.3594 111H59.9941C59.8223 111 59.6432 111 59.457 111C59.2852 111.014 59.1061 111.021 58.9199 111.021H58.5977C57.7812 111.021 57.0866 110.993 56.5137 110.936C55.9408 110.864 55.4681 110.757 55.0957 110.613C54.7233 110.456 54.4297 110.248 54.2148 109.99C54 109.732 53.8424 109.396 53.7422 108.98C53.6562 108.565 53.599 108.064 53.5703 107.477C53.5417 106.889 53.5273 106.195 53.5273 105.393ZM62.0137 107.219C62.0137 106.732 62.1497 106.259 62.4219 105.801C62.694 105.342 63.0378 104.941 63.4531 104.598C63.8828 104.254 64.3483 103.982 64.8496 103.781C65.3652 103.581 65.8522 103.48 66.3105 103.48C66.6829 103.48 67.0482 103.531 67.4062 103.631C67.7786 103.717 68.1081 103.86 68.3945 104.061C68.681 104.261 68.9102 104.512 69.082 104.812C69.2682 105.099 69.3613 105.443 69.3613 105.844C69.3613 106.03 69.347 106.18 69.3184 106.295C69.304 106.395 69.2611 106.488 69.1895 106.574C69.1178 106.646 69.0247 106.717 68.9102 106.789C68.8099 106.846 68.681 106.925 68.5234 107.025C68.4375 107.04 68.3086 107.076 68.1367 107.133C67.9648 107.176 67.7643 107.226 67.5352 107.283C67.3203 107.34 67.0911 107.398 66.8477 107.455C66.6042 107.512 66.3678 107.57 66.1387 107.627C65.9238 107.684 65.7305 107.734 65.5586 107.777C65.3867 107.82 65.2578 107.849 65.1719 107.863C65.1289 107.878 65.0358 107.892 64.8926 107.906C64.7493 107.921 64.5918 107.942 64.4199 107.971C64.2624 107.985 64.112 108.007 63.9688 108.035C63.8255 108.049 63.7396 108.064 63.7109 108.078C63.668 108.092 63.6178 108.128 63.5605 108.186C63.5176 108.229 63.4961 108.257 63.4961 108.271C63.4961 108.558 63.5749 108.801 63.7324 109.002C63.89 109.188 64.0905 109.346 64.334 109.475C64.5775 109.604 64.8496 109.704 65.1504 109.775C65.4655 109.833 65.7734 109.883 66.0742 109.926C66.375 109.954 66.6543 109.969 66.9121 109.969C67.1699 109.969 67.3776 109.969 67.5352 109.969C68.2513 109.969 68.9531 109.933 69.6406 109.861C70.3281 109.775 71.0299 109.732 71.7461 109.732V109.904C71.7461 109.99 71.7318 110.083 71.7031 110.184C71.6888 110.27 71.6602 110.355 71.6172 110.441C71.5742 110.513 71.5169 110.556 71.4453 110.57C70.901 110.685 70.4141 110.778 69.9844 110.85C69.569 110.907 69.1751 110.95 68.8027 110.979C68.4303 110.993 68.0436 111 67.6426 111C67.2415 111.014 66.7975 111.021 66.3105 111.021H65.9453C65.7878 111.021 65.6159 111.014 65.4297 111C65.2435 111 65.0645 111 64.8926 111H64.5273C64.0833 110.885 63.6966 110.706 63.3672 110.463C63.0521 110.205 62.7943 109.904 62.5938 109.561C62.3932 109.217 62.2428 108.844 62.1426 108.443C62.0566 108.042 62.0137 107.634 62.0137 107.219ZM66.8262 104.684C66.64 104.684 66.4251 104.705 66.1816 104.748C65.9525 104.777 65.709 104.834 65.4512 104.92C65.2077 104.992 64.9642 105.092 64.7207 105.221C64.4772 105.335 64.2624 105.479 64.0762 105.65C63.89 105.808 63.7324 105.987 63.6035 106.188C63.4889 106.388 63.4316 106.61 63.4316 106.854H64.3125C64.6276 106.854 64.9499 106.839 65.2793 106.811C65.6087 106.782 65.931 106.739 66.2461 106.682C66.5612 106.61 66.8333 106.51 67.0625 106.381C67.306 106.238 67.4993 106.059 67.6426 105.844C67.8001 105.629 67.8789 105.364 67.8789 105.049V104.941L67.6641 104.727C67.6354 104.727 67.5781 104.727 67.4922 104.727C67.4206 104.712 67.3418 104.705 67.2559 104.705C67.1699 104.691 67.084 104.684 66.998 104.684C66.9264 104.684 66.8691 104.684 66.8262 104.684ZM79.502 107.82C79.502 107.376 79.502 106.918 79.502 106.445C79.502 105.958 79.5234 105.471 79.5664 104.984C79.6094 104.497 79.6667 104.025 79.7383 103.566C79.8242 103.108 79.9531 102.657 80.125 102.213C79.9531 102.27 79.8242 102.285 79.7383 102.256C79.6523 102.227 79.5879 102.177 79.5449 102.105C79.502 102.034 79.4733 101.955 79.459 101.869C79.459 101.769 79.459 101.683 79.459 101.611C79.459 101.425 79.4876 101.289 79.5449 101.203C79.6022 101.117 79.681 101.06 79.7812 101.031C79.8815 100.988 79.9961 100.967 80.125 100.967C80.2682 100.952 80.4115 100.945 80.5547 100.945C81.0703 100.945 81.6074 100.988 82.166 101.074C82.7389 101.16 83.3047 101.296 83.8633 101.482C84.4219 101.654 84.9518 101.883 85.4531 102.17C85.9544 102.442 86.3984 102.779 86.7852 103.18C87.1862 103.566 87.5013 104.003 87.7305 104.49C87.9596 104.977 88.0742 105.536 88.0742 106.166C88.0742 106.925 87.9238 107.605 87.623 108.207C87.3223 108.809 86.9141 109.317 86.3984 109.732C85.8971 110.133 85.3099 110.449 84.6367 110.678C83.9635 110.907 83.2689 111.021 82.5527 111.021C82.0944 111.021 81.6719 110.943 81.2852 110.785C80.9128 110.628 80.5905 110.413 80.3184 110.141C80.0462 109.854 79.8385 109.51 79.6953 109.109C79.5664 108.708 79.502 108.279 79.502 107.82ZM80.9629 109.109C81.0632 109.281 81.2064 109.41 81.3926 109.496C81.5788 109.582 81.7721 109.646 81.9727 109.689C82.1732 109.732 82.3737 109.761 82.5742 109.775C82.7891 109.775 82.9824 109.775 83.1543 109.775C83.6413 109.775 84.1068 109.689 84.5508 109.518C85.0091 109.331 85.4102 109.081 85.7539 108.766C86.0977 108.451 86.3626 108.078 86.5488 107.648C86.7493 107.204 86.8496 106.732 86.8496 106.23C86.8496 105.829 86.7637 105.457 86.5918 105.113C86.4199 104.755 86.1908 104.426 85.9043 104.125C85.6322 103.824 85.3099 103.559 84.9375 103.33C84.5794 103.087 84.1999 102.886 83.7988 102.729C83.3978 102.557 82.9967 102.428 82.5957 102.342C82.1947 102.256 81.8079 102.213 81.4355 102.213H81.3711C81.1562 102.428 80.9987 102.721 80.8984 103.094C80.8125 103.452 80.7552 103.839 80.7266 104.254C80.7122 104.655 80.7122 105.056 80.7266 105.457C80.7409 105.844 80.748 106.159 80.748 106.402V106.811C80.748 106.896 80.7552 107.054 80.7695 107.283C80.7982 107.498 80.8197 107.734 80.834 107.992C80.8483 108.236 80.8698 108.465 80.8984 108.68C80.9271 108.895 80.9486 109.038 80.9629 109.109ZM89.5566 110.807C89.4564 110.52 89.3633 110.212 89.2773 109.883C89.2057 109.539 89.1413 109.188 89.084 108.83C89.041 108.472 89.0052 108.121 88.9766 107.777C88.9479 107.434 88.9336 107.111 88.9336 106.811C88.9336 106.768 88.9408 106.689 88.9551 106.574C88.9694 106.445 88.9837 106.316 88.998 106.188C89.0267 106.059 89.0553 105.937 89.084 105.822C89.1126 105.693 89.1341 105.607 89.1484 105.564C89.1628 105.55 89.2272 105.536 89.3418 105.521C89.4564 105.507 89.528 105.5 89.5566 105.5C89.7428 105.5 89.8932 105.6 90.0078 105.801C90.1224 106.001 90.2227 106.259 90.3086 106.574C90.3945 106.889 90.4518 107.24 90.4805 107.627C90.5234 107.999 90.5592 108.365 90.5879 108.723C90.6165 109.066 90.6309 109.374 90.6309 109.646C90.6309 109.919 90.6309 110.105 90.6309 110.205C90.6309 110.248 90.6309 110.32 90.6309 110.42C90.6452 110.506 90.6452 110.599 90.6309 110.699C90.6165 110.785 90.5807 110.857 90.5234 110.914C90.4805 110.971 90.4017 111 90.2871 111H90.2012C90.1725 111 90.1296 110.993 90.0723 110.979C90.015 110.95 89.9505 110.928 89.8789 110.914C89.8073 110.885 89.7428 110.864 89.6855 110.85C89.6283 110.835 89.5853 110.821 89.5566 110.807ZM89.3203 101.332C89.3203 100.974 89.5495 100.709 90.0078 100.537C90.1081 100.494 90.194 100.508 90.2656 100.58C90.3516 100.652 90.416 100.745 90.459 100.859C90.5163 100.974 90.5521 101.096 90.5664 101.225C90.5951 101.339 90.6094 101.425 90.6094 101.482C90.6094 101.568 90.5879 101.64 90.5449 101.697C90.502 101.74 90.4447 101.769 90.373 101.783C90.3158 101.798 90.2513 101.805 90.1797 101.805H90.0078C89.8073 101.805 89.6426 101.783 89.5137 101.74C89.3848 101.697 89.3203 101.561 89.3203 101.332ZM93.2949 109.689V109.238C93.2949 109.052 93.3092 108.873 93.3379 108.701C93.3665 108.529 93.4238 108.379 93.5098 108.25C93.5957 108.121 93.7174 108.057 93.875 108.057V108.078H93.9395L94.3691 109.732C94.3691 109.79 94.3978 109.833 94.4551 109.861C94.5124 109.89 94.5697 109.919 94.627 109.947C94.6986 109.962 94.763 109.969 94.8203 109.969C94.8919 109.969 94.9492 109.969 94.9922 109.969C95.0208 109.969 95.0566 109.969 95.0996 109.969C95.1569 109.954 95.1927 109.947 95.207 109.947C95.293 109.933 95.4577 109.897 95.7012 109.84C95.9447 109.768 96.1953 109.704 96.4531 109.646C96.7253 109.589 96.9759 109.532 97.2051 109.475C97.4486 109.403 97.6204 109.36 97.7207 109.346C97.7923 109.231 97.8997 109.131 98.043 109.045C98.1862 108.945 98.3294 108.852 98.4727 108.766C98.6159 108.68 98.7376 108.587 98.8379 108.486C98.9382 108.386 98.9883 108.257 98.9883 108.1C98.9883 107.742 98.8952 107.455 98.709 107.24C98.5371 107.025 98.3079 106.868 98.0215 106.768C97.7493 106.653 97.4557 106.574 97.1406 106.531C96.8255 106.488 96.5247 106.445 96.2383 106.402C96.1237 106.388 95.9375 106.367 95.6797 106.338C95.4362 106.295 95.1569 106.252 94.8418 106.209C94.5267 106.166 94.1973 106.123 93.8535 106.08C93.5098 106.023 93.1732 105.98 92.8438 105.951C92.5286 105.908 92.2422 105.872 91.9844 105.844C91.7409 105.815 91.5618 105.794 91.4473 105.779C91.3613 105.722 91.2682 105.622 91.168 105.479C91.0677 105.335 91.0176 105.221 91.0176 105.135C91.0176 104.891 91.1465 104.669 91.4043 104.469C91.6764 104.254 92.013 104.061 92.4141 103.889C92.8151 103.717 93.2663 103.566 93.7676 103.438C94.2832 103.309 94.7845 103.194 95.2715 103.094C95.7728 102.993 96.2311 102.922 96.6465 102.879C97.0762 102.836 97.4056 102.814 97.6348 102.814C97.8066 102.814 97.9642 102.872 98.1074 102.986C98.265 103.101 98.3438 103.266 98.3438 103.48C98.3438 103.652 98.2936 103.781 98.1934 103.867C98.1074 103.939 97.9928 103.989 97.8496 104.018C97.7207 104.032 97.5846 104.046 97.4414 104.061C97.3125 104.061 97.1908 104.068 97.0762 104.082C96.847 104.125 96.5534 104.182 96.1953 104.254C95.8516 104.326 95.5078 104.397 95.1641 104.469C94.8203 104.54 94.5339 104.598 94.3047 104.641L93.9395 104.727V104.963C94.2116 104.963 94.5553 104.97 94.9707 104.984C95.3861 104.999 95.8301 105.035 96.3027 105.092C96.7754 105.149 97.2409 105.242 97.6992 105.371C98.1719 105.486 98.5944 105.65 98.9668 105.865C99.3392 106.066 99.64 106.324 99.8691 106.639C100.113 106.939 100.234 107.312 100.234 107.756C100.234 108.357 100.07 108.866 99.7402 109.281C99.4108 109.697 98.9954 110.033 98.4941 110.291C97.9928 110.549 97.4486 110.735 96.8613 110.85C96.2741 110.964 95.7298 111.021 95.2285 111.021C95.028 111.021 94.8132 111.007 94.584 110.979C94.3548 110.936 94.14 110.864 93.9395 110.764C93.7533 110.663 93.5957 110.527 93.4668 110.355C93.3522 110.184 93.2949 109.962 93.2949 109.689ZM101.008 107.691C101.008 107.076 101.173 106.574 101.502 106.188C101.831 105.786 102.232 105.479 102.705 105.264C103.192 105.049 103.715 104.906 104.273 104.834C104.846 104.748 105.376 104.705 105.863 104.705H106.121C106.221 104.705 106.336 104.712 106.465 104.727C106.608 104.727 106.737 104.727 106.852 104.727H107.109C107.396 104.77 107.582 104.855 107.668 104.984C107.754 105.099 107.797 105.249 107.797 105.436C107.797 105.665 107.718 105.851 107.561 105.994C107.417 106.137 107.231 106.209 107.002 106.209C106.859 106.209 106.758 106.188 106.701 106.145C106.658 106.087 106.615 106.03 106.572 105.973C106.544 105.915 106.501 105.865 106.443 105.822C106.386 105.765 106.279 105.736 106.121 105.736C105.906 105.736 105.663 105.751 105.391 105.779C105.118 105.808 104.839 105.851 104.553 105.908C104.266 105.965 103.987 106.044 103.715 106.145C103.443 106.245 103.199 106.374 102.984 106.531C102.77 106.689 102.598 106.882 102.469 107.111C102.34 107.326 102.275 107.591 102.275 107.906C102.275 108.164 102.347 108.4 102.49 108.615C102.648 108.816 102.848 108.995 103.092 109.152C103.335 109.31 103.607 109.446 103.908 109.561C104.223 109.661 104.531 109.74 104.832 109.797C105.133 109.854 105.419 109.897 105.691 109.926C105.978 109.954 106.207 109.969 106.379 109.969C106.78 109.969 107.152 109.911 107.496 109.797C107.84 109.668 108.176 109.532 108.506 109.389C108.85 109.245 109.186 109.117 109.516 109.002C109.845 108.887 110.182 108.83 110.525 108.83C110.525 109.346 110.375 109.754 110.074 110.055C109.788 110.355 109.423 110.577 108.979 110.721C108.535 110.864 108.062 110.95 107.561 110.979C107.059 111.007 106.601 111.021 106.186 111.021C105.842 111.021 105.469 111.007 105.068 110.979C104.682 110.936 104.295 110.871 103.908 110.785C103.521 110.685 103.156 110.556 102.812 110.398C102.469 110.241 102.161 110.04 101.889 109.797C101.631 109.539 101.416 109.238 101.244 108.895C101.087 108.551 101.008 108.15 101.008 107.691ZM111.062 108.465C111.062 107.978 111.148 107.477 111.32 106.961C111.492 106.445 111.736 105.973 112.051 105.543C112.38 105.113 112.767 104.762 113.211 104.49C113.655 104.218 114.163 104.082 114.736 104.082C115.538 104.082 116.212 104.161 116.756 104.318C117.3 104.476 117.744 104.719 118.088 105.049C118.432 105.364 118.675 105.779 118.818 106.295C118.976 106.796 119.055 107.391 119.055 108.078C119.055 108.121 119.048 108.207 119.033 108.336C119.033 108.451 119.033 108.572 119.033 108.701C119.033 108.83 119.026 108.959 119.012 109.088C119.012 109.202 119.012 109.288 119.012 109.346C118.911 109.704 118.718 109.997 118.432 110.227C118.16 110.441 117.837 110.606 117.465 110.721C117.107 110.835 116.727 110.914 116.326 110.957C115.939 111 115.589 111.021 115.273 111.021C114.829 111.021 114.364 110.993 113.877 110.936C113.39 110.878 112.932 110.764 112.502 110.592C112.087 110.406 111.743 110.148 111.471 109.818C111.199 109.475 111.062 109.023 111.062 108.465ZM112.137 108.186C112.137 108.558 112.244 108.866 112.459 109.109C112.688 109.339 112.96 109.518 113.275 109.646C113.59 109.775 113.927 109.861 114.285 109.904C114.658 109.947 114.973 109.969 115.23 109.969C115.488 109.969 115.71 109.969 115.896 109.969C116.097 109.969 116.29 109.947 116.477 109.904C116.663 109.861 116.856 109.797 117.057 109.711C117.257 109.625 117.493 109.503 117.766 109.346C117.909 109.117 117.988 108.895 118.002 108.68C118.016 108.451 118.023 108.214 118.023 107.971C118.023 107.484 117.93 107.054 117.744 106.682C117.558 106.309 117.307 106.008 116.992 105.779C116.677 105.55 116.298 105.4 115.854 105.328C115.424 105.242 114.944 105.249 114.414 105.35C114.199 105.393 113.956 105.521 113.684 105.736C113.411 105.951 113.161 106.202 112.932 106.488C112.702 106.775 112.509 107.076 112.352 107.391C112.208 107.691 112.137 107.956 112.137 108.186ZM120.279 106.811C120.265 106.811 120.229 106.789 120.172 106.746C120.115 106.689 120.086 106.639 120.086 106.596C120.072 106.596 120.064 106.581 120.064 106.553V106.445C120.064 106.431 120.072 106.417 120.086 106.402C120.243 106.245 120.372 106.13 120.473 106.059C120.587 105.987 120.738 105.951 120.924 105.951C120.981 105.951 121.031 105.965 121.074 105.994C121.132 106.023 121.174 106.051 121.203 106.08C121.232 106.109 121.26 106.137 121.289 106.166C121.332 106.195 121.375 106.209 121.418 106.209C121.461 106.209 121.547 106.145 121.676 106.016C121.805 105.872 121.977 105.701 122.191 105.5C122.406 105.299 122.671 105.085 122.986 104.855C123.301 104.612 123.652 104.39 124.039 104.189C124.44 103.989 124.87 103.824 125.328 103.695C125.801 103.552 126.316 103.48 126.875 103.48H127.004C127.061 103.495 127.176 103.523 127.348 103.566C127.534 103.595 127.727 103.638 127.928 103.695C128.128 103.738 128.314 103.781 128.486 103.824C128.673 103.853 128.801 103.874 128.873 103.889C128.887 103.903 128.916 103.932 128.959 103.975C129.002 104.003 129.045 104.039 129.088 104.082C129.131 104.111 129.167 104.146 129.195 104.189C129.238 104.232 129.267 104.268 129.281 104.297C129.281 104.311 129.288 104.333 129.303 104.361C129.303 104.361 129.303 104.368 129.303 104.383C129.317 104.397 129.324 104.404 129.324 104.404L129.303 104.447C129.303 104.447 129.303 104.454 129.303 104.469C129.288 104.483 129.281 104.497 129.281 104.512C129.267 104.555 129.231 104.605 129.174 104.662C129.117 104.705 129.088 104.727 129.088 104.727H125.307C124.992 104.727 124.648 104.82 124.275 105.006C123.917 105.178 123.574 105.407 123.244 105.693C122.929 105.965 122.664 106.281 122.449 106.639C122.249 106.982 122.148 107.319 122.148 107.648V110.699C121.991 110.699 121.876 110.721 121.805 110.764C121.733 110.792 121.669 110.828 121.611 110.871C121.568 110.914 121.518 110.95 121.461 110.979C121.404 111.007 121.325 111.021 121.225 111.021H121.182C121.167 111.021 121.153 111.014 121.139 111C121.081 110.986 121.031 110.957 120.988 110.914C120.945 110.857 120.924 110.821 120.924 110.807L120.279 106.811ZM137.381 110.355C136.908 110.355 136.443 110.398 135.984 110.484C135.54 110.556 135.089 110.592 134.631 110.592C134.316 110.592 133.972 110.592 133.6 110.592C133.242 110.577 132.876 110.549 132.504 110.506C132.146 110.449 131.795 110.37 131.451 110.27C131.107 110.155 130.799 110.005 130.527 109.818C130.27 109.618 130.055 109.374 129.883 109.088C129.725 108.801 129.646 108.443 129.646 108.014C129.646 107.498 129.783 107.054 130.055 106.682C130.341 106.309 130.685 106.016 131.086 105.801C131.501 105.572 131.952 105.407 132.439 105.307C132.941 105.192 133.421 105.135 133.879 105.135C134.48 105.135 135.089 105.235 135.705 105.436C136.335 105.622 136.915 105.872 137.445 106.188V102.213C137.445 102.027 137.474 101.912 137.531 101.869C137.603 101.812 137.696 101.783 137.811 101.783C138.011 101.783 138.183 101.984 138.326 102.385C138.469 102.771 138.591 103.273 138.691 103.889C138.792 104.505 138.87 105.185 138.928 105.93C138.999 106.674 139.049 107.391 139.078 108.078C139.107 108.766 139.121 109.382 139.121 109.926C139.135 110.456 139.143 110.835 139.143 111.064C138.913 111.064 138.713 111.029 138.541 110.957C138.383 110.871 138.24 110.785 138.111 110.699C137.997 110.613 137.882 110.535 137.768 110.463C137.653 110.391 137.524 110.355 137.381 110.355ZM130.914 108.014C130.914 108.3 130.993 108.536 131.15 108.723C131.308 108.895 131.516 109.038 131.773 109.152C132.031 109.267 132.318 109.353 132.633 109.41C132.948 109.467 133.263 109.51 133.578 109.539C133.893 109.553 134.194 109.561 134.48 109.561H135.189C135.218 109.561 135.347 109.568 135.576 109.582C135.82 109.596 136.077 109.596 136.35 109.582C136.622 109.553 136.872 109.51 137.102 109.453C137.331 109.382 137.445 109.267 137.445 109.109V106.811C137.288 106.968 137.145 107.083 137.016 107.154C136.901 107.226 136.751 107.262 136.564 107.262C136.55 107.262 136.471 107.219 136.328 107.133C136.185 107.033 135.992 106.932 135.748 106.832C135.519 106.717 135.247 106.617 134.932 106.531C134.631 106.431 134.301 106.381 133.943 106.381C133.7 106.381 133.406 106.41 133.062 106.467C132.719 106.51 132.382 106.596 132.053 106.725C131.738 106.839 131.465 107.004 131.236 107.219C131.021 107.434 130.914 107.699 130.914 108.014ZM146.92 107.691C146.92 107.076 147.085 106.574 147.414 106.188C147.743 105.786 148.145 105.479 148.617 105.264C149.104 105.049 149.627 104.906 150.186 104.834C150.758 104.748 151.288 104.705 151.775 104.705H152.033C152.133 104.705 152.248 104.712 152.377 104.727C152.52 104.727 152.649 104.727 152.764 104.727H153.021C153.308 104.77 153.494 104.855 153.58 104.984C153.666 105.099 153.709 105.249 153.709 105.436C153.709 105.665 153.63 105.851 153.473 105.994C153.329 106.137 153.143 106.209 152.914 106.209C152.771 106.209 152.671 106.188 152.613 106.145C152.57 106.087 152.527 106.03 152.484 105.973C152.456 105.915 152.413 105.865 152.355 105.822C152.298 105.765 152.191 105.736 152.033 105.736C151.818 105.736 151.575 105.751 151.303 105.779C151.031 105.808 150.751 105.851 150.465 105.908C150.178 105.965 149.899 106.044 149.627 106.145C149.355 106.245 149.111 106.374 148.896 106.531C148.682 106.689 148.51 106.882 148.381 107.111C148.252 107.326 148.188 107.591 148.188 107.906C148.188 108.164 148.259 108.4 148.402 108.615C148.56 108.816 148.76 108.995 149.004 109.152C149.247 109.31 149.52 109.446 149.82 109.561C150.135 109.661 150.443 109.74 150.744 109.797C151.045 109.854 151.331 109.897 151.604 109.926C151.89 109.954 152.119 109.969 152.291 109.969C152.692 109.969 153.064 109.911 153.408 109.797C153.752 109.668 154.089 109.532 154.418 109.389C154.762 109.245 155.098 109.117 155.428 109.002C155.757 108.887 156.094 108.83 156.438 108.83C156.438 109.346 156.287 109.754 155.986 110.055C155.7 110.355 155.335 110.577 154.891 110.721C154.447 110.864 153.974 110.95 153.473 110.979C152.971 111.007 152.513 111.021 152.098 111.021C151.754 111.021 151.382 111.007 150.98 110.979C150.594 110.936 150.207 110.871 149.82 110.785C149.434 110.685 149.068 110.556 148.725 110.398C148.381 110.241 148.073 110.04 147.801 109.797C147.543 109.539 147.328 109.238 147.156 108.895C146.999 108.551 146.92 108.15 146.92 107.691ZM156.975 108.465C156.975 107.978 157.061 107.477 157.232 106.961C157.404 106.445 157.648 105.973 157.963 105.543C158.292 105.113 158.679 104.762 159.123 104.49C159.567 104.218 160.076 104.082 160.648 104.082C161.451 104.082 162.124 104.161 162.668 104.318C163.212 104.476 163.656 104.719 164 105.049C164.344 105.364 164.587 105.779 164.73 106.295C164.888 106.796 164.967 107.391 164.967 108.078C164.967 108.121 164.96 108.207 164.945 108.336C164.945 108.451 164.945 108.572 164.945 108.701C164.945 108.83 164.938 108.959 164.924 109.088C164.924 109.202 164.924 109.288 164.924 109.346C164.824 109.704 164.63 109.997 164.344 110.227C164.072 110.441 163.749 110.606 163.377 110.721C163.019 110.835 162.639 110.914 162.238 110.957C161.852 111 161.501 111.021 161.186 111.021C160.742 111.021 160.276 110.993 159.789 110.936C159.302 110.878 158.844 110.764 158.414 110.592C157.999 110.406 157.655 110.148 157.383 109.818C157.111 109.475 156.975 109.023 156.975 108.465ZM158.049 108.186C158.049 108.558 158.156 108.866 158.371 109.109C158.6 109.339 158.872 109.518 159.188 109.646C159.503 109.775 159.839 109.861 160.197 109.904C160.57 109.947 160.885 109.969 161.143 109.969C161.4 109.969 161.622 109.969 161.809 109.969C162.009 109.969 162.202 109.947 162.389 109.904C162.575 109.861 162.768 109.797 162.969 109.711C163.169 109.625 163.406 109.503 163.678 109.346C163.821 109.117 163.9 108.895 163.914 108.68C163.928 108.451 163.936 108.214 163.936 107.971C163.936 107.484 163.842 107.054 163.656 106.682C163.47 106.309 163.219 106.008 162.904 105.779C162.589 105.55 162.21 105.4 161.766 105.328C161.336 105.242 160.856 105.249 160.326 105.35C160.111 105.393 159.868 105.521 159.596 105.736C159.324 105.951 159.073 106.202 158.844 106.488C158.615 106.775 158.421 107.076 158.264 107.391C158.12 107.691 158.049 107.956 158.049 108.186ZM178.223 106.166C177.793 106.166 177.421 106.259 177.105 106.445C176.805 106.617 176.525 106.839 176.268 107.111C176.01 107.369 175.773 107.656 175.559 107.971C175.344 108.286 175.115 108.579 174.871 108.852C174.642 109.109 174.391 109.331 174.119 109.518C173.847 109.689 173.532 109.775 173.174 109.775C173.174 109.503 173.167 109.195 173.152 108.852C173.138 108.508 173.102 108.157 173.045 107.799C172.988 107.441 172.909 107.09 172.809 106.746C172.708 106.388 172.565 106.08 172.379 105.822C172.193 105.55 171.956 105.335 171.67 105.178C171.398 105.006 171.068 104.92 170.682 104.92C170.195 104.92 169.772 105.035 169.414 105.264C169.07 105.493 168.777 105.786 168.533 106.145C168.304 106.503 168.132 106.904 168.018 107.348C167.903 107.777 167.846 108.207 167.846 108.637C167.66 108.637 167.516 108.658 167.416 108.701C167.33 108.73 167.237 108.766 167.137 108.809C167.051 108.852 166.958 108.895 166.857 108.938C166.771 108.98 166.643 109.002 166.471 109.002C166.471 108.644 166.442 108.293 166.385 107.949C166.327 107.591 166.27 107.24 166.213 106.896C166.156 106.553 166.098 106.209 166.041 105.865C165.998 105.521 165.977 105.178 165.977 104.834V104.684C165.977 104.612 165.977 104.54 165.977 104.469C165.991 104.383 165.998 104.311 165.998 104.254V104.082C166.041 103.967 166.098 103.903 166.17 103.889C166.242 103.874 166.32 103.867 166.406 103.867C166.592 103.867 166.736 103.939 166.836 104.082C166.936 104.225 167.015 104.397 167.072 104.598C167.13 104.784 167.165 104.977 167.18 105.178C167.208 105.364 167.23 105.493 167.244 105.564H167.459C167.917 104.934 168.447 104.462 169.049 104.146C169.665 103.831 170.352 103.674 171.111 103.674C171.627 103.674 172.057 103.788 172.4 104.018C172.758 104.247 173.059 104.533 173.303 104.877C173.546 105.221 173.747 105.607 173.904 106.037C174.062 106.452 174.212 106.854 174.355 107.24H174.57C174.885 106.954 175.208 106.667 175.537 106.381C175.881 106.094 176.225 105.851 176.568 105.65C176.926 105.436 177.299 105.264 177.686 105.135C178.087 104.992 178.523 104.92 178.996 104.92C179.34 104.92 179.655 105.035 179.941 105.264C180.242 105.479 180.507 105.765 180.736 106.123C180.98 106.481 181.188 106.882 181.359 107.326C181.531 107.756 181.674 108.2 181.789 108.658C181.904 109.117 181.99 109.553 182.047 109.969C182.104 110.384 182.133 110.749 182.133 111.064C181.603 111.064 181.216 110.943 180.973 110.699C180.729 110.456 180.55 110.155 180.436 109.797C180.321 109.424 180.242 109.031 180.199 108.615C180.156 108.186 180.077 107.792 179.963 107.434C179.848 107.076 179.662 106.775 179.404 106.531C179.146 106.288 178.753 106.166 178.223 106.166ZM194.959 106.166C194.529 106.166 194.157 106.259 193.842 106.445C193.541 106.617 193.262 106.839 193.004 107.111C192.746 107.369 192.51 107.656 192.295 107.971C192.08 108.286 191.851 108.579 191.607 108.852C191.378 109.109 191.128 109.331 190.855 109.518C190.583 109.689 190.268 109.775 189.91 109.775C189.91 109.503 189.903 109.195 189.889 108.852C189.874 108.508 189.839 108.157 189.781 107.799C189.724 107.441 189.645 107.09 189.545 106.746C189.445 106.388 189.301 106.08 189.115 105.822C188.929 105.55 188.693 105.335 188.406 105.178C188.134 105.006 187.805 104.92 187.418 104.92C186.931 104.92 186.508 105.035 186.15 105.264C185.807 105.493 185.513 105.786 185.27 106.145C185.04 106.503 184.868 106.904 184.754 107.348C184.639 107.777 184.582 108.207 184.582 108.637C184.396 108.637 184.253 108.658 184.152 108.701C184.066 108.73 183.973 108.766 183.873 108.809C183.787 108.852 183.694 108.895 183.594 108.938C183.508 108.98 183.379 109.002 183.207 109.002C183.207 108.644 183.178 108.293 183.121 107.949C183.064 107.591 183.007 107.24 182.949 106.896C182.892 106.553 182.835 106.209 182.777 105.865C182.734 105.521 182.713 105.178 182.713 104.834V104.684C182.713 104.612 182.713 104.54 182.713 104.469C182.727 104.383 182.734 104.311 182.734 104.254V104.082C182.777 103.967 182.835 103.903 182.906 103.889C182.978 103.874 183.057 103.867 183.143 103.867C183.329 103.867 183.472 103.939 183.572 104.082C183.673 104.225 183.751 104.397 183.809 104.598C183.866 104.784 183.902 104.977 183.916 105.178C183.945 105.364 183.966 105.493 183.98 105.564H184.195C184.654 104.934 185.184 104.462 185.785 104.146C186.401 103.831 187.089 103.674 187.848 103.674C188.363 103.674 188.793 103.788 189.137 104.018C189.495 104.247 189.796 104.533 190.039 104.877C190.283 105.221 190.483 105.607 190.641 106.037C190.798 106.452 190.949 106.854 191.092 107.24H191.307C191.622 106.954 191.944 106.667 192.273 106.381C192.617 106.094 192.961 105.851 193.305 105.65C193.663 105.436 194.035 105.264 194.422 105.135C194.823 104.992 195.26 104.92 195.732 104.92C196.076 104.92 196.391 105.035 196.678 105.264C196.979 105.479 197.243 105.765 197.473 106.123C197.716 106.481 197.924 106.882 198.096 107.326C198.268 107.756 198.411 108.2 198.525 108.658C198.64 109.117 198.726 109.553 198.783 109.969C198.84 110.384 198.869 110.749 198.869 111.064C198.339 111.064 197.952 110.943 197.709 110.699C197.465 110.456 197.286 110.155 197.172 109.797C197.057 109.424 196.979 109.031 196.936 108.615C196.893 108.186 196.814 107.792 196.699 107.434C196.585 107.076 196.398 106.775 196.141 106.531C195.883 106.288 195.489 106.166 194.959 106.166ZM205.422 109.947C205.193 109.947 204.949 109.983 204.691 110.055C204.448 110.112 204.204 110.184 203.961 110.27C203.717 110.355 203.46 110.434 203.188 110.506C202.93 110.563 202.665 110.592 202.393 110.592C201.977 110.592 201.576 110.527 201.189 110.398C200.803 110.27 200.459 110.076 200.158 109.818C199.872 109.561 199.643 109.253 199.471 108.895C199.299 108.522 199.213 108.107 199.213 107.648C199.213 107.247 199.335 106.875 199.578 106.531C199.836 106.188 200.151 105.901 200.523 105.672C200.896 105.443 201.297 105.264 201.727 105.135C202.156 105.006 202.543 104.941 202.887 104.941C203.044 104.941 203.238 104.956 203.467 104.984C203.71 104.999 203.968 105.035 204.24 105.092C204.527 105.135 204.813 105.199 205.1 105.285C205.386 105.357 205.644 105.457 205.873 105.586C206.117 105.715 206.317 105.865 206.475 106.037C206.646 106.195 206.747 106.381 206.775 106.596C206.775 106.667 206.761 106.796 206.732 106.982C206.704 107.154 206.682 107.34 206.668 107.541C206.654 107.742 206.632 107.935 206.604 108.121C206.589 108.293 206.575 108.422 206.561 108.508V108.637C206.561 108.952 206.632 109.188 206.775 109.346C206.919 109.503 207.09 109.618 207.291 109.689C207.506 109.747 207.728 109.775 207.957 109.775H208.645C208.859 109.775 208.995 109.775 209.053 109.775C209.11 109.761 209.146 109.754 209.16 109.754C209.189 109.754 209.225 109.754 209.268 109.754C209.325 109.74 209.468 109.732 209.697 109.732C209.883 109.732 210.027 109.768 210.127 109.84C210.227 109.911 210.277 110.062 210.277 110.291C210.277 110.535 210.199 110.706 210.041 110.807C209.883 110.907 209.697 110.971 209.482 111C209.268 111.043 209.053 111.057 208.838 111.043C208.623 111.029 208.458 111.021 208.344 111.021C208.014 111.021 207.699 110.964 207.398 110.85C207.112 110.735 206.847 110.613 206.604 110.484C206.36 110.341 206.138 110.219 205.938 110.119C205.737 110.005 205.565 109.947 205.422 109.947ZM200.48 107.863C200.48 108.207 200.552 108.486 200.695 108.701C200.853 108.902 201.039 109.052 201.254 109.152C201.483 109.238 201.734 109.296 202.006 109.324C202.278 109.339 202.543 109.346 202.801 109.346C202.901 109.346 203.066 109.339 203.295 109.324C203.538 109.31 203.789 109.281 204.047 109.238C204.305 109.181 204.534 109.109 204.734 109.023C204.949 108.938 205.071 108.83 205.1 108.701L205.529 107.025C205.558 106.911 205.529 106.811 205.443 106.725C205.357 106.639 205.236 106.567 205.078 106.51C204.935 106.452 204.77 106.402 204.584 106.359C204.412 106.316 204.24 106.281 204.068 106.252C203.896 106.223 203.739 106.202 203.596 106.188C203.467 106.173 203.388 106.166 203.359 106.166C203.102 106.166 202.801 106.195 202.457 106.252C202.128 106.295 201.812 106.381 201.512 106.51C201.225 106.624 200.982 106.789 200.781 107.004C200.581 107.219 200.48 107.505 200.48 107.863ZM215.584 106.381C215.083 106.381 214.639 106.474 214.252 106.66C213.88 106.832 213.543 107.061 213.242 107.348C212.941 107.634 212.691 107.942 212.49 108.271C212.29 108.587 212.111 108.887 211.953 109.174C211.81 109.46 211.695 109.697 211.609 109.883C211.538 110.069 211.488 110.162 211.459 110.162C211.072 110.162 210.8 110.062 210.643 109.861C210.485 109.661 210.385 109.417 210.342 109.131C210.299 108.83 210.292 108.522 210.32 108.207C210.363 107.878 210.385 107.591 210.385 107.348V106.982C210.385 106.811 210.385 106.632 210.385 106.445C210.399 106.259 210.406 106.087 210.406 105.93V105.564C210.449 105.45 210.507 105.385 210.578 105.371C210.65 105.357 210.729 105.35 210.814 105.35C210.943 105.35 211.051 105.428 211.137 105.586C211.223 105.729 211.301 105.908 211.373 106.123C211.445 106.338 211.502 106.553 211.545 106.768C211.588 106.968 211.624 107.126 211.652 107.24C211.824 107.212 211.982 107.14 212.125 107.025C212.268 106.911 212.411 106.775 212.555 106.617C212.712 106.46 212.877 106.295 213.049 106.123C213.221 105.951 213.421 105.794 213.65 105.65C213.88 105.493 214.145 105.364 214.445 105.264C214.76 105.163 215.118 105.113 215.52 105.113C216.322 105.113 216.98 105.292 217.496 105.65C218.012 105.994 218.406 106.452 218.678 107.025C218.964 107.584 219.158 108.221 219.258 108.938C219.358 109.639 219.408 110.355 219.408 111.086C218.979 111.086 218.642 111.021 218.398 110.893C218.169 110.749 218.005 110.57 217.904 110.355C217.804 110.126 217.747 109.876 217.732 109.604C217.718 109.317 217.711 109.031 217.711 108.744C217.711 108.443 217.689 108.15 217.646 107.863C217.618 107.577 217.532 107.326 217.389 107.111C217.26 106.896 217.052 106.725 216.766 106.596C216.493 106.452 216.1 106.381 215.584 106.381ZM227.508 110.355C227.035 110.355 226.57 110.398 226.111 110.484C225.667 110.556 225.216 110.592 224.758 110.592C224.443 110.592 224.099 110.592 223.727 110.592C223.368 110.577 223.003 110.549 222.631 110.506C222.273 110.449 221.922 110.37 221.578 110.27C221.234 110.155 220.926 110.005 220.654 109.818C220.396 109.618 220.182 109.374 220.01 109.088C219.852 108.801 219.773 108.443 219.773 108.014C219.773 107.498 219.91 107.054 220.182 106.682C220.468 106.309 220.812 106.016 221.213 105.801C221.628 105.572 222.079 105.407 222.566 105.307C223.068 105.192 223.548 105.135 224.006 105.135C224.607 105.135 225.216 105.235 225.832 105.436C226.462 105.622 227.042 105.872 227.572 106.188V102.213C227.572 102.027 227.601 101.912 227.658 101.869C227.73 101.812 227.823 101.783 227.938 101.783C228.138 101.783 228.31 101.984 228.453 102.385C228.596 102.771 228.718 103.273 228.818 103.889C228.919 104.505 228.997 105.185 229.055 105.93C229.126 106.674 229.176 107.391 229.205 108.078C229.234 108.766 229.248 109.382 229.248 109.926C229.262 110.456 229.27 110.835 229.27 111.064C229.04 111.064 228.84 111.029 228.668 110.957C228.51 110.871 228.367 110.785 228.238 110.699C228.124 110.613 228.009 110.535 227.895 110.463C227.78 110.391 227.651 110.355 227.508 110.355ZM221.041 108.014C221.041 108.3 221.12 108.536 221.277 108.723C221.435 108.895 221.643 109.038 221.9 109.152C222.158 109.267 222.445 109.353 222.76 109.41C223.075 109.467 223.39 109.51 223.705 109.539C224.02 109.553 224.321 109.561 224.607 109.561H225.316C225.345 109.561 225.474 109.568 225.703 109.582C225.947 109.596 226.204 109.596 226.477 109.582C226.749 109.553 226.999 109.51 227.229 109.453C227.458 109.382 227.572 109.267 227.572 109.109V106.811C227.415 106.968 227.271 107.083 227.143 107.154C227.028 107.226 226.878 107.262 226.691 107.262C226.677 107.262 226.598 107.219 226.455 107.133C226.312 107.033 226.118 106.932 225.875 106.832C225.646 106.717 225.374 106.617 225.059 106.531C224.758 106.431 224.428 106.381 224.07 106.381C223.827 106.381 223.533 106.41 223.189 106.467C222.846 106.51 222.509 106.596 222.18 106.725C221.865 106.839 221.592 107.004 221.363 107.219C221.148 107.434 221.041 107.699 221.041 108.014ZM232.148 109.689V109.238C232.148 109.052 232.163 108.873 232.191 108.701C232.22 108.529 232.277 108.379 232.363 108.25C232.449 108.121 232.571 108.057 232.729 108.057V108.078H232.793L233.223 109.732C233.223 109.79 233.251 109.833 233.309 109.861C233.366 109.89 233.423 109.919 233.48 109.947C233.552 109.962 233.617 109.969 233.674 109.969C233.745 109.969 233.803 109.969 233.846 109.969C233.874 109.969 233.91 109.969 233.953 109.969C234.01 109.954 234.046 109.947 234.061 109.947C234.146 109.933 234.311 109.897 234.555 109.84C234.798 109.768 235.049 109.704 235.307 109.646C235.579 109.589 235.829 109.532 236.059 109.475C236.302 109.403 236.474 109.36 236.574 109.346C236.646 109.231 236.753 109.131 236.896 109.045C237.04 108.945 237.183 108.852 237.326 108.766C237.469 108.68 237.591 108.587 237.691 108.486C237.792 108.386 237.842 108.257 237.842 108.1C237.842 107.742 237.749 107.455 237.562 107.24C237.391 107.025 237.161 106.868 236.875 106.768C236.603 106.653 236.309 106.574 235.994 106.531C235.679 106.488 235.378 106.445 235.092 106.402C234.977 106.388 234.791 106.367 234.533 106.338C234.29 106.295 234.01 106.252 233.695 106.209C233.38 106.166 233.051 106.123 232.707 106.08C232.363 106.023 232.027 105.98 231.697 105.951C231.382 105.908 231.096 105.872 230.838 105.844C230.594 105.815 230.415 105.794 230.301 105.779C230.215 105.722 230.122 105.622 230.021 105.479C229.921 105.335 229.871 105.221 229.871 105.135C229.871 104.891 230 104.669 230.258 104.469C230.53 104.254 230.867 104.061 231.268 103.889C231.669 103.717 232.12 103.566 232.621 103.438C233.137 103.309 233.638 103.194 234.125 103.094C234.626 102.993 235.085 102.922 235.5 102.879C235.93 102.836 236.259 102.814 236.488 102.814C236.66 102.814 236.818 102.872 236.961 102.986C237.118 103.101 237.197 103.266 237.197 103.48C237.197 103.652 237.147 103.781 237.047 103.867C236.961 103.939 236.846 103.989 236.703 104.018C236.574 104.032 236.438 104.046 236.295 104.061C236.166 104.061 236.044 104.068 235.93 104.082C235.701 104.125 235.407 104.182 235.049 104.254C234.705 104.326 234.361 104.397 234.018 104.469C233.674 104.54 233.387 104.598 233.158 104.641L232.793 104.727V104.963C233.065 104.963 233.409 104.97 233.824 104.984C234.24 104.999 234.684 105.035 235.156 105.092C235.629 105.149 236.094 105.242 236.553 105.371C237.025 105.486 237.448 105.65 237.82 105.865C238.193 106.066 238.493 106.324 238.723 106.639C238.966 106.939 239.088 107.312 239.088 107.756C239.088 108.357 238.923 108.866 238.594 109.281C238.264 109.697 237.849 110.033 237.348 110.291C236.846 110.549 236.302 110.735 235.715 110.85C235.128 110.964 234.583 111.021 234.082 111.021C233.882 111.021 233.667 111.007 233.438 110.979C233.208 110.936 232.993 110.864 232.793 110.764C232.607 110.663 232.449 110.527 232.32 110.355C232.206 110.184 232.148 109.962 232.148 109.689ZM247.102 107.219C247.102 106.732 247.238 106.259 247.51 105.801C247.782 105.342 248.126 104.941 248.541 104.598C248.971 104.254 249.436 103.982 249.938 103.781C250.453 103.581 250.94 103.48 251.398 103.48C251.771 103.48 252.136 103.531 252.494 103.631C252.867 103.717 253.196 103.86 253.482 104.061C253.769 104.261 253.998 104.512 254.17 104.812C254.356 105.099 254.449 105.443 254.449 105.844C254.449 106.03 254.435 106.18 254.406 106.295C254.392 106.395 254.349 106.488 254.277 106.574C254.206 106.646 254.113 106.717 253.998 106.789C253.898 106.846 253.769 106.925 253.611 107.025C253.525 107.04 253.396 107.076 253.225 107.133C253.053 107.176 252.852 107.226 252.623 107.283C252.408 107.34 252.179 107.398 251.936 107.455C251.692 107.512 251.456 107.57 251.227 107.627C251.012 107.684 250.818 107.734 250.646 107.777C250.475 107.82 250.346 107.849 250.26 107.863C250.217 107.878 250.124 107.892 249.98 107.906C249.837 107.921 249.68 107.942 249.508 107.971C249.35 107.985 249.2 108.007 249.057 108.035C248.913 108.049 248.827 108.064 248.799 108.078C248.756 108.092 248.706 108.128 248.648 108.186C248.605 108.229 248.584 108.257 248.584 108.271C248.584 108.558 248.663 108.801 248.82 109.002C248.978 109.188 249.178 109.346 249.422 109.475C249.665 109.604 249.938 109.704 250.238 109.775C250.553 109.833 250.861 109.883 251.162 109.926C251.463 109.954 251.742 109.969 252 109.969C252.258 109.969 252.465 109.969 252.623 109.969C253.339 109.969 254.041 109.933 254.729 109.861C255.416 109.775 256.118 109.732 256.834 109.732V109.904C256.834 109.99 256.82 110.083 256.791 110.184C256.777 110.27 256.748 110.355 256.705 110.441C256.662 110.513 256.605 110.556 256.533 110.57C255.989 110.685 255.502 110.778 255.072 110.85C254.657 110.907 254.263 110.95 253.891 110.979C253.518 110.993 253.132 111 252.73 111C252.329 111.014 251.885 111.021 251.398 111.021H251.033C250.876 111.021 250.704 111.014 250.518 111C250.331 111 250.152 111 249.98 111H249.615C249.171 110.885 248.785 110.706 248.455 110.463C248.14 110.205 247.882 109.904 247.682 109.561C247.481 109.217 247.331 108.844 247.23 108.443C247.145 108.042 247.102 107.634 247.102 107.219ZM251.914 104.684C251.728 104.684 251.513 104.705 251.27 104.748C251.04 104.777 250.797 104.834 250.539 104.92C250.296 104.992 250.052 105.092 249.809 105.221C249.565 105.335 249.35 105.479 249.164 105.65C248.978 105.808 248.82 105.987 248.691 106.188C248.577 106.388 248.52 106.61 248.52 106.854H249.4C249.715 106.854 250.038 106.839 250.367 106.811C250.697 106.782 251.019 106.739 251.334 106.682C251.649 106.61 251.921 106.51 252.15 106.381C252.394 106.238 252.587 106.059 252.73 105.844C252.888 105.629 252.967 105.364 252.967 105.049V104.941L252.752 104.727C252.723 104.727 252.666 104.727 252.58 104.727C252.508 104.712 252.43 104.705 252.344 104.705C252.258 104.691 252.172 104.684 252.086 104.684C252.014 104.684 251.957 104.684 251.914 104.684ZM263.537 109.947C263.308 109.947 263.064 109.983 262.807 110.055C262.563 110.112 262.32 110.184 262.076 110.27C261.833 110.355 261.575 110.434 261.303 110.506C261.045 110.563 260.78 110.592 260.508 110.592C260.092 110.592 259.691 110.527 259.305 110.398C258.918 110.27 258.574 110.076 258.273 109.818C257.987 109.561 257.758 109.253 257.586 108.895C257.414 108.522 257.328 108.107 257.328 107.648C257.328 107.247 257.45 106.875 257.693 106.531C257.951 106.188 258.266 105.901 258.639 105.672C259.011 105.443 259.412 105.264 259.842 105.135C260.271 105.006 260.658 104.941 261.002 104.941C261.16 104.941 261.353 104.956 261.582 104.984C261.826 104.999 262.083 105.035 262.355 105.092C262.642 105.135 262.928 105.199 263.215 105.285C263.501 105.357 263.759 105.457 263.988 105.586C264.232 105.715 264.432 105.865 264.59 106.037C264.762 106.195 264.862 106.381 264.891 106.596C264.891 106.667 264.876 106.796 264.848 106.982C264.819 107.154 264.798 107.34 264.783 107.541C264.769 107.742 264.747 107.935 264.719 108.121C264.704 108.293 264.69 108.422 264.676 108.508V108.637C264.676 108.952 264.747 109.188 264.891 109.346C265.034 109.503 265.206 109.618 265.406 109.689C265.621 109.747 265.843 109.775 266.072 109.775H266.76C266.975 109.775 267.111 109.775 267.168 109.775C267.225 109.761 267.261 109.754 267.275 109.754C267.304 109.754 267.34 109.754 267.383 109.754C267.44 109.74 267.583 109.732 267.812 109.732C267.999 109.732 268.142 109.768 268.242 109.84C268.342 109.911 268.393 110.062 268.393 110.291C268.393 110.535 268.314 110.706 268.156 110.807C267.999 110.907 267.812 110.971 267.598 111C267.383 111.043 267.168 111.057 266.953 111.043C266.738 111.029 266.574 111.021 266.459 111.021C266.13 111.021 265.814 110.964 265.514 110.85C265.227 110.735 264.962 110.613 264.719 110.484C264.475 110.341 264.253 110.219 264.053 110.119C263.852 110.005 263.68 109.947 263.537 109.947ZM258.596 107.863C258.596 108.207 258.667 108.486 258.811 108.701C258.968 108.902 259.154 109.052 259.369 109.152C259.598 109.238 259.849 109.296 260.121 109.324C260.393 109.339 260.658 109.346 260.916 109.346C261.016 109.346 261.181 109.339 261.41 109.324C261.654 109.31 261.904 109.281 262.162 109.238C262.42 109.181 262.649 109.109 262.85 109.023C263.064 108.938 263.186 108.83 263.215 108.701L263.645 107.025C263.673 106.911 263.645 106.811 263.559 106.725C263.473 106.639 263.351 106.567 263.193 106.51C263.05 106.452 262.885 106.402 262.699 106.359C262.527 106.316 262.355 106.281 262.184 106.252C262.012 106.223 261.854 106.202 261.711 106.188C261.582 106.173 261.503 106.166 261.475 106.166C261.217 106.166 260.916 106.195 260.572 106.252C260.243 106.295 259.928 106.381 259.627 106.51C259.34 106.624 259.097 106.789 258.896 107.004C258.696 107.219 258.596 107.505 258.596 107.863ZM270.369 109.689V109.238C270.369 109.052 270.383 108.873 270.412 108.701C270.441 108.529 270.498 108.379 270.584 108.25C270.67 108.121 270.792 108.057 270.949 108.057V108.078H271.014L271.443 109.732C271.443 109.79 271.472 109.833 271.529 109.861C271.587 109.89 271.644 109.919 271.701 109.947C271.773 109.962 271.837 109.969 271.895 109.969C271.966 109.969 272.023 109.969 272.066 109.969C272.095 109.969 272.131 109.969 272.174 109.969C272.231 109.954 272.267 109.947 272.281 109.947C272.367 109.933 272.532 109.897 272.775 109.84C273.019 109.768 273.27 109.704 273.527 109.646C273.799 109.589 274.05 109.532 274.279 109.475C274.523 109.403 274.695 109.36 274.795 109.346C274.867 109.231 274.974 109.131 275.117 109.045C275.26 108.945 275.404 108.852 275.547 108.766C275.69 108.68 275.812 108.587 275.912 108.486C276.012 108.386 276.062 108.257 276.062 108.1C276.062 107.742 275.969 107.455 275.783 107.24C275.611 107.025 275.382 106.868 275.096 106.768C274.824 106.653 274.53 106.574 274.215 106.531C273.9 106.488 273.599 106.445 273.312 106.402C273.198 106.388 273.012 106.367 272.754 106.338C272.51 106.295 272.231 106.252 271.916 106.209C271.601 106.166 271.271 106.123 270.928 106.08C270.584 106.023 270.247 105.98 269.918 105.951C269.603 105.908 269.316 105.872 269.059 105.844C268.815 105.815 268.636 105.794 268.521 105.779C268.436 105.722 268.342 105.622 268.242 105.479C268.142 105.335 268.092 105.221 268.092 105.135C268.092 104.891 268.221 104.669 268.479 104.469C268.751 104.254 269.087 104.061 269.488 103.889C269.889 103.717 270.34 103.566 270.842 103.438C271.357 103.309 271.859 103.194 272.346 103.094C272.847 102.993 273.305 102.922 273.721 102.879C274.15 102.836 274.48 102.814 274.709 102.814C274.881 102.814 275.038 102.872 275.182 102.986C275.339 103.101 275.418 103.266 275.418 103.48C275.418 103.652 275.368 103.781 275.268 103.867C275.182 103.939 275.067 103.989 274.924 104.018C274.795 104.032 274.659 104.046 274.516 104.061C274.387 104.061 274.265 104.068 274.15 104.082C273.921 104.125 273.628 104.182 273.27 104.254C272.926 104.326 272.582 104.397 272.238 104.469C271.895 104.54 271.608 104.598 271.379 104.641L271.014 104.727V104.963C271.286 104.963 271.63 104.97 272.045 104.984C272.46 104.999 272.904 105.035 273.377 105.092C273.85 105.149 274.315 105.242 274.773 105.371C275.246 105.486 275.669 105.65 276.041 105.865C276.413 106.066 276.714 106.324 276.943 106.639C277.187 106.939 277.309 107.312 277.309 107.756C277.309 108.357 277.144 108.866 276.814 109.281C276.485 109.697 276.07 110.033 275.568 110.291C275.067 110.549 274.523 110.735 273.936 110.85C273.348 110.964 272.804 111.021 272.303 111.021C272.102 111.021 271.887 111.007 271.658 110.979C271.429 110.936 271.214 110.864 271.014 110.764C270.827 110.663 270.67 110.527 270.541 110.355C270.426 110.184 270.369 109.962 270.369 109.689ZM278.963 110.807C278.863 110.52 278.77 110.212 278.684 109.883C278.612 109.539 278.548 109.188 278.49 108.83C278.447 108.472 278.411 108.121 278.383 107.777C278.354 107.434 278.34 107.111 278.34 106.811C278.34 106.768 278.347 106.689 278.361 106.574C278.376 106.445 278.39 106.316 278.404 106.188C278.433 106.059 278.462 105.937 278.49 105.822C278.519 105.693 278.54 105.607 278.555 105.564C278.569 105.55 278.633 105.536 278.748 105.521C278.863 105.507 278.934 105.5 278.963 105.5C279.149 105.5 279.299 105.6 279.414 105.801C279.529 106.001 279.629 106.259 279.715 106.574C279.801 106.889 279.858 107.24 279.887 107.627C279.93 107.999 279.965 108.365 279.994 108.723C280.023 109.066 280.037 109.374 280.037 109.646C280.037 109.919 280.037 110.105 280.037 110.205C280.037 110.248 280.037 110.32 280.037 110.42C280.051 110.506 280.051 110.599 280.037 110.699C280.023 110.785 279.987 110.857 279.93 110.914C279.887 110.971 279.808 111 279.693 111H279.607C279.579 111 279.536 110.993 279.479 110.979C279.421 110.95 279.357 110.928 279.285 110.914C279.214 110.885 279.149 110.864 279.092 110.85C279.035 110.835 278.992 110.821 278.963 110.807ZM278.727 101.332C278.727 100.974 278.956 100.709 279.414 100.537C279.514 100.494 279.6 100.508 279.672 100.58C279.758 100.652 279.822 100.745 279.865 100.859C279.923 100.974 279.958 101.096 279.973 101.225C280.001 101.339 280.016 101.425 280.016 101.482C280.016 101.568 279.994 101.64 279.951 101.697C279.908 101.74 279.851 101.769 279.779 101.783C279.722 101.798 279.658 101.805 279.586 101.805H279.414C279.214 101.805 279.049 101.783 278.92 101.74C278.791 101.697 278.727 101.561 278.727 101.332ZM280.596 107.412C280.596 106.653 280.624 105.937 280.682 105.264C280.753 104.59 280.818 103.91 280.875 103.223C280.947 102.535 280.997 101.84 281.025 101.139C281.068 100.437 281.076 99.6777 281.047 98.8613C281.061 98.804 281.083 98.7396 281.111 98.668C281.14 98.5964 281.176 98.5319 281.219 98.4746C281.276 98.403 281.333 98.3457 281.391 98.3027C281.448 98.2454 281.512 98.2168 281.584 98.2168C281.756 98.2168 281.899 98.3099 282.014 98.4961C282.128 98.668 282.207 98.8971 282.25 99.1836C282.307 99.4557 282.343 99.7565 282.357 100.086C282.372 100.415 282.372 100.738 282.357 101.053C282.357 101.354 282.35 101.618 282.336 101.848C282.322 102.077 282.314 102.234 282.314 102.32C282.314 103.165 282.271 104.003 282.186 104.834C282.114 105.65 282.078 106.488 282.078 107.348V107.691C282.078 107.863 282.078 108.042 282.078 108.229C282.078 108.415 282.078 108.594 282.078 108.766V109.109C282.092 109.253 282.143 109.374 282.229 109.475C282.314 109.561 282.408 109.639 282.508 109.711C282.622 109.768 282.737 109.818 282.852 109.861C282.966 109.904 283.066 109.933 283.152 109.947C283.21 109.947 283.303 109.954 283.432 109.969C283.575 109.969 283.725 109.969 283.883 109.969C284.04 109.969 284.184 109.969 284.312 109.969C284.456 109.969 284.556 109.969 284.613 109.969C284.857 109.969 285.05 109.969 285.193 109.969C285.351 109.954 285.473 109.94 285.559 109.926C285.659 109.911 285.752 109.897 285.838 109.883C285.924 109.854 286.017 109.84 286.117 109.84C286.217 109.826 286.339 109.811 286.482 109.797C286.626 109.783 286.819 109.775 287.062 109.775C287.062 110.248 286.969 110.577 286.783 110.764C286.597 110.95 286.354 111.057 286.053 111.086C285.766 111.129 285.444 111.129 285.086 111.086C284.742 111.043 284.406 111.021 284.076 111.021H283.775C283.632 111.021 283.475 111.014 283.303 111C283.131 111 282.966 111 282.809 111H282.529C282.085 110.914 281.734 110.757 281.477 110.527C281.219 110.284 281.025 109.997 280.896 109.668C280.782 109.324 280.703 108.959 280.66 108.572C280.617 108.186 280.596 107.799 280.596 107.412ZM284.398 118.262C284.398 118.09 284.406 117.882 284.42 117.639C284.434 117.395 284.484 117.159 284.57 116.93C284.642 116.701 284.749 116.5 284.893 116.328C285.036 116.156 285.222 116.056 285.451 116.027C285.451 116.042 285.458 116.07 285.473 116.113C285.473 116.171 285.473 116.214 285.473 116.242C285.473 116.443 285.43 116.622 285.344 116.779C285.258 116.951 285.215 117.159 285.215 117.402C285.215 117.803 285.294 118.169 285.451 118.498C285.609 118.827 285.816 119.121 286.074 119.379C286.332 119.637 286.626 119.859 286.955 120.045C287.299 120.231 287.657 120.382 288.029 120.496C288.416 120.625 288.803 120.718 289.189 120.775C289.576 120.833 289.934 120.861 290.264 120.861C290.736 120.861 291.137 120.783 291.467 120.625C291.796 120.467 292.076 120.253 292.305 119.98C292.548 119.723 292.742 119.415 292.885 119.057C293.028 118.713 293.135 118.348 293.207 117.961C293.293 117.589 293.35 117.209 293.379 116.822C293.422 116.436 293.443 116.07 293.443 115.727C293.443 115.669 293.436 115.49 293.422 115.189C293.408 114.903 293.386 114.559 293.357 114.158C293.329 113.771 293.293 113.356 293.25 112.912C293.207 112.468 293.15 112.053 293.078 111.666C293.007 111.279 292.921 110.964 292.82 110.721C292.72 110.477 292.605 110.355 292.477 110.355C292.204 110.355 291.932 110.391 291.66 110.463C291.402 110.535 291.145 110.613 290.887 110.699C290.629 110.785 290.357 110.864 290.07 110.936C289.798 111.007 289.512 111.043 289.211 111.043C289.154 111.043 289.053 111.043 288.91 111.043C288.781 111.043 288.638 111.036 288.48 111.021C288.323 111.021 288.173 111.014 288.029 111C287.9 111 287.807 111 287.75 111C287.449 110.885 287.199 110.714 286.998 110.484C286.812 110.255 286.661 109.997 286.547 109.711C286.432 109.41 286.354 109.102 286.311 108.787C286.268 108.458 286.246 108.157 286.246 107.885C286.246 107.484 286.253 107.126 286.268 106.811C286.296 106.481 286.375 106.137 286.504 105.779C286.518 105.751 286.568 105.736 286.654 105.736C286.74 105.722 286.79 105.715 286.805 105.715C287.062 105.715 287.234 105.822 287.32 106.037C287.406 106.252 287.456 106.517 287.471 106.832C287.485 107.147 287.492 107.491 287.492 107.863C287.507 108.221 287.564 108.558 287.664 108.873C287.764 109.188 287.929 109.453 288.158 109.668C288.402 109.868 288.767 109.969 289.254 109.969C289.913 109.969 290.428 109.89 290.801 109.732C291.173 109.575 291.452 109.339 291.639 109.023C291.825 108.694 291.932 108.3 291.961 107.842C291.99 107.369 291.982 106.818 291.939 106.188C291.925 106.001 291.961 105.88 292.047 105.822C292.133 105.765 292.233 105.736 292.348 105.736C292.491 105.736 292.641 105.894 292.799 106.209C292.971 106.524 293.128 106.925 293.271 107.412C293.415 107.899 293.558 108.429 293.701 109.002C293.844 109.561 293.966 110.098 294.066 110.613C294.167 111.129 294.245 111.573 294.303 111.945C294.374 112.332 294.417 112.576 294.432 112.676C294.446 112.733 294.467 112.84 294.496 112.998C294.525 113.17 294.546 113.37 294.561 113.6C294.589 113.843 294.618 114.087 294.646 114.33C294.675 114.588 294.704 114.831 294.732 115.061C294.761 115.304 294.79 115.512 294.818 115.684C294.847 115.855 294.861 115.97 294.861 116.027V116.135C294.861 116.88 294.768 117.596 294.582 118.283C294.41 118.971 294.131 119.579 293.744 120.109C293.372 120.654 292.892 121.083 292.305 121.398C291.732 121.728 291.037 121.893 290.221 121.893C289.877 121.893 289.49 121.864 289.061 121.807C288.645 121.749 288.223 121.656 287.793 121.527C287.363 121.413 286.941 121.262 286.525 121.076C286.124 120.89 285.766 120.654 285.451 120.367C285.136 120.095 284.885 119.787 284.699 119.443C284.499 119.1 284.398 118.706 284.398 118.262ZM295.484 104.941C295.527 104.254 295.549 103.645 295.549 103.115C295.549 102.585 295.527 102.105 295.484 101.676C295.456 101.232 295.413 100.809 295.355 100.408C295.298 100.007 295.241 99.5918 295.184 99.1621C295.141 98.7181 295.098 98.2311 295.055 97.7012C295.026 97.1712 295.012 96.5625 295.012 95.875V95.7246C295.012 95.6387 295.012 95.5527 295.012 95.4668C295.026 95.3809 295.033 95.2949 295.033 95.209V95.0371C295.048 95.0085 295.083 94.9655 295.141 94.9082C295.198 94.8366 295.262 94.7721 295.334 94.7148C295.406 94.6432 295.47 94.5788 295.527 94.5215C295.585 94.4642 295.628 94.4284 295.656 94.4141C295.671 94.4141 295.728 94.4427 295.828 94.5L296.086 94.6289L296.301 94.8223C296.315 95.0658 296.337 95.3594 296.365 95.7031C296.394 96.0469 296.415 96.4193 296.43 96.8203C296.458 97.207 296.487 97.6081 296.516 98.0234C296.544 98.4245 296.573 98.8184 296.602 99.2051C296.63 99.5918 296.652 99.957 296.666 100.301C296.68 100.645 296.702 100.938 296.73 101.182C296.745 101.225 296.752 101.346 296.752 101.547C296.752 101.747 296.745 101.969 296.73 102.213C296.73 102.442 296.73 102.664 296.73 102.879V103.266C296.745 103.337 296.759 103.452 296.773 103.609C296.788 103.753 296.802 103.917 296.816 104.104C296.845 104.275 296.867 104.447 296.881 104.619L296.924 104.941C296.838 105.128 296.738 105.249 296.623 105.307C296.523 105.35 296.38 105.371 296.193 105.371C296.036 105.371 295.893 105.35 295.764 105.307C295.649 105.249 295.556 105.128 295.484 104.941ZM295.227 109.732C295.227 109.561 295.27 109.41 295.355 109.281C295.441 109.138 295.549 109.023 295.678 108.938C295.807 108.837 295.957 108.766 296.129 108.723C296.301 108.68 296.473 108.658 296.645 108.658C296.816 108.658 296.967 108.701 297.096 108.787C297.239 108.859 297.361 108.959 297.461 109.088C297.576 109.202 297.654 109.339 297.697 109.496C297.755 109.654 297.783 109.811 297.783 109.969C297.783 110.126 297.74 110.27 297.654 110.398C297.568 110.513 297.447 110.62 297.289 110.721C297.146 110.807 296.995 110.878 296.838 110.936C296.68 110.979 296.544 111 296.43 111C296.029 111 295.728 110.878 295.527 110.635C295.327 110.391 295.227 110.09 295.227 109.732Z" fill="black"/>
</svg>
