<svg width="444" height="180" viewBox="0 0 444 180" fill="none" xmlns="http://www.w3.org/2000/svg">
<path d="M144.912 85.5293L146.482 80.6602H147.59L145.316 87H144.49L142.193 80.6602H143.301L144.912 85.5293ZM152.453 87C152.391 86.875 152.34 86.6523 152.301 86.332C151.797 86.8555 151.195 87.1172 150.496 87.1172C149.871 87.1172 149.357 86.9414 148.955 86.5898C148.557 86.2344 148.357 85.7852 148.357 85.2422C148.357 84.582 148.607 84.0703 149.107 83.707C149.611 83.3398 150.318 83.1562 151.229 83.1562H152.283V82.6582C152.283 82.2793 152.17 81.9785 151.943 81.7559C151.717 81.5293 151.383 81.416 150.941 81.416C150.555 81.416 150.23 81.5137 149.969 81.709C149.707 81.9043 149.576 82.1406 149.576 82.418H148.486C148.486 82.1016 148.598 81.7969 148.82 81.5039C149.047 81.207 149.352 80.9727 149.734 80.8008C150.121 80.6289 150.545 80.543 151.006 80.543C151.736 80.543 152.309 80.7266 152.723 81.0938C153.137 81.457 153.352 81.959 153.367 82.5996V85.5176C153.367 86.0996 153.441 86.5625 153.59 86.9062V87H152.453ZM150.654 86.1738C150.994 86.1738 151.316 86.0859 151.621 85.9102C151.926 85.7344 152.146 85.5059 152.283 85.2246V83.9238H151.434C150.105 83.9238 149.441 84.3125 149.441 85.0898C149.441 85.4297 149.555 85.6953 149.781 85.8867C150.008 86.0781 150.299 86.1738 150.654 86.1738ZM158.131 81.6328C157.967 81.6055 157.789 81.5918 157.598 81.5918C156.887 81.5918 156.404 81.8945 156.15 82.5V87H155.066V80.6602H156.121L156.139 81.3926C156.494 80.8262 156.998 80.543 157.65 80.543C157.861 80.543 158.021 80.5703 158.131 80.625V81.6328ZM146.512 99.3184C146.512 99.0254 146.4 98.7988 146.178 98.6387C145.959 98.4746 145.574 98.334 145.023 98.2168C144.477 98.0996 144.041 97.959 143.717 97.7949C143.396 97.6309 143.158 97.4355 143.002 97.209C142.85 96.9824 142.773 96.7129 142.773 96.4004C142.773 95.8809 142.992 95.4414 143.43 95.082C143.871 94.7227 144.434 94.543 145.117 94.543C145.836 94.543 146.418 94.7285 146.863 95.0996C147.312 95.4707 147.537 95.9453 147.537 96.5234H146.447C146.447 96.2266 146.32 95.9707 146.066 95.7559C145.816 95.541 145.5 95.4336 145.117 95.4336C144.723 95.4336 144.414 95.5195 144.191 95.6914C143.969 95.8633 143.857 96.0879 143.857 96.3652C143.857 96.627 143.961 96.8242 144.168 96.957C144.375 97.0898 144.748 97.2168 145.287 97.3379C145.83 97.459 146.27 97.6035 146.605 97.7715C146.941 97.9395 147.189 98.1426 147.35 98.3809C147.514 98.6152 147.596 98.9023 147.596 99.2422C147.596 99.8086 147.369 100.264 146.916 100.607C146.463 100.947 145.875 101.117 145.152 101.117C144.645 101.117 144.195 101.027 143.805 100.848C143.414 100.668 143.107 100.418 142.885 100.098C142.666 99.7734 142.557 99.4238 142.557 99.0488H143.641C143.66 99.4121 143.805 99.7012 144.074 99.916C144.348 100.127 144.707 100.232 145.152 100.232C145.562 100.232 145.891 100.15 146.137 99.9863C146.387 99.8184 146.512 99.5957 146.512 99.3184ZM151.639 101.117C150.779 101.117 150.08 100.836 149.541 100.273C149.002 99.707 148.732 98.9512 148.732 98.0059V97.8066C148.732 97.1777 148.852 96.6172 149.09 96.125C149.332 95.6289 149.668 95.2422 150.098 94.9648C150.531 94.6836 151 94.543 151.504 94.543C152.328 94.543 152.969 94.8145 153.426 95.3574C153.883 95.9004 154.111 96.6777 154.111 97.6895V98.1406H149.816C149.832 98.7656 150.014 99.2715 150.361 99.6582C150.713 100.041 151.158 100.232 151.697 100.232C152.08 100.232 152.404 100.154 152.67 99.998C152.936 99.8418 153.168 99.6348 153.367 99.377L154.029 99.8926C153.498 100.709 152.701 101.117 151.639 101.117ZM151.504 95.4336C151.066 95.4336 150.699 95.5938 150.402 95.9141C150.105 96.2305 149.922 96.6758 149.852 97.25H153.027V97.168C152.996 96.6172 152.848 96.1914 152.582 95.8906C152.316 95.5859 151.957 95.4336 151.504 95.4336ZM156.396 94.6602L156.432 95.457C156.916 94.8477 157.549 94.543 158.33 94.543C159.67 94.543 160.346 95.2988 160.357 96.8105V101H159.273V96.8047C159.27 96.3477 159.164 96.0098 158.957 95.791C158.754 95.5723 158.436 95.4629 158.002 95.4629C157.65 95.4629 157.342 95.5566 157.076 95.7441C156.811 95.9316 156.604 96.1777 156.455 96.4824V101H155.371V94.6602H156.396ZM161.729 97.7773C161.729 96.8047 161.959 96.0234 162.42 95.4336C162.881 94.8398 163.484 94.543 164.23 94.543C164.973 94.543 165.561 94.7969 165.994 95.3047V92H167.078V101H166.082L166.029 100.32C165.596 100.852 164.992 101.117 164.219 101.117C163.484 101.117 162.885 100.816 162.42 100.215C161.959 99.6133 161.729 98.8281 161.729 97.8594V97.7773ZM162.812 97.9004C162.812 98.6191 162.961 99.1816 163.258 99.5879C163.555 99.9941 163.965 100.197 164.488 100.197C165.176 100.197 165.678 99.8887 165.994 99.2715V96.3594C165.67 95.7617 165.172 95.4629 164.5 95.4629C163.969 95.4629 163.555 95.668 163.258 96.0781C162.961 96.4883 162.812 97.0957 162.812 97.9004Z" fill="#A43CD6"/>
<path d="M165.174 81.6328C165.01 81.6055 164.832 81.5918 164.641 81.5918C163.93 81.5918 163.447 81.8945 163.193 82.5V87H162.109V80.6602H163.164L163.182 81.3926C163.537 80.8262 164.041 80.543 164.693 80.543C164.904 80.543 165.064 80.5703 165.174 80.625V81.6328ZM168.689 87.1172C167.83 87.1172 167.131 86.8359 166.592 86.2734C166.053 85.707 165.783 84.9512 165.783 84.0059V83.8066C165.783 83.1777 165.902 82.6172 166.141 82.125C166.383 81.6289 166.719 81.2422 167.148 80.9648C167.582 80.6836 168.051 80.543 168.555 80.543C169.379 80.543 170.02 80.8145 170.477 81.3574C170.934 81.9004 171.162 82.6777 171.162 83.6895V84.1406H166.867C166.883 84.7656 167.064 85.2715 167.412 85.6582C167.764 86.041 168.209 86.2324 168.748 86.2324C169.131 86.2324 169.455 86.1543 169.721 85.998C169.986 85.8418 170.219 85.6348 170.418 85.377L171.08 85.8926C170.549 86.709 169.752 87.1172 168.689 87.1172ZM168.555 81.4336C168.117 81.4336 167.75 81.5938 167.453 81.9141C167.156 82.2305 166.973 82.6758 166.902 83.25H170.078V83.168C170.047 82.6172 169.898 82.1914 169.633 81.8906C169.367 81.5859 169.008 81.4336 168.555 81.4336ZM176.113 85.3184C176.113 85.0254 176.002 84.7988 175.779 84.6387C175.561 84.4746 175.176 84.334 174.625 84.2168C174.078 84.0996 173.643 83.959 173.318 83.7949C172.998 83.6309 172.76 83.4355 172.604 83.209C172.451 82.9824 172.375 82.7129 172.375 82.4004C172.375 81.8809 172.594 81.4414 173.031 81.082C173.473 80.7227 174.035 80.543 174.719 80.543C175.438 80.543 176.02 80.7285 176.465 81.0996C176.914 81.4707 177.139 81.9453 177.139 82.5234H176.049C176.049 82.2266 175.922 81.9707 175.668 81.7559C175.418 81.541 175.102 81.4336 174.719 81.4336C174.324 81.4336 174.016 81.5195 173.793 81.6914C173.57 81.8633 173.459 82.0879 173.459 82.3652C173.459 82.627 173.562 82.8242 173.77 82.957C173.977 83.0898 174.35 83.2168 174.889 83.3379C175.432 83.459 175.871 83.6035 176.207 83.7715C176.543 83.9395 176.791 84.1426 176.951 84.3809C177.115 84.6152 177.197 84.9023 177.197 85.2422C177.197 85.8086 176.971 86.2637 176.518 86.6074C176.064 86.9473 175.477 87.1172 174.754 87.1172C174.246 87.1172 173.797 87.0273 173.406 86.8477C173.016 86.668 172.709 86.418 172.486 86.0977C172.268 85.7734 172.158 85.4238 172.158 85.0488H173.242C173.262 85.4121 173.406 85.7012 173.676 85.916C173.949 86.127 174.309 86.2324 174.754 86.2324C175.164 86.2324 175.492 86.1504 175.738 85.9863C175.988 85.8184 176.113 85.5957 176.113 85.3184ZM183.965 83.9004C183.965 84.8652 183.744 85.6426 183.303 86.2324C182.861 86.8223 182.264 87.1172 181.51 87.1172C180.74 87.1172 180.135 86.873 179.693 86.3848V89.4375H178.609V80.6602H179.6L179.652 81.3633C180.094 80.8164 180.707 80.543 181.492 80.543C182.254 80.543 182.855 80.8301 183.297 81.4043C183.742 81.9785 183.965 82.7773 183.965 83.8008V83.9004ZM182.881 83.7773C182.881 83.0625 182.729 82.498 182.424 82.084C182.119 81.6699 181.701 81.4629 181.17 81.4629C180.514 81.4629 180.021 81.7539 179.693 82.3359V85.3652C180.018 85.9434 180.514 86.2324 181.182 86.2324C181.701 86.2324 182.113 86.0273 182.418 85.6172C182.727 85.2031 182.881 84.5898 182.881 83.7773ZM185.061 83.7715C185.061 83.1504 185.182 82.5918 185.424 82.0957C185.67 81.5996 186.01 81.2168 186.443 80.9473C186.881 80.6777 187.379 80.543 187.938 80.543C188.801 80.543 189.498 80.8418 190.029 81.4395C190.564 82.0371 190.832 82.832 190.832 83.8242V83.9004C190.832 84.5176 190.713 85.0723 190.475 85.5645C190.24 86.0527 189.902 86.4336 189.461 86.707C189.023 86.9805 188.52 87.1172 187.949 87.1172C187.09 87.1172 186.393 86.8184 185.857 86.2207C185.326 85.623 185.061 84.832 185.061 83.8477V83.7715ZM186.15 83.9004C186.15 84.6035 186.312 85.168 186.637 85.5938C186.965 86.0195 187.402 86.2324 187.949 86.2324C188.5 86.2324 188.938 86.0176 189.262 85.5879C189.586 85.1543 189.748 84.5488 189.748 83.7715C189.748 83.0762 189.582 82.5137 189.25 82.084C188.922 81.6504 188.484 81.4336 187.938 81.4336C187.402 81.4336 186.971 81.6465 186.643 82.0723C186.314 82.498 186.15 83.1074 186.15 83.9004ZM193.217 80.6602L193.252 81.457C193.736 80.8477 194.369 80.543 195.15 80.543C196.49 80.543 197.166 81.2988 197.178 82.8105V87H196.094V82.8047C196.09 82.3477 195.984 82.0098 195.777 81.791C195.574 81.5723 195.256 81.4629 194.822 81.4629C194.471 81.4629 194.162 81.5566 193.896 81.7441C193.631 81.9316 193.424 82.1777 193.275 82.4824V87H192.191V80.6602H193.217ZM202.504 85.3184C202.504 85.0254 202.393 84.7988 202.17 84.6387C201.951 84.4746 201.566 84.334 201.016 84.2168C200.469 84.0996 200.033 83.959 199.709 83.7949C199.389 83.6309 199.15 83.4355 198.994 83.209C198.842 82.9824 198.766 82.7129 198.766 82.4004C198.766 81.8809 198.984 81.4414 199.422 81.082C199.863 80.7227 200.426 80.543 201.109 80.543C201.828 80.543 202.41 80.7285 202.855 81.0996C203.305 81.4707 203.529 81.9453 203.529 82.5234H202.439C202.439 82.2266 202.312 81.9707 202.059 81.7559C201.809 81.541 201.492 81.4336 201.109 81.4336C200.715 81.4336 200.406 81.5195 200.184 81.6914C199.961 81.8633 199.85 82.0879 199.85 82.3652C199.85 82.627 199.953 82.8242 200.16 82.957C200.367 83.0898 200.74 83.2168 201.279 83.3379C201.822 83.459 202.262 83.6035 202.598 83.7715C202.934 83.9395 203.182 84.1426 203.342 84.3809C203.506 84.6152 203.588 84.9023 203.588 85.2422C203.588 85.8086 203.361 86.2637 202.908 86.6074C202.455 86.9473 201.867 87.1172 201.145 87.1172C200.637 87.1172 200.188 87.0273 199.797 86.8477C199.406 86.668 199.1 86.418 198.877 86.0977C198.658 85.7734 198.549 85.4238 198.549 85.0488H199.633C199.652 85.4121 199.797 85.7012 200.066 85.916C200.34 86.127 200.699 86.2324 201.145 86.2324C201.555 86.2324 201.883 86.1504 202.129 85.9863C202.379 85.8184 202.504 85.5957 202.504 85.3184ZM207.631 87.1172C206.771 87.1172 206.072 86.8359 205.533 86.2734C204.994 85.707 204.725 84.9512 204.725 84.0059V83.8066C204.725 83.1777 204.844 82.6172 205.082 82.125C205.324 81.6289 205.66 81.2422 206.09 80.9648C206.523 80.6836 206.992 80.543 207.496 80.543C208.32 80.543 208.961 80.8145 209.418 81.3574C209.875 81.9004 210.104 82.6777 210.104 83.6895V84.1406H205.809C205.824 84.7656 206.006 85.2715 206.354 85.6582C206.705 86.041 207.15 86.2324 207.689 86.2324C208.072 86.2324 208.396 86.1543 208.662 85.998C208.928 85.8418 209.16 85.6348 209.359 85.377L210.021 85.8926C209.49 86.709 208.693 87.1172 207.631 87.1172ZM207.496 81.4336C207.059 81.4336 206.691 81.5938 206.395 81.9141C206.098 82.2305 205.914 82.6758 205.844 83.25H209.02V83.168C208.988 82.6172 208.84 82.1914 208.574 81.8906C208.309 81.5859 207.949 81.4336 207.496 81.4336ZM215.148 77.8887L215.77 78.3105C215.406 78.8066 215.219 79.3418 215.207 79.916V80.7129H214.129V80.0332C214.129 79.6348 214.223 79.2402 214.41 78.8496C214.602 78.459 214.848 78.1387 215.148 77.8887ZM216.994 77.8887L217.615 78.3105C217.252 78.8066 217.064 79.3418 217.053 79.916V80.7129H215.975V80.0332C215.975 79.6348 216.068 79.2402 216.256 78.8496C216.447 78.459 216.693 78.1387 216.994 77.8887ZM218.752 87V78.4688H221.16C221.902 78.4688 222.559 78.6328 223.129 78.9609C223.699 79.2891 224.139 79.7559 224.447 80.3613C224.76 80.9668 224.918 81.6621 224.922 82.4473V82.9922C224.922 83.7969 224.766 84.502 224.453 85.1074C224.145 85.7129 223.701 86.1777 223.123 86.502C222.549 86.8262 221.879 86.9922 221.113 87H218.752ZM219.877 79.3945V86.0801H221.061C221.928 86.0801 222.602 85.8105 223.082 85.2715C223.566 84.7324 223.809 83.9648 223.809 82.9688V82.4707C223.809 81.502 223.58 80.75 223.123 80.2148C222.67 79.6758 222.025 79.4023 221.189 79.3945H219.877ZM229.141 83.1973C228.176 82.9199 227.473 82.5801 227.031 82.1777C226.594 81.7715 226.375 81.2715 226.375 80.6777C226.375 80.0059 226.643 79.4512 227.178 79.0137C227.717 78.5723 228.416 78.3516 229.275 78.3516C229.861 78.3516 230.383 78.4648 230.84 78.6914C231.301 78.918 231.656 79.2305 231.906 79.6289C232.16 80.0273 232.287 80.4629 232.287 80.9355H231.156C231.156 80.4199 230.992 80.0156 230.664 79.7227C230.336 79.4258 229.873 79.2773 229.275 79.2773C228.721 79.2773 228.287 79.4004 227.975 79.6465C227.666 79.8887 227.512 80.2266 227.512 80.6602C227.512 81.0078 227.658 81.3027 227.951 81.5449C228.248 81.7832 228.75 82.002 229.457 82.2012C230.168 82.4004 230.723 82.6211 231.121 82.8633C231.523 83.1016 231.82 83.3809 232.012 83.7012C232.207 84.0215 232.305 84.3984 232.305 84.832C232.305 85.5234 232.035 86.0781 231.496 86.4961C230.957 86.9102 230.236 87.1172 229.334 87.1172C228.748 87.1172 228.201 87.0059 227.693 86.7832C227.186 86.5566 226.793 86.248 226.516 85.8574C226.242 85.4668 226.105 85.0234 226.105 84.5273H227.236C227.236 85.043 227.426 85.4512 227.805 85.752C228.188 86.0488 228.697 86.1973 229.334 86.1973C229.928 86.1973 230.383 86.0762 230.699 85.834C231.016 85.5918 231.174 85.2617 231.174 84.8438C231.174 84.4258 231.027 84.1035 230.734 83.877C230.441 83.6465 229.91 83.4199 229.141 83.1973ZM236.125 86.2324C236.512 86.2324 236.85 86.1152 237.139 85.8809C237.428 85.6465 237.588 85.3535 237.619 85.002H238.645C238.625 85.3652 238.5 85.7109 238.27 86.0391C238.039 86.3672 237.73 86.6289 237.344 86.8242C236.961 87.0195 236.555 87.1172 236.125 87.1172C235.262 87.1172 234.574 86.8301 234.062 86.2559C233.555 85.6777 233.301 84.8887 233.301 83.8887V83.707C233.301 83.0898 233.414 82.541 233.641 82.0605C233.867 81.5801 234.191 81.207 234.613 80.9414C235.039 80.6758 235.541 80.543 236.119 80.543C236.83 80.543 237.42 80.7559 237.889 81.1816C238.361 81.6074 238.613 82.1602 238.645 82.8398H237.619C237.588 82.4297 237.432 82.0938 237.15 81.832C236.873 81.5664 236.529 81.4336 236.119 81.4336C235.568 81.4336 235.141 81.6328 234.836 82.0312C234.535 82.4258 234.385 82.998 234.385 83.748V83.9531C234.385 84.6836 234.535 85.2461 234.836 85.6406C235.137 86.0352 235.566 86.2324 236.125 86.2324ZM242.928 81.6328C242.764 81.6055 242.586 81.5918 242.395 81.5918C241.684 81.5918 241.201 81.8945 240.947 82.5V87H239.863V80.6602H240.918L240.936 81.3926C241.291 80.8262 241.795 80.543 242.447 80.543C242.658 80.543 242.818 80.5703 242.928 80.625V81.6328ZM245.107 87H244.023V80.6602H245.107V87ZM243.936 78.9785C243.936 78.8027 243.988 78.6543 244.094 78.5332C244.203 78.4121 244.363 78.3516 244.574 78.3516C244.785 78.3516 244.945 78.4121 245.055 78.5332C245.164 78.6543 245.219 78.8027 245.219 78.9785C245.219 79.1543 245.164 79.3008 245.055 79.418C244.945 79.5352 244.785 79.5938 244.574 79.5938C244.363 79.5938 244.203 79.5352 244.094 79.418C243.988 79.3008 243.936 79.1543 243.936 78.9785ZM252.203 83.9004C252.203 84.8652 251.982 85.6426 251.541 86.2324C251.1 86.8223 250.502 87.1172 249.748 87.1172C248.979 87.1172 248.373 86.873 247.932 86.3848V89.4375H246.848V80.6602H247.838L247.891 81.3633C248.332 80.8164 248.945 80.543 249.73 80.543C250.492 80.543 251.094 80.8301 251.535 81.4043C251.98 81.9785 252.203 82.7773 252.203 83.8008V83.9004ZM251.119 83.7773C251.119 83.0625 250.967 82.498 250.662 82.084C250.357 81.6699 249.939 81.4629 249.408 81.4629C248.752 81.4629 248.26 81.7539 247.932 82.3359V85.3652C248.256 85.9434 248.752 86.2324 249.42 86.2324C249.939 86.2324 250.352 86.0273 250.656 85.6172C250.965 85.2031 251.119 84.5898 251.119 83.7773ZM255.057 79.125V80.6602H256.24V81.498H255.057V85.4297C255.057 85.6836 255.109 85.875 255.215 86.0039C255.32 86.1289 255.5 86.1914 255.754 86.1914C255.879 86.1914 256.051 86.168 256.27 86.1211V87C255.984 87.0781 255.707 87.1172 255.438 87.1172C254.953 87.1172 254.588 86.9707 254.342 86.6777C254.096 86.3848 253.973 85.9688 253.973 85.4297V81.498H252.818V80.6602H253.973V79.125H255.057ZM261.865 87H260.74V78.4688H261.865V87ZM267.449 85.3184C267.449 85.0254 267.338 84.7988 267.115 84.6387C266.896 84.4746 266.512 84.334 265.961 84.2168C265.414 84.0996 264.979 83.959 264.654 83.7949C264.334 83.6309 264.096 83.4355 263.939 83.209C263.787 82.9824 263.711 82.7129 263.711 82.4004C263.711 81.8809 263.93 81.4414 264.367 81.082C264.809 80.7227 265.371 80.543 266.055 80.543C266.773 80.543 267.355 80.7285 267.801 81.0996C268.25 81.4707 268.475 81.9453 268.475 82.5234H267.385C267.385 82.2266 267.258 81.9707 267.004 81.7559C266.754 81.541 266.438 81.4336 266.055 81.4336C265.66 81.4336 265.352 81.5195 265.129 81.6914C264.906 81.8633 264.795 82.0879 264.795 82.3652C264.795 82.627 264.898 82.8242 265.105 82.957C265.312 83.0898 265.686 83.2168 266.225 83.3379C266.768 83.459 267.207 83.6035 267.543 83.7715C267.879 83.9395 268.127 84.1426 268.287 84.3809C268.451 84.6152 268.533 84.9023 268.533 85.2422C268.533 85.8086 268.307 86.2637 267.854 86.6074C267.4 86.9473 266.812 87.1172 266.09 87.1172C265.582 87.1172 265.133 87.0273 264.742 86.8477C264.352 86.668 264.045 86.418 263.822 86.0977C263.604 85.7734 263.494 85.4238 263.494 85.0488H264.578C264.598 85.4121 264.742 85.7012 265.012 85.916C265.285 86.127 265.645 86.2324 266.09 86.2324C266.5 86.2324 266.828 86.1504 267.074 85.9863C267.324 85.8184 267.449 85.5957 267.449 85.3184ZM277.803 84.7734H274.229L273.426 87H272.266L275.523 78.4688H276.508L279.771 87H278.617L277.803 84.7734ZM274.568 83.8477H277.469L276.016 79.8574L274.568 83.8477ZM286.164 85.5059L287.383 80.6602H288.467L286.621 87H285.742L284.201 82.1953L282.701 87H281.822L279.982 80.6602H281.061L282.309 85.4062L283.785 80.6602H284.658L286.164 85.5059ZM292.205 87.1172C291.346 87.1172 290.646 86.8359 290.107 86.2734C289.568 85.707 289.299 84.9512 289.299 84.0059V83.8066C289.299 83.1777 289.418 82.6172 289.656 82.125C289.898 81.6289 290.234 81.2422 290.664 80.9648C291.098 80.6836 291.566 80.543 292.07 80.543C292.895 80.543 293.535 80.8145 293.992 81.3574C294.449 81.9004 294.678 82.6777 294.678 83.6895V84.1406H290.383C290.398 84.7656 290.58 85.2715 290.928 85.6582C291.279 86.041 291.725 86.2324 292.264 86.2324C292.646 86.2324 292.971 86.1543 293.236 85.998C293.502 85.8418 293.734 85.6348 293.934 85.377L294.596 85.8926C294.064 86.709 293.268 87.1172 292.205 87.1172ZM292.07 81.4336C291.633 81.4336 291.266 81.5938 290.969 81.9141C290.672 82.2305 290.488 82.6758 290.418 83.25H293.594V83.168C293.562 82.6172 293.414 82.1914 293.148 81.8906C292.883 81.5859 292.523 81.4336 292.07 81.4336ZM299.629 85.3184C299.629 85.0254 299.518 84.7988 299.295 84.6387C299.076 84.4746 298.691 84.334 298.141 84.2168C297.594 84.0996 297.158 83.959 296.834 83.7949C296.514 83.6309 296.275 83.4355 296.119 83.209C295.967 82.9824 295.891 82.7129 295.891 82.4004C295.891 81.8809 296.109 81.4414 296.547 81.082C296.988 80.7227 297.551 80.543 298.234 80.543C298.953 80.543 299.535 80.7285 299.98 81.0996C300.43 81.4707 300.654 81.9453 300.654 82.5234H299.564C299.564 82.2266 299.438 81.9707 299.184 81.7559C298.934 81.541 298.617 81.4336 298.234 81.4336C297.84 81.4336 297.531 81.5195 297.309 81.6914C297.086 81.8633 296.975 82.0879 296.975 82.3652C296.975 82.627 297.078 82.8242 297.285 82.957C297.492 83.0898 297.865 83.2168 298.404 83.3379C298.947 83.459 299.387 83.6035 299.723 83.7715C300.059 83.9395 300.307 84.1426 300.467 84.3809C300.631 84.6152 300.713 84.9023 300.713 85.2422C300.713 85.8086 300.486 86.2637 300.033 86.6074C299.58 86.9473 298.992 87.1172 298.27 87.1172C297.762 87.1172 297.312 87.0273 296.922 86.8477C296.531 86.668 296.225 86.418 296.002 86.0977C295.783 85.7734 295.674 85.4238 295.674 85.0488H296.758C296.777 85.4121 296.922 85.7012 297.191 85.916C297.465 86.127 297.824 86.2324 298.27 86.2324C298.68 86.2324 299.008 86.1504 299.254 85.9863C299.504 85.8184 299.629 85.5957 299.629 85.3184ZM301.838 83.7715C301.838 83.1504 301.959 82.5918 302.201 82.0957C302.447 81.5996 302.787 81.2168 303.221 80.9473C303.658 80.6777 304.156 80.543 304.715 80.543C305.578 80.543 306.275 80.8418 306.807 81.4395C307.342 82.0371 307.609 82.832 307.609 83.8242V83.9004C307.609 84.5176 307.49 85.0723 307.252 85.5645C307.018 86.0527 306.68 86.4336 306.238 86.707C305.801 86.9805 305.297 87.1172 304.727 87.1172C303.867 87.1172 303.17 86.8184 302.635 86.2207C302.104 85.623 301.838 84.832 301.838 83.8477V83.7715ZM302.928 83.9004C302.928 84.6035 303.09 85.168 303.414 85.5938C303.742 86.0195 304.18 86.2324 304.727 86.2324C305.277 86.2324 305.715 86.0176 306.039 85.5879C306.363 85.1543 306.525 84.5488 306.525 83.7715C306.525 83.0762 306.359 82.5137 306.027 82.084C305.699 81.6504 305.262 81.4336 304.715 81.4336C304.18 81.4336 303.748 81.6465 303.42 82.0723C303.092 82.498 302.928 83.1074 302.928 83.9004ZM309.988 80.6602L310.018 81.3633C310.482 80.8164 311.109 80.543 311.898 80.543C312.785 80.543 313.389 80.8828 313.709 81.5625C313.92 81.2578 314.193 81.0117 314.529 80.8242C314.869 80.6367 315.27 80.543 315.73 80.543C317.121 80.543 317.828 81.2793 317.852 82.752V87H316.768V82.8164C316.768 82.3633 316.664 82.0254 316.457 81.8027C316.25 81.5762 315.902 81.4629 315.414 81.4629C315.012 81.4629 314.678 81.584 314.412 81.8262C314.146 82.0645 313.992 82.3867 313.949 82.793V87H312.859V82.8457C312.859 81.9238 312.408 81.4629 311.506 81.4629C310.795 81.4629 310.309 81.7656 310.047 82.3711V87H308.963V80.6602H309.988ZM322.123 87.1172C321.264 87.1172 320.564 86.8359 320.025 86.2734C319.486 85.707 319.217 84.9512 319.217 84.0059V83.8066C319.217 83.1777 319.336 82.6172 319.574 82.125C319.816 81.6289 320.152 81.2422 320.582 80.9648C321.016 80.6836 321.484 80.543 321.988 80.543C322.812 80.543 323.453 80.8145 323.91 81.3574C324.367 81.9004 324.596 82.6777 324.596 83.6895V84.1406H320.301C320.316 84.7656 320.498 85.2715 320.846 85.6582C321.197 86.041 321.643 86.2324 322.182 86.2324C322.564 86.2324 322.889 86.1543 323.154 85.998C323.42 85.8418 323.652 85.6348 323.852 85.377L324.514 85.8926C323.982 86.709 323.186 87.1172 322.123 87.1172ZM321.988 81.4336C321.551 81.4336 321.184 81.5938 320.887 81.9141C320.59 82.2305 320.406 82.6758 320.336 83.25H323.512V83.168C323.48 82.6172 323.332 82.1914 323.066 81.8906C322.801 81.5859 322.441 81.4336 321.988 81.4336ZM327.068 84.5918H326.09L326.014 78.4688H327.15L327.068 84.5918ZM325.973 86.4551C325.973 86.2793 326.025 86.1328 326.131 86.0156C326.24 85.8945 326.4 85.834 326.611 85.834C326.822 85.834 326.982 85.8945 327.092 86.0156C327.201 86.1328 327.256 86.2793 327.256 86.4551C327.256 86.6309 327.201 86.7773 327.092 86.8945C326.982 87.0078 326.822 87.0645 326.611 87.0645C326.4 87.0645 326.24 87.0078 326.131 86.8945C326.025 86.7773 325.973 86.6309 325.973 86.4551ZM330.162 84.5918H329.184L329.107 78.4688H330.244L330.162 84.5918ZM329.066 86.4551C329.066 86.2793 329.119 86.1328 329.225 86.0156C329.334 85.8945 329.494 85.834 329.705 85.834C329.916 85.834 330.076 85.8945 330.186 86.0156C330.295 86.1328 330.35 86.2793 330.35 86.4551C330.35 86.6309 330.295 86.7773 330.186 86.8945C330.076 87.0078 329.916 87.0645 329.705 87.0645C329.494 87.0645 329.334 87.0078 329.225 86.8945C329.119 86.7773 329.066 86.6309 329.066 86.4551ZM332.189 80.8711L331.574 80.4492C331.938 79.9414 332.125 79.4062 332.137 78.8438V78H333.209V78.7617C333.205 79.1523 333.107 79.543 332.916 79.9336C332.729 80.3203 332.486 80.6328 332.189 80.8711ZM333.988 80.8711L333.373 80.4492C333.736 79.9414 333.924 79.4062 333.936 78.8438V78H335.008V78.7617C335.004 79.1523 334.906 79.543 334.715 79.9336C334.527 80.3203 334.285 80.6328 333.988 80.8711ZM181.545 95.6328C181.381 95.6055 181.203 95.5918 181.012 95.5918C180.301 95.5918 179.818 95.8945 179.564 96.5V101H178.48V94.6602H179.535L179.553 95.3926C179.908 94.8262 180.412 94.543 181.064 94.543C181.275 94.543 181.436 94.5703 181.545 94.625V95.6328ZM185.061 101.117C184.201 101.117 183.502 100.836 182.963 100.273C182.424 99.707 182.154 98.9512 182.154 98.0059V97.8066C182.154 97.1777 182.273 96.6172 182.512 96.125C182.754 95.6289 183.09 95.2422 183.52 94.9648C183.953 94.6836 184.422 94.543 184.926 94.543C185.75 94.543 186.391 94.8145 186.848 95.3574C187.305 95.9004 187.533 96.6777 187.533 97.6895V98.1406H183.238C183.254 98.7656 183.436 99.2715 183.783 99.6582C184.135 100.041 184.58 100.232 185.119 100.232C185.502 100.232 185.826 100.154 186.092 99.998C186.357 99.8418 186.59 99.6348 186.789 99.377L187.451 99.8926C186.92 100.709 186.123 101.117 185.061 101.117ZM184.926 95.4336C184.488 95.4336 184.121 95.5938 183.824 95.9141C183.527 96.2305 183.344 96.6758 183.273 97.25H186.449V97.168C186.418 96.6172 186.27 96.1914 186.004 95.8906C185.738 95.5859 185.379 95.4336 184.926 95.4336ZM192.484 99.3184C192.484 99.0254 192.373 98.7988 192.15 98.6387C191.932 98.4746 191.547 98.334 190.996 98.2168C190.449 98.0996 190.014 97.959 189.689 97.7949C189.369 97.6309 189.131 97.4355 188.975 97.209C188.822 96.9824 188.746 96.7129 188.746 96.4004C188.746 95.8809 188.965 95.4414 189.402 95.082C189.844 94.7227 190.406 94.543 191.09 94.543C191.809 94.543 192.391 94.7285 192.836 95.0996C193.285 95.4707 193.51 95.9453 193.51 96.5234H192.42C192.42 96.2266 192.293 95.9707 192.039 95.7559C191.789 95.541 191.473 95.4336 191.09 95.4336C190.695 95.4336 190.387 95.5195 190.164 95.6914C189.941 95.8633 189.83 96.0879 189.83 96.3652C189.83 96.627 189.934 96.8242 190.141 96.957C190.348 97.0898 190.721 97.2168 191.26 97.3379C191.803 97.459 192.242 97.6035 192.578 97.7715C192.914 97.9395 193.162 98.1426 193.322 98.3809C193.486 98.6152 193.568 98.9023 193.568 99.2422C193.568 99.8086 193.342 100.264 192.889 100.607C192.436 100.947 191.848 101.117 191.125 101.117C190.617 101.117 190.168 101.027 189.777 100.848C189.387 100.668 189.08 100.418 188.857 100.098C188.639 99.7734 188.529 99.4238 188.529 99.0488H189.613C189.633 99.4121 189.777 99.7012 190.047 99.916C190.32 100.127 190.68 100.232 191.125 100.232C191.535 100.232 191.863 100.15 192.109 99.9863C192.359 99.8184 192.484 99.5957 192.484 99.3184ZM200.336 97.9004C200.336 98.8652 200.115 99.6426 199.674 100.232C199.232 100.822 198.635 101.117 197.881 101.117C197.111 101.117 196.506 100.873 196.064 100.385V103.438H194.98V94.6602H195.971L196.023 95.3633C196.465 94.8164 197.078 94.543 197.863 94.543C198.625 94.543 199.227 94.8301 199.668 95.4043C200.113 95.9785 200.336 96.7773 200.336 97.8008V97.9004ZM199.252 97.7773C199.252 97.0625 199.1 96.498 198.795 96.084C198.49 95.6699 198.072 95.4629 197.541 95.4629C196.885 95.4629 196.393 95.7539 196.064 96.3359V99.3652C196.389 99.9434 196.885 100.232 197.553 100.232C198.072 100.232 198.484 100.027 198.789 99.6172C199.098 99.2031 199.252 98.5898 199.252 97.7773ZM201.432 97.7715C201.432 97.1504 201.553 96.5918 201.795 96.0957C202.041 95.5996 202.381 95.2168 202.814 94.9473C203.252 94.6777 203.75 94.543 204.309 94.543C205.172 94.543 205.869 94.8418 206.4 95.4395C206.936 96.0371 207.203 96.832 207.203 97.8242V97.9004C207.203 98.5176 207.084 99.0723 206.846 99.5645C206.611 100.053 206.273 100.434 205.832 100.707C205.395 100.98 204.891 101.117 204.32 101.117C203.461 101.117 202.764 100.818 202.229 100.221C201.697 99.623 201.432 98.832 201.432 97.8477V97.7715ZM202.521 97.9004C202.521 98.6035 202.684 99.168 203.008 99.5938C203.336 100.02 203.773 100.232 204.32 100.232C204.871 100.232 205.309 100.018 205.633 99.5879C205.957 99.1543 206.119 98.5488 206.119 97.7715C206.119 97.0762 205.953 96.5137 205.621 96.084C205.293 95.6504 204.855 95.4336 204.309 95.4336C203.773 95.4336 203.342 95.6465 203.014 96.0723C202.686 96.498 202.521 97.1074 202.521 97.9004ZM209.588 94.6602L209.623 95.457C210.107 94.8477 210.74 94.543 211.521 94.543C212.861 94.543 213.537 95.2988 213.549 96.8105V101H212.465V96.8047C212.461 96.3477 212.355 96.0098 212.148 95.791C211.945 95.5723 211.627 95.4629 211.193 95.4629C210.842 95.4629 210.533 95.5566 210.268 95.7441C210.002 95.9316 209.795 96.1777 209.646 96.4824V101H208.562V94.6602H209.588ZM218.875 99.3184C218.875 99.0254 218.764 98.7988 218.541 98.6387C218.322 98.4746 217.938 98.334 217.387 98.2168C216.84 98.0996 216.404 97.959 216.08 97.7949C215.76 97.6309 215.521 97.4355 215.365 97.209C215.213 96.9824 215.137 96.7129 215.137 96.4004C215.137 95.8809 215.355 95.4414 215.793 95.082C216.234 94.7227 216.797 94.543 217.48 94.543C218.199 94.543 218.781 94.7285 219.227 95.0996C219.676 95.4707 219.9 95.9453 219.9 96.5234H218.811C218.811 96.2266 218.684 95.9707 218.43 95.7559C218.18 95.541 217.863 95.4336 217.48 95.4336C217.086 95.4336 216.777 95.5195 216.555 95.6914C216.332 95.8633 216.221 96.0879 216.221 96.3652C216.221 96.627 216.324 96.8242 216.531 96.957C216.738 97.0898 217.111 97.2168 217.65 97.3379C218.193 97.459 218.633 97.6035 218.969 97.7715C219.305 97.9395 219.553 98.1426 219.713 98.3809C219.877 98.6152 219.959 98.9023 219.959 99.2422C219.959 99.8086 219.732 100.264 219.279 100.607C218.826 100.947 218.238 101.117 217.516 101.117C217.008 101.117 216.559 101.027 216.168 100.848C215.777 100.668 215.471 100.418 215.248 100.098C215.029 99.7734 214.92 99.4238 214.92 99.0488H216.004C216.023 99.4121 216.168 99.7012 216.438 99.916C216.711 100.127 217.07 100.232 217.516 100.232C217.926 100.232 218.254 100.15 218.5 99.9863C218.75 99.8184 218.875 99.5957 218.875 99.3184ZM224.002 101.117C223.143 101.117 222.443 100.836 221.904 100.273C221.365 99.707 221.096 98.9512 221.096 98.0059V97.8066C221.096 97.1777 221.215 96.6172 221.453 96.125C221.695 95.6289 222.031 95.2422 222.461 94.9648C222.895 94.6836 223.363 94.543 223.867 94.543C224.691 94.543 225.332 94.8145 225.789 95.3574C226.246 95.9004 226.475 96.6777 226.475 97.6895V98.1406H222.18C222.195 98.7656 222.377 99.2715 222.725 99.6582C223.076 100.041 223.521 100.232 224.061 100.232C224.443 100.232 224.768 100.154 225.033 99.998C225.299 99.8418 225.531 99.6348 225.73 99.377L226.393 99.8926C225.861 100.709 225.064 101.117 224.002 101.117ZM223.867 95.4336C223.43 95.4336 223.062 95.5938 222.766 95.9141C222.469 96.2305 222.285 96.6758 222.215 97.25H225.391V97.168C225.359 96.6172 225.211 96.1914 224.945 95.8906C224.68 95.5859 224.32 95.4336 223.867 95.4336Z" fill="black"/>
<path d="M175.938 98.8027C175.938 98.4434 175.811 98.1406 175.557 97.8945C175.307 97.6484 174.883 97.4258 174.285 97.2266C173.453 96.9727 172.846 96.6426 172.463 96.2363C172.084 95.8262 171.895 95.3066 171.895 94.6777C171.895 94.0371 172.08 93.5117 172.451 93.1016C172.826 92.6914 173.34 92.4473 173.992 92.3691V91.0859H174.865V92.375C175.521 92.4648 176.031 92.7402 176.395 93.2012C176.762 93.6621 176.945 94.293 176.945 95.0938H175.867C175.867 94.543 175.736 94.1055 175.475 93.7812C175.213 93.457 174.859 93.2949 174.414 93.2949C173.949 93.2949 173.594 93.416 173.348 93.6582C173.102 93.8965 172.979 94.2305 172.979 94.6602C172.979 95.0586 173.107 95.377 173.365 95.6152C173.627 95.8496 174.055 96.0645 174.648 96.2598C175.246 96.4512 175.711 96.6641 176.043 96.8984C176.379 97.1289 176.625 97.3984 176.781 97.707C176.941 98.0156 177.021 98.377 177.021 98.791C177.021 99.4512 176.822 99.9824 176.424 100.385C176.029 100.787 175.475 101.025 174.76 101.1V102.219H173.893V101.1C173.166 101.033 172.596 100.775 172.182 100.326C171.771 99.873 171.566 99.2598 171.566 98.4863H172.65C172.65 99.0293 172.793 99.4473 173.078 99.7402C173.363 100.033 173.768 100.18 174.291 100.18C174.803 100.18 175.205 100.057 175.498 99.8105C175.791 99.5645 175.938 99.2285 175.938 98.8027Z" fill="#0784F8"/>
<path d="M149.939 72.0607C150.525 72.6464 151.475 72.6464 152.061 72.0607L161.607 62.5147C162.192 61.9289 162.192 60.9792 161.607 60.3934C161.021 59.8076 160.071 59.8076 159.485 60.3934L151 68.8787L142.515 60.3934C141.929 59.8076 140.979 59.8076 140.393 60.3934C139.808 60.9792 139.808 61.9289 140.393 62.5147L149.939 72.0607ZM149.5 19V71H152.5V19H149.5Z" fill="black"/>
<path d="M109.266 8.29297C109.16 9.19531 108.826 9.89258 108.264 10.3848C107.705 10.873 106.961 11.1172 106.031 11.1172C105.023 11.1172 104.215 10.7559 103.605 10.0332C103 9.31055 102.697 8.34375 102.697 7.13281V6.3125C102.697 5.51953 102.838 4.82227 103.119 4.2207C103.404 3.61914 103.807 3.1582 104.326 2.83789C104.846 2.51367 105.447 2.35156 106.131 2.35156C107.037 2.35156 107.764 2.60547 108.311 3.11328C108.857 3.61719 109.176 4.31641 109.266 5.21094H108.135C108.037 4.53125 107.824 4.03906 107.496 3.73438C107.172 3.42969 106.717 3.27734 106.131 3.27734C105.412 3.27734 104.848 3.54297 104.438 4.07422C104.031 4.60547 103.828 5.36133 103.828 6.3418V7.16797C103.828 8.09375 104.021 8.83008 104.408 9.37695C104.795 9.92383 105.336 10.1973 106.031 10.1973C106.656 10.1973 107.135 10.0566 107.467 9.77539C107.803 9.49023 108.025 8.99609 108.135 8.29297H109.266ZM113.701 5.63281C113.537 5.60547 113.359 5.5918 113.168 5.5918C112.457 5.5918 111.975 5.89453 111.721 6.5V11H110.637V4.66016H111.691L111.709 5.39258C112.064 4.82617 112.568 4.54297 113.221 4.54297C113.432 4.54297 113.592 4.57031 113.701 4.625V5.63281ZM117.217 11.1172C116.357 11.1172 115.658 10.8359 115.119 10.2734C114.58 9.70703 114.311 8.95117 114.311 8.00586V7.80664C114.311 7.17773 114.43 6.61719 114.668 6.125C114.91 5.62891 115.246 5.24219 115.676 4.96484C116.109 4.68359 116.578 4.54297 117.082 4.54297C117.906 4.54297 118.547 4.81445 119.004 5.35742C119.461 5.90039 119.689 6.67773 119.689 7.68945V8.14062H115.395C115.41 8.76562 115.592 9.27148 115.939 9.6582C116.291 10.041 116.736 10.2324 117.275 10.2324C117.658 10.2324 117.982 10.1543 118.248 9.99805C118.514 9.8418 118.746 9.63477 118.945 9.37695L119.607 9.89258C119.076 10.709 118.279 11.1172 117.217 11.1172ZM117.082 5.43359C116.645 5.43359 116.277 5.59375 115.98 5.91406C115.684 6.23047 115.5 6.67578 115.43 7.25H118.605V7.16797C118.574 6.61719 118.426 6.19141 118.16 5.89062C117.895 5.58594 117.535 5.43359 117.082 5.43359ZM124.863 11C124.801 10.875 124.75 10.6523 124.711 10.332C124.207 10.8555 123.605 11.1172 122.906 11.1172C122.281 11.1172 121.768 10.9414 121.365 10.5898C120.967 10.2344 120.768 9.78516 120.768 9.24219C120.768 8.58203 121.018 8.07031 121.518 7.70703C122.021 7.33984 122.729 7.15625 123.639 7.15625H124.693V6.6582C124.693 6.2793 124.58 5.97852 124.354 5.75586C124.127 5.5293 123.793 5.41602 123.352 5.41602C122.965 5.41602 122.641 5.51367 122.379 5.70898C122.117 5.9043 121.986 6.14062 121.986 6.41797H120.896C120.896 6.10156 121.008 5.79688 121.23 5.50391C121.457 5.20703 121.762 4.97266 122.145 4.80078C122.531 4.62891 122.955 4.54297 123.416 4.54297C124.146 4.54297 124.719 4.72656 125.133 5.09375C125.547 5.45703 125.762 5.95898 125.777 6.59961V9.51758C125.777 10.0996 125.852 10.5625 126 10.9062V11H124.863ZM123.064 10.1738C123.404 10.1738 123.727 10.0859 124.031 9.91016C124.336 9.73438 124.557 9.50586 124.693 9.22461V7.92383H123.844C122.516 7.92383 121.852 8.3125 121.852 9.08984C121.852 9.42969 121.965 9.69531 122.191 9.88672C122.418 10.0781 122.709 10.1738 123.064 10.1738ZM128.947 3.125V4.66016H130.131V5.49805H128.947V9.42969C128.947 9.68359 129 9.875 129.105 10.0039C129.211 10.1289 129.391 10.1914 129.645 10.1914C129.77 10.1914 129.941 10.168 130.16 10.1211V11C129.875 11.0781 129.598 11.1172 129.328 11.1172C128.844 11.1172 128.479 10.9707 128.232 10.6777C127.986 10.3848 127.863 9.96875 127.863 9.42969V5.49805H126.709V4.66016H127.863V3.125H128.947ZM134.033 11.1172C133.174 11.1172 132.475 10.8359 131.936 10.2734C131.396 9.70703 131.127 8.95117 131.127 8.00586V7.80664C131.127 7.17773 131.246 6.61719 131.484 6.125C131.727 5.62891 132.062 5.24219 132.492 4.96484C132.926 4.68359 133.395 4.54297 133.898 4.54297C134.723 4.54297 135.363 4.81445 135.82 5.35742C136.277 5.90039 136.506 6.67773 136.506 7.68945V8.14062H132.211C132.227 8.76562 132.408 9.27148 132.756 9.6582C133.107 10.041 133.553 10.2324 134.092 10.2324C134.475 10.2324 134.799 10.1543 135.064 9.99805C135.33 9.8418 135.562 9.63477 135.762 9.37695L136.424 9.89258C135.893 10.709 135.096 11.1172 134.033 11.1172ZM133.898 5.43359C133.461 5.43359 133.094 5.59375 132.797 5.91406C132.5 6.23047 132.316 6.67578 132.246 7.25H135.422V7.16797C135.391 6.61719 135.242 6.19141 134.977 5.89062C134.711 5.58594 134.352 5.43359 133.898 5.43359ZM141.457 9.31836C141.457 9.02539 141.346 8.79883 141.123 8.63867C140.904 8.47461 140.52 8.33398 139.969 8.2168C139.422 8.09961 138.986 7.95898 138.662 7.79492C138.342 7.63086 138.104 7.43555 137.947 7.20898C137.795 6.98242 137.719 6.71289 137.719 6.40039C137.719 5.88086 137.938 5.44141 138.375 5.08203C138.816 4.72266 139.379 4.54297 140.062 4.54297C140.781 4.54297 141.363 4.72852 141.809 5.09961C142.258 5.4707 142.482 5.94531 142.482 6.52344H141.393C141.393 6.22656 141.266 5.9707 141.012 5.75586C140.762 5.54102 140.445 5.43359 140.062 5.43359C139.668 5.43359 139.359 5.51953 139.137 5.69141C138.914 5.86328 138.803 6.08789 138.803 6.36523C138.803 6.62695 138.906 6.82422 139.113 6.95703C139.32 7.08984 139.693 7.2168 140.232 7.33789C140.775 7.45898 141.215 7.60352 141.551 7.77148C141.887 7.93945 142.135 8.14258 142.295 8.38086C142.459 8.61523 142.541 8.90234 142.541 9.24219C142.541 9.80859 142.314 10.2637 141.861 10.6074C141.408 10.9473 140.82 11.1172 140.098 11.1172C139.59 11.1172 139.141 11.0273 138.75 10.8477C138.359 10.668 138.053 10.418 137.83 10.0977C137.611 9.77344 137.502 9.42383 137.502 9.04883H138.586C138.605 9.41211 138.75 9.70117 139.02 9.91602C139.293 10.127 139.652 10.2324 140.098 10.2324C140.508 10.2324 140.836 10.1504 141.082 9.98633C141.332 9.81836 141.457 9.5957 141.457 9.31836ZM150.844 11C150.781 10.875 150.73 10.6523 150.691 10.332C150.188 10.8555 149.586 11.1172 148.887 11.1172C148.262 11.1172 147.748 10.9414 147.346 10.5898C146.947 10.2344 146.748 9.78516 146.748 9.24219C146.748 8.58203 146.998 8.07031 147.498 7.70703C148.002 7.33984 148.709 7.15625 149.619 7.15625H150.674V6.6582C150.674 6.2793 150.561 5.97852 150.334 5.75586C150.107 5.5293 149.773 5.41602 149.332 5.41602C148.945 5.41602 148.621 5.51367 148.359 5.70898C148.098 5.9043 147.967 6.14062 147.967 6.41797H146.877C146.877 6.10156 146.988 5.79688 147.211 5.50391C147.438 5.20703 147.742 4.97266 148.125 4.80078C148.512 4.62891 148.936 4.54297 149.396 4.54297C150.127 4.54297 150.699 4.72656 151.113 5.09375C151.527 5.45703 151.742 5.95898 151.758 6.59961V9.51758C151.758 10.0996 151.832 10.5625 151.98 10.9062V11H150.844ZM149.045 10.1738C149.385 10.1738 149.707 10.0859 150.012 9.91016C150.316 9.73438 150.537 9.50586 150.674 9.22461V7.92383H149.824C148.496 7.92383 147.832 8.3125 147.832 9.08984C147.832 9.42969 147.945 9.69531 148.172 9.88672C148.398 10.0781 148.689 10.1738 149.045 10.1738ZM159.428 9.50586L161.865 2.46875H163.096L159.932 11H158.936L155.777 2.46875H157.002L159.428 9.50586ZM167.719 11C167.656 10.875 167.605 10.6523 167.566 10.332C167.062 10.8555 166.461 11.1172 165.762 11.1172C165.137 11.1172 164.623 10.9414 164.221 10.5898C163.822 10.2344 163.623 9.78516 163.623 9.24219C163.623 8.58203 163.873 8.07031 164.373 7.70703C164.877 7.33984 165.584 7.15625 166.494 7.15625H167.549V6.6582C167.549 6.2793 167.436 5.97852 167.209 5.75586C166.982 5.5293 166.648 5.41602 166.207 5.41602C165.82 5.41602 165.496 5.51367 165.234 5.70898C164.973 5.9043 164.842 6.14062 164.842 6.41797H163.752C163.752 6.10156 163.863 5.79688 164.086 5.50391C164.312 5.20703 164.617 4.97266 165 4.80078C165.387 4.62891 165.811 4.54297 166.271 4.54297C167.002 4.54297 167.574 4.72656 167.988 5.09375C168.402 5.45703 168.617 5.95898 168.633 6.59961V9.51758C168.633 10.0996 168.707 10.5625 168.855 10.9062V11H167.719ZM165.92 10.1738C166.26 10.1738 166.582 10.0859 166.887 9.91016C167.191 9.73438 167.412 9.50586 167.549 9.22461V7.92383H166.699C165.371 7.92383 164.707 8.3125 164.707 9.08984C164.707 9.42969 164.82 9.69531 165.047 9.88672C165.273 10.0781 165.564 10.1738 165.92 10.1738ZM173.396 5.63281C173.232 5.60547 173.055 5.5918 172.863 5.5918C172.152 5.5918 171.67 5.89453 171.416 6.5V11H170.332V4.66016H171.387L171.404 5.39258C171.76 4.82617 172.264 4.54297 172.916 4.54297C173.127 4.54297 173.287 4.57031 173.396 4.625V5.63281ZM175.576 11H174.492V4.66016H175.576V11ZM174.404 2.97852C174.404 2.80273 174.457 2.6543 174.562 2.5332C174.672 2.41211 174.832 2.35156 175.043 2.35156C175.254 2.35156 175.414 2.41211 175.523 2.5332C175.633 2.6543 175.688 2.80273 175.688 2.97852C175.688 3.1543 175.633 3.30078 175.523 3.41797C175.414 3.53516 175.254 3.59375 175.043 3.59375C174.832 3.59375 174.672 3.53516 174.562 3.41797C174.457 3.30078 174.404 3.1543 174.404 2.97852ZM181.23 11C181.168 10.875 181.117 10.6523 181.078 10.332C180.574 10.8555 179.973 11.1172 179.273 11.1172C178.648 11.1172 178.135 10.9414 177.732 10.5898C177.334 10.2344 177.135 9.78516 177.135 9.24219C177.135 8.58203 177.385 8.07031 177.885 7.70703C178.389 7.33984 179.096 7.15625 180.006 7.15625H181.061V6.6582C181.061 6.2793 180.947 5.97852 180.721 5.75586C180.494 5.5293 180.16 5.41602 179.719 5.41602C179.332 5.41602 179.008 5.51367 178.746 5.70898C178.484 5.9043 178.354 6.14062 178.354 6.41797H177.264C177.264 6.10156 177.375 5.79688 177.598 5.50391C177.824 5.20703 178.129 4.97266 178.512 4.80078C178.898 4.62891 179.322 4.54297 179.783 4.54297C180.514 4.54297 181.086 4.72656 181.5 5.09375C181.914 5.45703 182.129 5.95898 182.145 6.59961V9.51758C182.145 10.0996 182.219 10.5625 182.367 10.9062V11H181.23ZM179.432 10.1738C179.771 10.1738 180.094 10.0859 180.398 9.91016C180.703 9.73438 180.924 9.50586 181.061 9.22461V7.92383H180.211C178.883 7.92383 178.219 8.3125 178.219 9.08984C178.219 9.42969 178.332 9.69531 178.559 9.88672C178.785 10.0781 179.076 10.1738 179.432 10.1738ZM189.211 7.90039C189.211 8.86914 188.988 9.64844 188.543 10.2383C188.098 10.8242 187.5 11.1172 186.75 11.1172C185.949 11.1172 185.33 10.834 184.893 10.2676L184.84 11H183.844V2H184.928V5.35742C185.365 4.81445 185.969 4.54297 186.738 4.54297C187.508 4.54297 188.111 4.83398 188.549 5.41602C188.99 5.99805 189.211 6.79492 189.211 7.80664V7.90039ZM188.127 7.77734C188.127 7.03906 187.984 6.46875 187.699 6.06641C187.414 5.66406 187.004 5.46289 186.469 5.46289C185.754 5.46289 185.24 5.79492 184.928 6.45898V9.20117C185.26 9.86523 185.777 10.1973 186.48 10.1973C187 10.1973 187.404 9.99609 187.693 9.59375C187.982 9.19141 188.127 8.58594 188.127 7.77734ZM191.76 11H190.676V2H191.76V11ZM196.131 11.1172C195.271 11.1172 194.572 10.8359 194.033 10.2734C193.494 9.70703 193.225 8.95117 193.225 8.00586V7.80664C193.225 7.17773 193.344 6.61719 193.582 6.125C193.824 5.62891 194.16 5.24219 194.59 4.96484C195.023 4.68359 195.492 4.54297 195.996 4.54297C196.82 4.54297 197.461 4.81445 197.918 5.35742C198.375 5.90039 198.604 6.67773 198.604 7.68945V8.14062H194.309C194.324 8.76562 194.506 9.27148 194.854 9.6582C195.205 10.041 195.65 10.2324 196.189 10.2324C196.572 10.2324 196.896 10.1543 197.162 9.99805C197.428 9.8418 197.66 9.63477 197.859 9.37695L198.521 9.89258C197.99 10.709 197.193 11.1172 196.131 11.1172ZM195.996 5.43359C195.559 5.43359 195.191 5.59375 194.895 5.91406C194.598 6.23047 194.414 6.67578 194.344 7.25H197.52V7.16797C197.488 6.61719 197.34 6.19141 197.074 5.89062C196.809 5.58594 196.449 5.43359 195.996 5.43359Z" fill="black"/>
<path d="M151.925 114.148C152.007 113.323 151.405 112.589 150.58 112.507L137.146 111.177C136.322 111.095 135.587 111.697 135.505 112.522C135.424 113.346 136.026 114.08 136.85 114.162L148.792 115.345L147.609 127.286C147.527 128.111 148.129 128.845 148.954 128.927C149.778 129.009 150.513 128.407 150.594 127.582L151.925 114.148ZM102.951 154.863L151.383 115.16L149.481 112.84L101.049 152.543L102.951 154.863Z" fill="black"/>
<path d="M3.50391 173.197C2.53906 172.92 1.83594 172.58 1.39453 172.178C0.957031 171.771 0.738281 171.271 0.738281 170.678C0.738281 170.006 1.00586 169.451 1.54102 169.014C2.08008 168.572 2.7793 168.352 3.63867 168.352C4.22461 168.352 4.74609 168.465 5.20312 168.691C5.66406 168.918 6.01953 169.23 6.26953 169.629C6.52344 170.027 6.65039 170.463 6.65039 170.936H5.51953C5.51953 170.42 5.35547 170.016 5.02734 169.723C4.69922 169.426 4.23633 169.277 3.63867 169.277C3.08398 169.277 2.65039 169.4 2.33789 169.646C2.0293 169.889 1.875 170.227 1.875 170.66C1.875 171.008 2.02148 171.303 2.31445 171.545C2.61133 171.783 3.11328 172.002 3.82031 172.201C4.53125 172.4 5.08594 172.621 5.48438 172.863C5.88672 173.102 6.18359 173.381 6.375 173.701C6.57031 174.021 6.66797 174.398 6.66797 174.832C6.66797 175.523 6.39844 176.078 5.85938 176.496C5.32031 176.91 4.59961 177.117 3.69727 177.117C3.11133 177.117 2.56445 177.006 2.05664 176.783C1.54883 176.557 1.15625 176.248 0.878906 175.857C0.605469 175.467 0.46875 175.023 0.46875 174.527H1.59961C1.59961 175.043 1.78906 175.451 2.16797 175.752C2.55078 176.049 3.06055 176.197 3.69727 176.197C4.29102 176.197 4.74609 176.076 5.0625 175.834C5.37891 175.592 5.53711 175.262 5.53711 174.844C5.53711 174.426 5.39062 174.104 5.09766 173.877C4.80469 173.646 4.27344 173.42 3.50391 173.197ZM10.5762 177.117C9.7168 177.117 9.01758 176.836 8.47852 176.273C7.93945 175.707 7.66992 174.951 7.66992 174.006V173.807C7.66992 173.178 7.78906 172.617 8.02734 172.125C8.26953 171.629 8.60547 171.242 9.03516 170.965C9.46875 170.684 9.9375 170.543 10.4414 170.543C11.2656 170.543 11.9062 170.814 12.3633 171.357C12.8203 171.9 13.0488 172.678 13.0488 173.689V174.141H8.75391C8.76953 174.766 8.95117 175.271 9.29883 175.658C9.65039 176.041 10.0957 176.232 10.6348 176.232C11.0176 176.232 11.3418 176.154 11.6074 175.998C11.873 175.842 12.1055 175.635 12.3047 175.377L12.9668 175.893C12.4355 176.709 11.6387 177.117 10.5762 177.117ZM10.4414 171.434C10.0039 171.434 9.63672 171.594 9.33984 171.914C9.04297 172.23 8.85938 172.676 8.78906 173.25H11.9648V173.168C11.9336 172.617 11.7852 172.191 11.5195 171.891C11.2539 171.586 10.8945 171.434 10.4414 171.434ZM15.334 170.66L15.3691 171.457C15.8535 170.848 16.4863 170.543 17.2676 170.543C18.6074 170.543 19.2832 171.299 19.2949 172.811V177H18.2109V172.805C18.207 172.348 18.1016 172.01 17.8945 171.791C17.6914 171.572 17.373 171.463 16.9395 171.463C16.5879 171.463 16.2793 171.557 16.0137 171.744C15.748 171.932 15.541 172.178 15.3926 172.482V177H14.3086V170.66H15.334ZM20.666 173.777C20.666 172.805 20.8965 172.023 21.3574 171.434C21.8184 170.84 22.4219 170.543 23.168 170.543C23.9102 170.543 24.498 170.797 24.9316 171.305V168H26.0156V177H25.0195L24.9668 176.32C24.5332 176.852 23.9297 177.117 23.1562 177.117C22.4219 177.117 21.8223 176.816 21.3574 176.215C20.8965 175.613 20.666 174.828 20.666 173.859V173.777ZM21.75 173.9C21.75 174.619 21.8984 175.182 22.1953 175.588C22.4922 175.994 22.9023 176.197 23.4258 176.197C24.1133 176.197 24.6152 175.889 24.9316 175.271V172.359C24.6074 171.762 24.1094 171.463 23.4375 171.463C22.9062 171.463 22.4922 171.668 22.1953 172.078C21.8984 172.488 21.75 173.096 21.75 173.9ZM31.3945 175.318C31.3945 175.025 31.2832 174.799 31.0605 174.639C30.8418 174.475 30.457 174.334 29.9062 174.217C29.3594 174.1 28.9238 173.959 28.5996 173.795C28.2793 173.631 28.041 173.436 27.8848 173.209C27.7324 172.982 27.6562 172.713 27.6562 172.4C27.6562 171.881 27.875 171.441 28.3125 171.082C28.7539 170.723 29.3164 170.543 30 170.543C30.7188 170.543 31.3008 170.729 31.7461 171.1C32.1953 171.471 32.4199 171.945 32.4199 172.523H31.3301C31.3301 172.227 31.2031 171.971 30.9492 171.756C30.6992 171.541 30.3828 171.434 30 171.434C29.6055 171.434 29.2969 171.52 29.0742 171.691C28.8516 171.863 28.7402 172.088 28.7402 172.365C28.7402 172.627 28.8438 172.824 29.0508 172.957C29.2578 173.09 29.6309 173.217 30.1699 173.338C30.7129 173.459 31.1523 173.604 31.4883 173.771C31.8242 173.939 32.0723 174.143 32.2324 174.381C32.3965 174.615 32.4785 174.902 32.4785 175.242C32.4785 175.809 32.252 176.264 31.7988 176.607C31.3457 176.947 30.7578 177.117 30.0352 177.117C29.5273 177.117 29.0781 177.027 28.6875 176.848C28.2969 176.668 27.9902 176.418 27.7676 176.098C27.5488 175.773 27.4395 175.424 27.4395 175.049H28.5234C28.543 175.412 28.6875 175.701 28.957 175.916C29.2305 176.127 29.5898 176.232 30.0352 176.232C30.4453 176.232 30.7734 176.15 31.0195 175.986C31.2695 175.818 31.3945 175.596 31.3945 175.318ZM38.3379 169.125V170.66H39.5215V171.498H38.3379V175.43C38.3379 175.684 38.3906 175.875 38.4961 176.004C38.6016 176.129 38.7812 176.191 39.0352 176.191C39.1602 176.191 39.332 176.168 39.5508 176.121V177C39.2656 177.078 38.9883 177.117 38.7188 177.117C38.2344 177.117 37.8691 176.971 37.623 176.678C37.377 176.385 37.2539 175.969 37.2539 175.43V171.498H36.0996V170.66H37.2539V169.125H38.3379ZM41.877 171.428C42.3574 170.838 42.9824 170.543 43.752 170.543C45.0918 170.543 45.7676 171.299 45.7793 172.811V177H44.6953V172.805C44.6914 172.348 44.5859 172.01 44.3789 171.791C44.1758 171.572 43.8574 171.463 43.4238 171.463C43.0723 171.463 42.7637 171.557 42.498 171.744C42.2324 171.932 42.0254 172.178 41.877 172.482V177H40.793V168H41.877V171.428ZM50.0332 177.117C49.1738 177.117 48.4746 176.836 47.9355 176.273C47.3965 175.707 47.127 174.951 47.127 174.006V173.807C47.127 173.178 47.2461 172.617 47.4844 172.125C47.7266 171.629 48.0625 171.242 48.4922 170.965C48.9258 170.684 49.3945 170.543 49.8984 170.543C50.7227 170.543 51.3633 170.814 51.8203 171.357C52.2773 171.9 52.5059 172.678 52.5059 173.689V174.141H48.2109C48.2266 174.766 48.4082 175.271 48.7559 175.658C49.1074 176.041 49.5527 176.232 50.0918 176.232C50.4746 176.232 50.7988 176.154 51.0645 175.998C51.3301 175.842 51.5625 175.635 51.7617 175.377L52.4238 175.893C51.8926 176.709 51.0957 177.117 50.0332 177.117ZM49.8984 171.434C49.4609 171.434 49.0938 171.594 48.7969 171.914C48.5 172.23 48.3164 172.676 48.2461 173.25H51.4219V173.168C51.3906 172.617 51.2422 172.191 50.9766 171.891C50.7109 171.586 50.3516 171.434 49.8984 171.434ZM59.2852 176.232C59.6719 176.232 60.0098 176.115 60.2988 175.881C60.5879 175.646 60.748 175.354 60.7793 175.002H61.8047C61.7852 175.365 61.6602 175.711 61.4297 176.039C61.1992 176.367 60.8906 176.629 60.5039 176.824C60.1211 177.02 59.7148 177.117 59.2852 177.117C58.4219 177.117 57.7344 176.83 57.2227 176.256C56.7148 175.678 56.4609 174.889 56.4609 173.889V173.707C56.4609 173.09 56.5742 172.541 56.8008 172.061C57.0273 171.58 57.3516 171.207 57.7734 170.941C58.1992 170.676 58.7012 170.543 59.2793 170.543C59.9902 170.543 60.5801 170.756 61.0488 171.182C61.5215 171.607 61.7734 172.16 61.8047 172.84H60.7793C60.748 172.43 60.5918 172.094 60.3105 171.832C60.0332 171.566 59.6895 171.434 59.2793 171.434C58.7285 171.434 58.3008 171.633 57.9961 172.031C57.6953 172.426 57.5449 172.998 57.5449 173.748V173.953C57.5449 174.684 57.6953 175.246 57.9961 175.641C58.2969 176.035 58.7266 176.232 59.2852 176.232ZM62.7363 173.771C62.7363 173.15 62.8574 172.592 63.0996 172.096C63.3457 171.6 63.6855 171.217 64.1191 170.947C64.5566 170.678 65.0547 170.543 65.6133 170.543C66.4766 170.543 67.1738 170.842 67.7051 171.439C68.2402 172.037 68.5078 172.832 68.5078 173.824V173.9C68.5078 174.518 68.3887 175.072 68.1504 175.564C67.916 176.053 67.5781 176.434 67.1367 176.707C66.6992 176.98 66.1953 177.117 65.625 177.117C64.7656 177.117 64.0684 176.818 63.5332 176.221C63.002 175.623 62.7363 174.832 62.7363 173.848V173.771ZM63.8262 173.9C63.8262 174.604 63.9883 175.168 64.3125 175.594C64.6406 176.02 65.0781 176.232 65.625 176.232C66.1758 176.232 66.6133 176.018 66.9375 175.588C67.2617 175.154 67.4238 174.549 67.4238 173.771C67.4238 173.076 67.2578 172.514 66.9258 172.084C66.5977 171.65 66.1602 171.434 65.6133 171.434C65.0781 171.434 64.6465 171.646 64.3184 172.072C63.9902 172.498 63.8262 173.107 63.8262 173.9ZM70.8926 170.66L70.9277 171.457C71.4121 170.848 72.0449 170.543 72.8262 170.543C74.166 170.543 74.8418 171.299 74.8535 172.811V177H73.7695V172.805C73.7656 172.348 73.6602 172.01 73.4531 171.791C73.25 171.572 72.9316 171.463 72.498 171.463C72.1465 171.463 71.8379 171.557 71.5723 171.744C71.3066 171.932 71.0996 172.178 70.9512 172.482V177H69.8672V170.66H70.8926ZM77.959 169.125V170.66H79.1426V171.498H77.959V175.43C77.959 175.684 78.0117 175.875 78.1172 176.004C78.2227 176.129 78.4023 176.191 78.6562 176.191C78.7812 176.191 78.9531 176.168 79.1719 176.121V177C78.8867 177.078 78.6094 177.117 78.3398 177.117C77.8555 177.117 77.4902 176.971 77.2441 176.678C76.998 176.385 76.875 175.969 76.875 175.43V171.498H75.7207V170.66H76.875V169.125H77.959ZM83.0449 177.117C82.1855 177.117 81.4863 176.836 80.9473 176.273C80.4082 175.707 80.1387 174.951 80.1387 174.006V173.807C80.1387 173.178 80.2578 172.617 80.4961 172.125C80.7383 171.629 81.0742 171.242 81.5039 170.965C81.9375 170.684 82.4062 170.543 82.9102 170.543C83.7344 170.543 84.375 170.814 84.832 171.357C85.2891 171.9 85.5176 172.678 85.5176 173.689V174.141H81.2227C81.2383 174.766 81.4199 175.271 81.7676 175.658C82.1191 176.041 82.5645 176.232 83.1035 176.232C83.4863 176.232 83.8105 176.154 84.0762 175.998C84.3418 175.842 84.5742 175.635 84.7734 175.377L85.4355 175.893C84.9043 176.709 84.1074 177.117 83.0449 177.117ZM82.9102 171.434C82.4727 171.434 82.1055 171.594 81.8086 171.914C81.5117 172.23 81.3281 172.676 81.2578 173.25H84.4336V173.168C84.4023 172.617 84.2539 172.191 83.9883 171.891C83.7227 171.586 83.3633 171.434 82.9102 171.434ZM87.8027 170.66L87.8379 171.457C88.3223 170.848 88.9551 170.543 89.7363 170.543C91.0762 170.543 91.752 171.299 91.7637 172.811V177H90.6797V172.805C90.6758 172.348 90.5703 172.01 90.3633 171.791C90.1602 171.572 89.8418 171.463 89.4082 171.463C89.0566 171.463 88.748 171.557 88.4824 171.744C88.2168 171.932 88.0098 172.178 87.8613 172.482V177H86.7773V170.66H87.8027ZM94.8691 169.125V170.66H96.0527V171.498H94.8691V175.43C94.8691 175.684 94.9219 175.875 95.0273 176.004C95.1328 176.129 95.3125 176.191 95.5664 176.191C95.6914 176.191 95.8633 176.168 96.082 176.121V177C95.7969 177.078 95.5195 177.117 95.25 177.117C94.7656 177.117 94.4004 176.971 94.1543 176.678C93.9082 176.385 93.7852 175.969 93.7852 175.43V171.498H92.6309V170.66H93.7852V169.125H94.8691ZM101.771 169.125V170.66H102.955V171.498H101.771V175.43C101.771 175.684 101.824 175.875 101.93 176.004C102.035 176.129 102.215 176.191 102.469 176.191C102.594 176.191 102.766 176.168 102.984 176.121V177C102.699 177.078 102.422 177.117 102.152 177.117C101.668 177.117 101.303 176.971 101.057 176.678C100.811 176.385 100.688 175.969 100.688 175.43V171.498H99.5332V170.66H100.688V169.125H101.771ZM103.822 173.771C103.822 173.15 103.943 172.592 104.186 172.096C104.432 171.6 104.771 171.217 105.205 170.947C105.643 170.678 106.141 170.543 106.699 170.543C107.562 170.543 108.26 170.842 108.791 171.439C109.326 172.037 109.594 172.832 109.594 173.824V173.9C109.594 174.518 109.475 175.072 109.236 175.564C109.002 176.053 108.664 176.434 108.223 176.707C107.785 176.98 107.281 177.117 106.711 177.117C105.852 177.117 105.154 176.818 104.619 176.221C104.088 175.623 103.822 174.832 103.822 173.848V173.771ZM104.912 173.9C104.912 174.604 105.074 175.168 105.398 175.594C105.727 176.02 106.164 176.232 106.711 176.232C107.262 176.232 107.699 176.018 108.023 175.588C108.348 175.154 108.51 174.549 108.51 173.771C108.51 173.076 108.344 172.514 108.012 172.084C107.684 171.65 107.246 171.434 106.699 171.434C106.164 171.434 105.732 171.646 105.404 172.072C105.076 172.498 104.912 173.107 104.912 173.9ZM115.4 169.125V170.66H116.584V171.498H115.4V175.43C115.4 175.684 115.453 175.875 115.559 176.004C115.664 176.129 115.844 176.191 116.098 176.191C116.223 176.191 116.395 176.168 116.613 176.121V177C116.328 177.078 116.051 177.117 115.781 177.117C115.297 177.117 114.932 176.971 114.686 176.678C114.439 176.385 114.316 175.969 114.316 175.43V171.498H113.162V170.66H114.316V169.125H115.4ZM118.939 171.428C119.42 170.838 120.045 170.543 120.814 170.543C122.154 170.543 122.83 171.299 122.842 172.811V177H121.758V172.805C121.754 172.348 121.648 172.01 121.441 171.791C121.238 171.572 120.92 171.463 120.486 171.463C120.135 171.463 119.826 171.557 119.561 171.744C119.295 171.932 119.088 172.178 118.939 172.482V177H117.855V168H118.939V171.428ZM127.096 177.117C126.236 177.117 125.537 176.836 124.998 176.273C124.459 175.707 124.189 174.951 124.189 174.006V173.807C124.189 173.178 124.309 172.617 124.547 172.125C124.789 171.629 125.125 171.242 125.555 170.965C125.988 170.684 126.457 170.543 126.961 170.543C127.785 170.543 128.426 170.814 128.883 171.357C129.34 171.9 129.568 172.678 129.568 173.689V174.141H125.273C125.289 174.766 125.471 175.271 125.818 175.658C126.17 176.041 126.615 176.232 127.154 176.232C127.537 176.232 127.861 176.154 128.127 175.998C128.393 175.842 128.625 175.635 128.824 175.377L129.486 175.893C128.955 176.709 128.158 177.117 127.096 177.117ZM126.961 171.434C126.523 171.434 126.156 171.594 125.859 171.914C125.562 172.23 125.379 172.676 125.309 173.25H128.484V173.168C128.453 172.617 128.305 172.191 128.039 171.891C127.773 171.586 127.414 171.434 126.961 171.434ZM137.496 175.318C137.496 175.025 137.385 174.799 137.162 174.639C136.943 174.475 136.559 174.334 136.008 174.217C135.461 174.1 135.025 173.959 134.701 173.795C134.381 173.631 134.143 173.436 133.986 173.209C133.834 172.982 133.758 172.713 133.758 172.4C133.758 171.881 133.977 171.441 134.414 171.082C134.855 170.723 135.418 170.543 136.102 170.543C136.82 170.543 137.402 170.729 137.848 171.1C138.297 171.471 138.521 171.945 138.521 172.523H137.432C137.432 172.227 137.305 171.971 137.051 171.756C136.801 171.541 136.484 171.434 136.102 171.434C135.707 171.434 135.398 171.52 135.176 171.691C134.953 171.863 134.842 172.088 134.842 172.365C134.842 172.627 134.945 172.824 135.152 172.957C135.359 173.09 135.732 173.217 136.271 173.338C136.814 173.459 137.254 173.604 137.59 173.771C137.926 173.939 138.174 174.143 138.334 174.381C138.498 174.615 138.58 174.902 138.58 175.242C138.58 175.809 138.354 176.264 137.9 176.607C137.447 176.947 136.859 177.117 136.137 177.117C135.629 177.117 135.18 177.027 134.789 176.848C134.398 176.668 134.092 176.418 133.869 176.098C133.65 175.773 133.541 175.424 133.541 175.049H134.625C134.645 175.412 134.789 175.701 135.059 175.916C135.332 176.127 135.691 176.232 136.137 176.232C136.547 176.232 136.875 176.15 137.121 175.986C137.371 175.818 137.496 175.596 137.496 175.318ZM143.906 177C143.844 176.875 143.793 176.652 143.754 176.332C143.25 176.855 142.648 177.117 141.949 177.117C141.324 177.117 140.811 176.941 140.408 176.59C140.01 176.234 139.811 175.785 139.811 175.242C139.811 174.582 140.061 174.07 140.561 173.707C141.064 173.34 141.771 173.156 142.682 173.156H143.736V172.658C143.736 172.279 143.623 171.979 143.396 171.756C143.17 171.529 142.836 171.416 142.395 171.416C142.008 171.416 141.684 171.514 141.422 171.709C141.16 171.904 141.029 172.141 141.029 172.418H139.939C139.939 172.102 140.051 171.797 140.273 171.504C140.5 171.207 140.805 170.973 141.188 170.801C141.574 170.629 141.998 170.543 142.459 170.543C143.189 170.543 143.762 170.727 144.176 171.094C144.59 171.457 144.805 171.959 144.82 172.6V175.518C144.82 176.1 144.895 176.562 145.043 176.906V177H143.906ZM142.107 176.174C142.447 176.174 142.77 176.086 143.074 175.91C143.379 175.734 143.6 175.506 143.736 175.225V173.924H142.887C141.559 173.924 140.895 174.312 140.895 175.09C140.895 175.43 141.008 175.695 141.234 175.887C141.461 176.078 141.752 176.174 142.107 176.174ZM147.539 170.66L147.568 171.363C148.033 170.816 148.66 170.543 149.449 170.543C150.336 170.543 150.939 170.883 151.26 171.562C151.471 171.258 151.744 171.012 152.08 170.824C152.42 170.637 152.82 170.543 153.281 170.543C154.672 170.543 155.379 171.279 155.402 172.752V177H154.318V172.816C154.318 172.363 154.215 172.025 154.008 171.803C153.801 171.576 153.453 171.463 152.965 171.463C152.562 171.463 152.229 171.584 151.963 171.826C151.697 172.064 151.543 172.387 151.5 172.793V177H150.41V172.846C150.41 171.924 149.959 171.463 149.057 171.463C148.346 171.463 147.859 171.766 147.598 172.371V177H146.514V170.66H147.539ZM159.674 177.117C158.814 177.117 158.115 176.836 157.576 176.273C157.037 175.707 156.768 174.951 156.768 174.006V173.807C156.768 173.178 156.887 172.617 157.125 172.125C157.367 171.629 157.703 171.242 158.133 170.965C158.566 170.684 159.035 170.543 159.539 170.543C160.363 170.543 161.004 170.814 161.461 171.357C161.918 171.9 162.146 172.678 162.146 173.689V174.141H157.852C157.867 174.766 158.049 175.271 158.396 175.658C158.748 176.041 159.193 176.232 159.732 176.232C160.115 176.232 160.439 176.154 160.705 175.998C160.971 175.842 161.203 175.635 161.402 175.377L162.064 175.893C161.533 176.709 160.736 177.117 159.674 177.117ZM159.539 171.434C159.102 171.434 158.734 171.594 158.438 171.914C158.141 172.23 157.957 172.676 157.887 173.25H161.062V173.168C161.031 172.617 160.883 172.191 160.617 171.891C160.352 171.586 159.992 171.434 159.539 171.434ZM168.926 176.232C169.312 176.232 169.65 176.115 169.939 175.881C170.229 175.646 170.389 175.354 170.42 175.002H171.445C171.426 175.365 171.301 175.711 171.07 176.039C170.84 176.367 170.531 176.629 170.145 176.824C169.762 177.02 169.355 177.117 168.926 177.117C168.062 177.117 167.375 176.83 166.863 176.256C166.355 175.678 166.102 174.889 166.102 173.889V173.707C166.102 173.09 166.215 172.541 166.441 172.061C166.668 171.58 166.992 171.207 167.414 170.941C167.84 170.676 168.342 170.543 168.92 170.543C169.631 170.543 170.221 170.756 170.689 171.182C171.162 171.607 171.414 172.16 171.445 172.84H170.42C170.389 172.43 170.232 172.094 169.951 171.832C169.674 171.566 169.33 171.434 168.92 171.434C168.369 171.434 167.941 171.633 167.637 172.031C167.336 172.426 167.186 172.998 167.186 173.748V173.953C167.186 174.684 167.336 175.246 167.637 175.641C167.938 176.035 168.367 176.232 168.926 176.232ZM173.748 171.428C174.229 170.838 174.854 170.543 175.623 170.543C176.963 170.543 177.639 171.299 177.65 172.811V177H176.566V172.805C176.562 172.348 176.457 172.01 176.25 171.791C176.047 171.572 175.729 171.463 175.295 171.463C174.943 171.463 174.635 171.557 174.369 171.744C174.104 171.932 173.896 172.178 173.748 172.482V177H172.664V168H173.748V171.428ZM183.188 177C183.125 176.875 183.074 176.652 183.035 176.332C182.531 176.855 181.93 177.117 181.23 177.117C180.605 177.117 180.092 176.941 179.689 176.59C179.291 176.234 179.092 175.785 179.092 175.242C179.092 174.582 179.342 174.07 179.842 173.707C180.346 173.34 181.053 173.156 181.963 173.156H183.018V172.658C183.018 172.279 182.904 171.979 182.678 171.756C182.451 171.529 182.117 171.416 181.676 171.416C181.289 171.416 180.965 171.514 180.703 171.709C180.441 171.904 180.311 172.141 180.311 172.418H179.221C179.221 172.102 179.332 171.797 179.555 171.504C179.781 171.207 180.086 170.973 180.469 170.801C180.855 170.629 181.279 170.543 181.74 170.543C182.471 170.543 183.043 170.727 183.457 171.094C183.871 171.457 184.086 171.959 184.102 172.6V175.518C184.102 176.1 184.176 176.562 184.324 176.906V177H183.188ZM181.389 176.174C181.729 176.174 182.051 176.086 182.355 175.91C182.66 175.734 182.881 175.506 183.018 175.225V173.924H182.168C180.84 173.924 180.176 174.312 180.176 175.09C180.176 175.43 180.289 175.695 180.516 175.887C180.742 176.078 181.033 176.174 181.389 176.174ZM186.826 170.66L186.861 171.457C187.346 170.848 187.979 170.543 188.76 170.543C190.1 170.543 190.775 171.299 190.787 172.811V177H189.703V172.805C189.699 172.348 189.594 172.01 189.387 171.791C189.184 171.572 188.865 171.463 188.432 171.463C188.08 171.463 187.771 171.557 187.506 171.744C187.24 171.932 187.033 172.178 186.885 172.482V177H185.801V170.66H186.826ZM193.447 170.66L193.482 171.457C193.967 170.848 194.6 170.543 195.381 170.543C196.721 170.543 197.396 171.299 197.408 172.811V177H196.324V172.805C196.32 172.348 196.215 172.01 196.008 171.791C195.805 171.572 195.486 171.463 195.053 171.463C194.701 171.463 194.393 171.557 194.127 171.744C193.861 171.932 193.654 172.178 193.506 172.482V177H192.422V170.66H193.447ZM201.674 177.117C200.814 177.117 200.115 176.836 199.576 176.273C199.037 175.707 198.768 174.951 198.768 174.006V173.807C198.768 173.178 198.887 172.617 199.125 172.125C199.367 171.629 199.703 171.242 200.133 170.965C200.566 170.684 201.035 170.543 201.539 170.543C202.363 170.543 203.004 170.814 203.461 171.357C203.918 171.9 204.146 172.678 204.146 173.689V174.141H199.852C199.867 174.766 200.049 175.271 200.396 175.658C200.748 176.041 201.193 176.232 201.732 176.232C202.115 176.232 202.439 176.154 202.705 175.998C202.971 175.842 203.203 175.635 203.402 175.377L204.064 175.893C203.533 176.709 202.736 177.117 201.674 177.117ZM201.539 171.434C201.102 171.434 200.734 171.594 200.438 171.914C200.141 172.23 199.957 172.676 199.887 173.25H203.062V173.168C203.031 172.617 202.883 172.191 202.617 171.891C202.352 171.586 201.992 171.434 201.539 171.434ZM206.584 177H205.5V168H206.584V177Z" fill="black"/>
<path d="M210.617 76.5801C210.937 77.3441 211.816 77.7037 212.58 77.3833L225.03 72.1625C225.794 71.8421 226.153 70.9631 225.833 70.1991C225.513 69.4351 224.634 69.0755 223.87 69.3959L212.803 74.0366L208.162 62.9703C207.842 62.2063 206.963 61.8467 206.199 62.1671C205.435 62.4875 205.076 63.3665 205.396 64.1305L210.617 76.5801ZM228.612 31.4321L210.612 75.432L213.388 76.5679L231.388 32.5679L228.612 31.4321Z" fill="black"/>
<path d="M213.547 29H212.416L208.121 22.4258V29H206.99V20.4688H208.121L212.428 27.0723V20.4688H213.547V29ZM215.088 25.7715C215.088 25.1504 215.209 24.5918 215.451 24.0957C215.697 23.5996 216.037 23.2168 216.471 22.9473C216.908 22.6777 217.406 22.543 217.965 22.543C218.828 22.543 219.525 22.8418 220.057 23.4395C220.592 24.0371 220.859 24.832 220.859 25.8242V25.9004C220.859 26.5176 220.74 27.0723 220.502 27.5645C220.268 28.0527 219.93 28.4336 219.488 28.707C219.051 28.9805 218.547 29.1172 217.977 29.1172C217.117 29.1172 216.42 28.8184 215.885 28.2207C215.354 27.623 215.088 26.832 215.088 25.8477V25.7715ZM216.178 25.9004C216.178 26.6035 216.34 27.168 216.664 27.5938C216.992 28.0195 217.43 28.2324 217.977 28.2324C218.527 28.2324 218.965 28.0176 219.289 27.5879C219.613 27.1543 219.775 26.5488 219.775 25.7715C219.775 25.0762 219.609 24.5137 219.277 24.084C218.949 23.6504 218.512 23.4336 217.965 23.4336C217.43 23.4336 216.998 23.6465 216.67 24.0723C216.342 24.498 216.178 25.1074 216.178 25.9004ZM225.957 19.8887L226.578 20.3105C226.215 20.8066 226.027 21.3418 226.016 21.916V22.7129H224.938V22.0332C224.938 21.6348 225.031 21.2402 225.219 20.8496C225.41 20.459 225.656 20.1387 225.957 19.8887ZM232.555 24.2305H227.668V23.2871H232.555V24.2305ZM232.555 26.6621H227.668V25.7246H232.555V26.6621ZM234.26 22.8711L233.645 22.4492C234.008 21.9414 234.195 21.4062 234.207 20.8438V20H235.279V20.7617C235.275 21.1523 235.178 21.543 234.986 21.9336C234.799 22.3203 234.557 22.6328 234.26 22.8711ZM243.254 27.3184C243.254 27.0254 243.143 26.7988 242.92 26.6387C242.701 26.4746 242.316 26.334 241.766 26.2168C241.219 26.0996 240.783 25.959 240.459 25.7949C240.139 25.6309 239.9 25.4355 239.744 25.209C239.592 24.9824 239.516 24.7129 239.516 24.4004C239.516 23.8809 239.734 23.4414 240.172 23.082C240.613 22.7227 241.176 22.543 241.859 22.543C242.578 22.543 243.16 22.7285 243.605 23.0996C244.055 23.4707 244.279 23.9453 244.279 24.5234H243.189C243.189 24.2266 243.062 23.9707 242.809 23.7559C242.559 23.541 242.242 23.4336 241.859 23.4336C241.465 23.4336 241.156 23.5195 240.934 23.6914C240.711 23.8633 240.6 24.0879 240.6 24.3652C240.6 24.627 240.703 24.8242 240.91 24.957C241.117 25.0898 241.49 25.2168 242.029 25.3379C242.572 25.459 243.012 25.6035 243.348 25.7715C243.684 25.9395 243.932 26.1426 244.092 26.3809C244.256 26.6152 244.338 26.9023 244.338 27.2422C244.338 27.8086 244.111 28.2637 243.658 28.6074C243.205 28.9473 242.617 29.1172 241.895 29.1172C241.387 29.1172 240.938 29.0273 240.547 28.8477C240.156 28.668 239.85 28.418 239.627 28.0977C239.408 27.7734 239.299 27.4238 239.299 27.0488H240.383C240.402 27.4121 240.547 27.7012 240.816 27.916C241.09 28.127 241.449 28.2324 241.895 28.2324C242.305 28.2324 242.633 28.1504 242.879 27.9863C243.129 27.8184 243.254 27.5957 243.254 27.3184ZM247.824 27.4121L249.301 22.6602H250.461L247.912 29.9785C247.518 31.0332 246.891 31.5605 246.031 31.5605L245.826 31.543L245.422 31.4668V30.5879L245.715 30.6113C246.082 30.6113 246.367 30.5371 246.57 30.3887C246.777 30.2402 246.947 29.9688 247.08 29.5742L247.32 28.9297L245.059 22.6602H246.242L247.824 27.4121ZM252.453 22.6602L252.482 23.3633C252.947 22.8164 253.574 22.543 254.363 22.543C255.25 22.543 255.854 22.8828 256.174 23.5625C256.385 23.2578 256.658 23.0117 256.994 22.8242C257.334 22.6367 257.734 22.543 258.195 22.543C259.586 22.543 260.293 23.2793 260.316 24.752V29H259.232V24.8164C259.232 24.3633 259.129 24.0254 258.922 23.8027C258.715 23.5762 258.367 23.4629 257.879 23.4629C257.477 23.4629 257.143 23.584 256.877 23.8262C256.611 24.0645 256.457 24.3867 256.414 24.793V29H255.324V24.8457C255.324 23.9238 254.873 23.4629 253.971 23.4629C253.26 23.4629 252.773 23.7656 252.512 24.3711V29H251.428V22.6602H252.453ZM267.324 25.9004C267.324 26.8691 267.102 27.6484 266.656 28.2383C266.211 28.8242 265.613 29.1172 264.863 29.1172C264.062 29.1172 263.443 28.834 263.006 28.2676L262.953 29H261.957V20H263.041V23.3574C263.479 22.8145 264.082 22.543 264.852 22.543C265.621 22.543 266.225 22.834 266.662 23.416C267.104 23.998 267.324 24.7949 267.324 25.8066V25.9004ZM266.24 25.7773C266.24 25.0391 266.098 24.4688 265.812 24.0664C265.527 23.6641 265.117 23.4629 264.582 23.4629C263.867 23.4629 263.354 23.7949 263.041 24.459V27.2012C263.373 27.8652 263.891 28.1973 264.594 28.1973C265.113 28.1973 265.518 27.9961 265.807 27.5938C266.096 27.1914 266.24 26.5859 266.24 25.7773ZM268.408 25.7715C268.408 25.1504 268.529 24.5918 268.771 24.0957C269.018 23.5996 269.357 23.2168 269.791 22.9473C270.229 22.6777 270.727 22.543 271.285 22.543C272.148 22.543 272.846 22.8418 273.377 23.4395C273.912 24.0371 274.18 24.832 274.18 25.8242V25.9004C274.18 26.5176 274.061 27.0723 273.822 27.5645C273.588 28.0527 273.25 28.4336 272.809 28.707C272.371 28.9805 271.867 29.1172 271.297 29.1172C270.438 29.1172 269.74 28.8184 269.205 28.2207C268.674 27.623 268.408 26.832 268.408 25.8477V25.7715ZM269.498 25.9004C269.498 26.6035 269.66 27.168 269.984 27.5938C270.312 28.0195 270.75 28.2324 271.297 28.2324C271.848 28.2324 272.285 28.0176 272.609 27.5879C272.934 27.1543 273.096 26.5488 273.096 25.7715C273.096 25.0762 272.93 24.5137 272.598 24.084C272.27 23.6504 271.832 23.4336 271.285 23.4336C270.75 23.4336 270.318 23.6465 269.99 24.0723C269.662 24.498 269.498 25.1074 269.498 25.9004ZM276.717 29H275.633V20H276.717V29ZM279.67 26.5918H278.691L278.615 20.4688H279.752L279.67 26.5918ZM278.574 28.4551C278.574 28.2793 278.627 28.1328 278.732 28.0156C278.842 27.8945 279.002 27.834 279.213 27.834C279.424 27.834 279.584 27.8945 279.693 28.0156C279.803 28.1328 279.857 28.2793 279.857 28.4551C279.857 28.6309 279.803 28.7773 279.693 28.8945C279.584 29.0078 279.424 29.0645 279.213 29.0645C279.002 29.0645 278.842 29.0078 278.732 28.8945C278.627 28.7773 278.574 28.6309 278.574 28.4551Z" fill="black"/>
<path d="M177.653 106.541C176.847 106.733 176.349 107.542 176.541 108.347L179.668 121.48C179.86 122.286 180.668 122.784 181.474 122.592C182.28 122.4 182.778 121.591 182.586 120.785L179.807 109.112L191.48 106.332C192.286 106.14 192.784 105.332 192.592 104.526C192.4 103.72 191.591 103.222 190.785 103.414L177.653 106.541ZM230.786 138.723L178.786 106.723L177.214 109.277L229.214 141.277L230.786 138.723Z" fill="black"/>
<path d="M232.996 152.469V158.27C232.992 159.074 232.738 159.732 232.234 160.244C231.734 160.756 231.055 161.043 230.195 161.105L229.896 161.117C228.963 161.117 228.219 160.865 227.664 160.361C227.109 159.857 226.828 159.164 226.82 158.281V152.469H227.934V158.246C227.934 158.863 228.104 159.344 228.443 159.688C228.783 160.027 229.268 160.197 229.896 160.197C230.533 160.197 231.02 160.027 231.355 159.688C231.695 159.348 231.865 158.869 231.865 158.252V152.469H232.996ZM238.293 159.318C238.293 159.025 238.182 158.799 237.959 158.639C237.74 158.475 237.355 158.334 236.805 158.217C236.258 158.1 235.822 157.959 235.498 157.795C235.178 157.631 234.939 157.436 234.783 157.209C234.631 156.982 234.555 156.713 234.555 156.4C234.555 155.881 234.773 155.441 235.211 155.082C235.652 154.723 236.215 154.543 236.898 154.543C237.617 154.543 238.199 154.729 238.645 155.1C239.094 155.471 239.318 155.945 239.318 156.523H238.229C238.229 156.227 238.102 155.971 237.848 155.756C237.598 155.541 237.281 155.434 236.898 155.434C236.504 155.434 236.195 155.52 235.973 155.691C235.75 155.863 235.639 156.088 235.639 156.365C235.639 156.627 235.742 156.824 235.949 156.957C236.156 157.09 236.529 157.217 237.068 157.338C237.611 157.459 238.051 157.604 238.387 157.771C238.723 157.939 238.971 158.143 239.131 158.381C239.295 158.615 239.377 158.902 239.377 159.242C239.377 159.809 239.15 160.264 238.697 160.607C238.244 160.947 237.656 161.117 236.934 161.117C236.426 161.117 235.977 161.027 235.586 160.848C235.195 160.668 234.889 160.418 234.666 160.098C234.447 159.773 234.338 159.424 234.338 159.049H235.422C235.441 159.412 235.586 159.701 235.855 159.916C236.129 160.127 236.488 160.232 236.934 160.232C237.344 160.232 237.672 160.15 237.918 159.986C238.168 159.818 238.293 159.596 238.293 159.318ZM243.42 161.117C242.561 161.117 241.861 160.836 241.322 160.273C240.783 159.707 240.514 158.951 240.514 158.006V157.807C240.514 157.178 240.633 156.617 240.871 156.125C241.113 155.629 241.449 155.242 241.879 154.965C242.312 154.684 242.781 154.543 243.285 154.543C244.109 154.543 244.75 154.814 245.207 155.357C245.664 155.9 245.893 156.678 245.893 157.689V158.141H241.598C241.613 158.766 241.795 159.271 242.143 159.658C242.494 160.041 242.939 160.232 243.479 160.232C243.861 160.232 244.186 160.154 244.451 159.998C244.717 159.842 244.949 159.635 245.148 159.377L245.811 159.893C245.279 160.709 244.482 161.117 243.42 161.117ZM243.285 155.434C242.848 155.434 242.48 155.594 242.184 155.914C241.887 156.23 241.703 156.676 241.633 157.25H244.809V157.168C244.777 156.617 244.629 156.191 244.363 155.891C244.098 155.586 243.738 155.434 243.285 155.434ZM251.6 153.125V154.66H252.783V155.498H251.6V159.43C251.6 159.684 251.652 159.875 251.758 160.004C251.863 160.129 252.043 160.191 252.297 160.191C252.422 160.191 252.594 160.168 252.812 160.121V161C252.527 161.078 252.25 161.117 251.98 161.117C251.496 161.117 251.131 160.971 250.885 160.678C250.639 160.385 250.516 159.969 250.516 159.43V155.498H249.361V154.66H250.516V153.125H251.6ZM255.139 155.428C255.619 154.838 256.244 154.543 257.014 154.543C258.354 154.543 259.029 155.299 259.041 156.811V161H257.957V156.805C257.953 156.348 257.848 156.01 257.641 155.791C257.438 155.572 257.119 155.463 256.686 155.463C256.334 155.463 256.025 155.557 255.76 155.744C255.494 155.932 255.287 156.178 255.139 156.482V161H254.055V152H255.139V155.428ZM263.295 161.117C262.436 161.117 261.736 160.836 261.197 160.273C260.658 159.707 260.389 158.951 260.389 158.006V157.807C260.389 157.178 260.508 156.617 260.746 156.125C260.988 155.629 261.324 155.242 261.754 154.965C262.188 154.684 262.656 154.543 263.16 154.543C263.984 154.543 264.625 154.814 265.082 155.357C265.539 155.9 265.768 156.678 265.768 157.689V158.141H261.473C261.488 158.766 261.67 159.271 262.018 159.658C262.369 160.041 262.814 160.232 263.354 160.232C263.736 160.232 264.061 160.154 264.326 159.998C264.592 159.842 264.824 159.635 265.023 159.377L265.686 159.893C265.154 160.709 264.357 161.117 263.295 161.117ZM263.16 155.434C262.723 155.434 262.355 155.594 262.059 155.914C261.762 156.23 261.578 156.676 261.508 157.25H264.684V157.168C264.652 156.617 264.504 156.191 264.238 155.891C263.973 155.586 263.613 155.434 263.16 155.434ZM270.766 151.889L271.387 152.311C271.023 152.807 270.836 153.342 270.824 153.916V154.713H269.746V154.033C269.746 153.635 269.84 153.24 270.027 152.85C270.219 152.459 270.465 152.139 270.766 151.889ZM276.602 158.803C276.602 158.443 276.475 158.141 276.221 157.895C275.971 157.648 275.547 157.426 274.949 157.227C274.117 156.973 273.51 156.643 273.127 156.236C272.748 155.826 272.559 155.307 272.559 154.678C272.559 154.037 272.744 153.512 273.115 153.102C273.49 152.691 274.004 152.447 274.656 152.369V151.086H275.529V152.375C276.186 152.465 276.695 152.74 277.059 153.201C277.426 153.662 277.609 154.293 277.609 155.094H276.531C276.531 154.543 276.4 154.105 276.139 153.781C275.877 153.457 275.523 153.295 275.078 153.295C274.613 153.295 274.258 153.416 274.012 153.658C273.766 153.896 273.643 154.23 273.643 154.66C273.643 155.059 273.771 155.377 274.029 155.615C274.291 155.85 274.719 156.064 275.312 156.26C275.91 156.451 276.375 156.664 276.707 156.898C277.043 157.129 277.289 157.398 277.445 157.707C277.605 158.016 277.686 158.377 277.686 158.791C277.686 159.451 277.486 159.982 277.088 160.385C276.693 160.787 276.139 161.025 275.424 161.1V162.219H274.557V161.1C273.83 161.033 273.26 160.775 272.846 160.326C272.436 159.873 272.23 159.26 272.23 158.486H273.314C273.314 159.029 273.457 159.447 273.742 159.74C274.027 160.033 274.432 160.18 274.955 160.18C275.467 160.18 275.869 160.057 276.162 159.811C276.455 159.564 276.602 159.229 276.602 158.803ZM279.221 154.871L278.605 154.449C278.969 153.941 279.156 153.406 279.168 152.844V152H280.24V152.762C280.236 153.152 280.139 153.543 279.947 153.934C279.76 154.32 279.518 154.633 279.221 154.871ZM288.215 159.318C288.215 159.025 288.104 158.799 287.881 158.639C287.662 158.475 287.277 158.334 286.727 158.217C286.18 158.1 285.744 157.959 285.42 157.795C285.1 157.631 284.861 157.436 284.705 157.209C284.553 156.982 284.477 156.713 284.477 156.4C284.477 155.881 284.695 155.441 285.133 155.082C285.574 154.723 286.137 154.543 286.82 154.543C287.539 154.543 288.121 154.729 288.566 155.1C289.016 155.471 289.24 155.945 289.24 156.523H288.15C288.15 156.227 288.023 155.971 287.77 155.756C287.52 155.541 287.203 155.434 286.82 155.434C286.426 155.434 286.117 155.52 285.895 155.691C285.672 155.863 285.561 156.088 285.561 156.365C285.561 156.627 285.664 156.824 285.871 156.957C286.078 157.09 286.451 157.217 286.99 157.338C287.533 157.459 287.973 157.604 288.309 157.771C288.645 157.939 288.893 158.143 289.053 158.381C289.217 158.615 289.299 158.902 289.299 159.242C289.299 159.809 289.072 160.264 288.619 160.607C288.166 160.947 287.578 161.117 286.855 161.117C286.348 161.117 285.898 161.027 285.508 160.848C285.117 160.668 284.811 160.418 284.588 160.098C284.369 159.773 284.26 159.424 284.26 159.049H285.344C285.363 159.412 285.508 159.701 285.777 159.916C286.051 160.127 286.41 160.232 286.855 160.232C287.266 160.232 287.594 160.15 287.84 159.986C288.09 159.818 288.215 159.596 288.215 159.318ZM292.785 159.412L294.262 154.66H295.422L292.873 161.979C292.479 163.033 291.852 163.561 290.992 163.561L290.787 163.543L290.383 163.467V162.588L290.676 162.611C291.043 162.611 291.328 162.537 291.531 162.389C291.738 162.24 291.908 161.969 292.041 161.574L292.281 160.93L290.02 154.66H291.203L292.785 159.412ZM297.414 154.66L297.443 155.363C297.908 154.816 298.535 154.543 299.324 154.543C300.211 154.543 300.814 154.883 301.135 155.562C301.346 155.258 301.619 155.012 301.955 154.824C302.295 154.637 302.695 154.543 303.156 154.543C304.547 154.543 305.254 155.279 305.277 156.752V161H304.193V156.816C304.193 156.363 304.09 156.025 303.883 155.803C303.676 155.576 303.328 155.463 302.84 155.463C302.438 155.463 302.104 155.584 301.838 155.826C301.572 156.064 301.418 156.387 301.375 156.793V161H300.285V156.846C300.285 155.924 299.834 155.463 298.932 155.463C298.221 155.463 297.734 155.766 297.473 156.371V161H296.389V154.66H297.414ZM312.285 157.9C312.285 158.869 312.062 159.648 311.617 160.238C311.172 160.824 310.574 161.117 309.824 161.117C309.023 161.117 308.404 160.834 307.967 160.268L307.914 161H306.918V152H308.002V155.357C308.439 154.814 309.043 154.543 309.812 154.543C310.582 154.543 311.186 154.834 311.623 155.416C312.064 155.998 312.285 156.795 312.285 157.807V157.9ZM311.201 157.777C311.201 157.039 311.059 156.469 310.773 156.066C310.488 155.664 310.078 155.463 309.543 155.463C308.828 155.463 308.314 155.795 308.002 156.459V159.201C308.334 159.865 308.852 160.197 309.555 160.197C310.074 160.197 310.479 159.996 310.768 159.594C311.057 159.191 311.201 158.586 311.201 157.777ZM313.369 157.771C313.369 157.15 313.49 156.592 313.732 156.096C313.979 155.6 314.318 155.217 314.752 154.947C315.189 154.678 315.688 154.543 316.246 154.543C317.109 154.543 317.807 154.842 318.338 155.439C318.873 156.037 319.141 156.832 319.141 157.824V157.9C319.141 158.518 319.021 159.072 318.783 159.564C318.549 160.053 318.211 160.434 317.77 160.707C317.332 160.98 316.828 161.117 316.258 161.117C315.398 161.117 314.701 160.818 314.166 160.221C313.635 159.623 313.369 158.832 313.369 157.848V157.771ZM314.459 157.9C314.459 158.604 314.621 159.168 314.945 159.594C315.273 160.02 315.711 160.232 316.258 160.232C316.809 160.232 317.246 160.018 317.57 159.588C317.895 159.154 318.057 158.549 318.057 157.771C318.057 157.076 317.891 156.514 317.559 156.084C317.23 155.65 316.793 155.434 316.246 155.434C315.711 155.434 315.279 155.646 314.951 156.072C314.623 156.498 314.459 157.107 314.459 157.9ZM321.678 161H320.594V152H321.678V161ZM327.865 153.125V154.66H329.049V155.498H327.865V159.43C327.865 159.684 327.918 159.875 328.023 160.004C328.129 160.129 328.309 160.191 328.562 160.191C328.688 160.191 328.859 160.168 329.078 160.121V161C328.793 161.078 328.516 161.117 328.246 161.117C327.762 161.117 327.396 160.971 327.15 160.678C326.904 160.385 326.781 159.969 326.781 159.43V155.498H325.627V154.66H326.781V153.125H327.865ZM329.916 157.771C329.916 157.15 330.037 156.592 330.279 156.096C330.525 155.6 330.865 155.217 331.299 154.947C331.736 154.678 332.234 154.543 332.793 154.543C333.656 154.543 334.354 154.842 334.885 155.439C335.42 156.037 335.688 156.832 335.688 157.824V157.9C335.688 158.518 335.568 159.072 335.33 159.564C335.096 160.053 334.758 160.434 334.316 160.707C333.879 160.98 333.375 161.117 332.805 161.117C331.945 161.117 331.248 160.818 330.713 160.221C330.182 159.623 329.916 158.832 329.916 157.848V157.771ZM331.006 157.9C331.006 158.604 331.168 159.168 331.492 159.594C331.82 160.02 332.258 160.232 332.805 160.232C333.355 160.232 333.793 160.018 334.117 159.588C334.441 159.154 334.604 158.549 334.604 157.771C334.604 157.076 334.438 156.514 334.105 156.084C333.777 155.65 333.34 155.434 332.793 155.434C332.258 155.434 331.826 155.646 331.498 156.072C331.17 156.498 331.006 157.107 331.006 157.9ZM343.088 155.633C342.924 155.605 342.746 155.592 342.555 155.592C341.844 155.592 341.361 155.895 341.107 156.5V161H340.023V154.66H341.078L341.096 155.393C341.451 154.826 341.955 154.543 342.607 154.543C342.818 154.543 342.979 154.57 343.088 154.625V155.633ZM346.604 161.117C345.744 161.117 345.045 160.836 344.506 160.273C343.967 159.707 343.697 158.951 343.697 158.006V157.807C343.697 157.178 343.816 156.617 344.055 156.125C344.297 155.629 344.633 155.242 345.062 154.965C345.496 154.684 345.965 154.543 346.469 154.543C347.293 154.543 347.934 154.814 348.391 155.357C348.848 155.9 349.076 156.678 349.076 157.689V158.141H344.781C344.797 158.766 344.979 159.271 345.326 159.658C345.678 160.041 346.123 160.232 346.662 160.232C347.045 160.232 347.369 160.154 347.635 159.998C347.9 159.842 348.133 159.635 348.332 159.377L348.994 159.893C348.463 160.709 347.666 161.117 346.604 161.117ZM346.469 155.434C346.031 155.434 345.664 155.594 345.367 155.914C345.07 156.23 344.887 156.676 344.816 157.25H347.992V157.168C347.961 156.617 347.812 156.191 347.547 155.891C347.281 155.586 346.922 155.434 346.469 155.434ZM355.691 157.9C355.691 158.865 355.471 159.643 355.029 160.232C354.588 160.822 353.99 161.117 353.236 161.117C352.467 161.117 351.861 160.873 351.42 160.385V163.438H350.336V154.66H351.326L351.379 155.363C351.82 154.816 352.434 154.543 353.219 154.543C353.98 154.543 354.582 154.83 355.023 155.404C355.469 155.979 355.691 156.777 355.691 157.801V157.9ZM354.607 157.777C354.607 157.062 354.455 156.498 354.15 156.084C353.846 155.67 353.428 155.463 352.896 155.463C352.24 155.463 351.748 155.754 351.42 156.336V159.365C351.744 159.943 352.24 160.232 352.908 160.232C353.428 160.232 353.84 160.027 354.145 159.617C354.453 159.203 354.607 158.59 354.607 157.777ZM360.139 155.633C359.975 155.605 359.797 155.592 359.605 155.592C358.895 155.592 358.412 155.895 358.158 156.5V161H357.074V154.66H358.129L358.146 155.393C358.502 154.826 359.006 154.543 359.658 154.543C359.869 154.543 360.029 154.57 360.139 154.625V155.633ZM363.654 161.117C362.795 161.117 362.096 160.836 361.557 160.273C361.018 159.707 360.748 158.951 360.748 158.006V157.807C360.748 157.178 360.867 156.617 361.105 156.125C361.348 155.629 361.684 155.242 362.113 154.965C362.547 154.684 363.016 154.543 363.52 154.543C364.344 154.543 364.984 154.814 365.441 155.357C365.898 155.9 366.127 156.678 366.127 157.689V158.141H361.832C361.848 158.766 362.029 159.271 362.377 159.658C362.729 160.041 363.174 160.232 363.713 160.232C364.096 160.232 364.42 160.154 364.686 159.998C364.951 159.842 365.184 159.635 365.383 159.377L366.045 159.893C365.514 160.709 364.717 161.117 363.654 161.117ZM363.52 155.434C363.082 155.434 362.715 155.594 362.418 155.914C362.121 156.23 361.938 156.676 361.867 157.25H365.043V157.168C365.012 156.617 364.863 156.191 364.598 155.891C364.332 155.586 363.973 155.434 363.52 155.434ZM371.078 159.318C371.078 159.025 370.967 158.799 370.744 158.639C370.525 158.475 370.141 158.334 369.59 158.217C369.043 158.1 368.607 157.959 368.283 157.795C367.963 157.631 367.725 157.436 367.568 157.209C367.416 156.982 367.34 156.713 367.34 156.4C367.34 155.881 367.559 155.441 367.996 155.082C368.438 154.723 369 154.543 369.684 154.543C370.402 154.543 370.984 154.729 371.43 155.1C371.879 155.471 372.104 155.945 372.104 156.523H371.014C371.014 156.227 370.887 155.971 370.633 155.756C370.383 155.541 370.066 155.434 369.684 155.434C369.289 155.434 368.98 155.52 368.758 155.691C368.535 155.863 368.424 156.088 368.424 156.365C368.424 156.627 368.527 156.824 368.734 156.957C368.941 157.09 369.314 157.217 369.854 157.338C370.396 157.459 370.836 157.604 371.172 157.771C371.508 157.939 371.756 158.143 371.916 158.381C372.08 158.615 372.162 158.902 372.162 159.242C372.162 159.809 371.936 160.264 371.482 160.607C371.029 160.947 370.441 161.117 369.719 161.117C369.211 161.117 368.762 161.027 368.371 160.848C367.98 160.668 367.674 160.418 367.451 160.098C367.232 159.773 367.123 159.424 367.123 159.049H368.207C368.227 159.412 368.371 159.701 368.641 159.916C368.914 160.127 369.273 160.232 369.719 160.232C370.129 160.232 370.457 160.15 370.703 159.986C370.953 159.818 371.078 159.596 371.078 159.318ZM376.205 161.117C375.346 161.117 374.646 160.836 374.107 160.273C373.568 159.707 373.299 158.951 373.299 158.006V157.807C373.299 157.178 373.418 156.617 373.656 156.125C373.898 155.629 374.234 155.242 374.664 154.965C375.098 154.684 375.566 154.543 376.07 154.543C376.895 154.543 377.535 154.814 377.992 155.357C378.449 155.9 378.678 156.678 378.678 157.689V158.141H374.383C374.398 158.766 374.58 159.271 374.928 159.658C375.279 160.041 375.725 160.232 376.264 160.232C376.646 160.232 376.971 160.154 377.236 159.998C377.502 159.842 377.734 159.635 377.934 159.377L378.596 159.893C378.064 160.709 377.268 161.117 376.205 161.117ZM376.07 155.434C375.633 155.434 375.266 155.594 374.969 155.914C374.672 156.23 374.488 156.676 374.418 157.25H377.594V157.168C377.562 156.617 377.414 156.191 377.148 155.891C376.883 155.586 376.523 155.434 376.07 155.434ZM380.963 154.66L380.998 155.457C381.482 154.848 382.115 154.543 382.896 154.543C384.236 154.543 384.912 155.299 384.924 156.811V161H383.84V156.805C383.836 156.348 383.73 156.01 383.523 155.791C383.32 155.572 383.002 155.463 382.568 155.463C382.217 155.463 381.908 155.557 381.643 155.744C381.377 155.932 381.17 156.178 381.021 156.482V161H379.938V154.66H380.963ZM388.029 153.125V154.66H389.213V155.498H388.029V159.43C388.029 159.684 388.082 159.875 388.188 160.004C388.293 160.129 388.473 160.191 388.727 160.191C388.852 160.191 389.023 160.168 389.242 160.121V161C388.957 161.078 388.68 161.117 388.41 161.117C387.926 161.117 387.561 160.971 387.314 160.678C387.068 160.385 386.945 159.969 386.945 159.43V155.498H385.791V154.66H386.945V153.125H388.029ZM397.375 161C397.312 160.875 397.262 160.652 397.223 160.332C396.719 160.855 396.117 161.117 395.418 161.117C394.793 161.117 394.279 160.941 393.877 160.59C393.479 160.234 393.279 159.785 393.279 159.242C393.279 158.582 393.529 158.07 394.029 157.707C394.533 157.34 395.24 157.156 396.15 157.156H397.205V156.658C397.205 156.279 397.092 155.979 396.865 155.756C396.639 155.529 396.305 155.416 395.863 155.416C395.477 155.416 395.152 155.514 394.891 155.709C394.629 155.904 394.498 156.141 394.498 156.418H393.408C393.408 156.102 393.52 155.797 393.742 155.504C393.969 155.207 394.273 154.973 394.656 154.801C395.043 154.629 395.467 154.543 395.928 154.543C396.658 154.543 397.23 154.727 397.645 155.094C398.059 155.457 398.273 155.959 398.289 156.6V159.518C398.289 160.1 398.363 160.562 398.512 160.906V161H397.375ZM395.576 160.174C395.916 160.174 396.238 160.086 396.543 159.91C396.848 159.734 397.068 159.506 397.205 159.225V157.924H396.355C395.027 157.924 394.363 158.312 394.363 159.09C394.363 159.43 394.477 159.695 394.703 159.887C394.93 160.078 395.221 160.174 395.576 160.174ZM405.057 159.529L406.627 154.66H407.734L405.461 161H404.635L402.338 154.66H403.445L405.057 159.529ZM412.598 161C412.535 160.875 412.484 160.652 412.445 160.332C411.941 160.855 411.34 161.117 410.641 161.117C410.016 161.117 409.502 160.941 409.1 160.59C408.701 160.234 408.502 159.785 408.502 159.242C408.502 158.582 408.752 158.07 409.252 157.707C409.756 157.34 410.463 157.156 411.373 157.156H412.428V156.658C412.428 156.279 412.314 155.979 412.088 155.756C411.861 155.529 411.527 155.416 411.086 155.416C410.699 155.416 410.375 155.514 410.113 155.709C409.852 155.904 409.721 156.141 409.721 156.418H408.631C408.631 156.102 408.742 155.797 408.965 155.504C409.191 155.207 409.496 154.973 409.879 154.801C410.266 154.629 410.689 154.543 411.15 154.543C411.881 154.543 412.453 154.727 412.867 155.094C413.281 155.457 413.496 155.959 413.512 156.6V159.518C413.512 160.1 413.586 160.562 413.734 160.906V161H412.598ZM410.799 160.174C411.139 160.174 411.461 160.086 411.766 159.91C412.07 159.734 412.291 159.506 412.428 159.225V157.924H411.578C410.25 157.924 409.586 158.312 409.586 159.09C409.586 159.43 409.699 159.695 409.926 159.887C410.152 160.078 410.443 160.174 410.799 160.174ZM418.275 155.633C418.111 155.605 417.934 155.592 417.742 155.592C417.031 155.592 416.549 155.895 416.295 156.5V161H415.211V154.66H416.266L416.283 155.393C416.639 154.826 417.143 154.543 417.795 154.543C418.006 154.543 418.166 154.57 418.275 154.625V155.633ZM420.455 161H419.371V154.66H420.455V161ZM419.283 152.979C419.283 152.803 419.336 152.654 419.441 152.533C419.551 152.412 419.711 152.352 419.922 152.352C420.133 152.352 420.293 152.412 420.402 152.533C420.512 152.654 420.566 152.803 420.566 152.979C420.566 153.154 420.512 153.301 420.402 153.418C420.293 153.535 420.133 153.594 419.922 153.594C419.711 153.594 419.551 153.535 419.441 153.418C419.336 153.301 419.283 153.154 419.283 152.979ZM426.109 161C426.047 160.875 425.996 160.652 425.957 160.332C425.453 160.855 424.852 161.117 424.152 161.117C423.527 161.117 423.014 160.941 422.611 160.59C422.213 160.234 422.014 159.785 422.014 159.242C422.014 158.582 422.264 158.07 422.764 157.707C423.268 157.34 423.975 157.156 424.885 157.156H425.939V156.658C425.939 156.279 425.826 155.979 425.6 155.756C425.373 155.529 425.039 155.416 424.598 155.416C424.211 155.416 423.887 155.514 423.625 155.709C423.363 155.904 423.232 156.141 423.232 156.418H422.143C422.143 156.102 422.254 155.797 422.477 155.504C422.703 155.207 423.008 154.973 423.391 154.801C423.777 154.629 424.201 154.543 424.662 154.543C425.393 154.543 425.965 154.727 426.379 155.094C426.793 155.457 427.008 155.959 427.023 156.6V159.518C427.023 160.1 427.098 160.562 427.246 160.906V161H426.109ZM424.311 160.174C424.65 160.174 424.973 160.086 425.277 159.91C425.582 159.734 425.803 159.506 425.939 159.225V157.924H425.09C423.762 157.924 423.098 158.312 423.098 159.09C423.098 159.43 423.211 159.695 423.438 159.887C423.664 160.078 423.955 160.174 424.311 160.174ZM434.09 157.9C434.09 158.869 433.867 159.648 433.422 160.238C432.977 160.824 432.379 161.117 431.629 161.117C430.828 161.117 430.209 160.834 429.771 160.268L429.719 161H428.723V152H429.807V155.357C430.244 154.814 430.848 154.543 431.617 154.543C432.387 154.543 432.99 154.834 433.428 155.416C433.869 155.998 434.09 156.795 434.09 157.807V157.9ZM433.006 157.777C433.006 157.039 432.863 156.469 432.578 156.066C432.293 155.664 431.883 155.463 431.348 155.463C430.633 155.463 430.119 155.795 429.807 156.459V159.201C430.139 159.865 430.656 160.197 431.359 160.197C431.879 160.197 432.283 159.996 432.572 159.594C432.861 159.191 433.006 158.586 433.006 157.777ZM436.639 161H435.555V152H436.639V161ZM441.01 161.117C440.15 161.117 439.451 160.836 438.912 160.273C438.373 159.707 438.104 158.951 438.104 158.006V157.807C438.104 157.178 438.223 156.617 438.461 156.125C438.703 155.629 439.039 155.242 439.469 154.965C439.902 154.684 440.371 154.543 440.875 154.543C441.699 154.543 442.34 154.814 442.797 155.357C443.254 155.9 443.482 156.678 443.482 157.689V158.141H439.188C439.203 158.766 439.385 159.271 439.732 159.658C440.084 160.041 440.529 160.232 441.068 160.232C441.451 160.232 441.775 160.154 442.041 159.998C442.307 159.842 442.539 159.635 442.738 159.377L443.4 159.893C442.869 160.709 442.072 161.117 441.01 161.117ZM440.875 155.434C440.438 155.434 440.07 155.594 439.773 155.914C439.477 156.23 439.293 156.676 439.223 157.25H442.398V157.168C442.367 156.617 442.219 156.191 441.953 155.891C441.688 155.586 441.328 155.434 440.875 155.434Z" fill="black"/>
</svg>
