<svg width="194" height="27" viewBox="0 0 194 27" fill="none" xmlns="http://www.w3.org/2000/svg">
<path d="M2.91211 8.5293L4.48242 3.66016H5.58984L3.31641 10H2.49023L0.193359 3.66016H1.30078L2.91211 8.5293ZM10.4531 10C10.3906 9.875 10.3398 9.65234 10.3008 9.33203C9.79688 9.85547 9.19531 10.1172 8.49609 10.1172C7.87109 10.1172 7.35742 9.94141 6.95508 9.58984C6.55664 9.23438 6.35742 8.78516 6.35742 8.24219C6.35742 7.58203 6.60742 7.07031 7.10742 6.70703C7.61133 6.33984 8.31836 6.15625 9.22852 6.15625H10.2832V5.6582C10.2832 5.2793 10.1699 4.97852 9.94336 4.75586C9.7168 4.5293 9.38281 4.41602 8.94141 4.41602C8.55469 4.41602 8.23047 4.51367 7.96875 4.70898C7.70703 4.9043 7.57617 5.14062 7.57617 5.41797H6.48633C6.48633 5.10156 6.59766 4.79688 6.82031 4.50391C7.04688 4.20703 7.35156 3.97266 7.73438 3.80078C8.12109 3.62891 8.54492 3.54297 9.00586 3.54297C9.73633 3.54297 10.3086 3.72656 10.7227 4.09375C11.1367 4.45703 11.3516 4.95898 11.3672 5.59961V8.51758C11.3672 9.09961 11.4414 9.5625 11.5898 9.90625V10H10.4531ZM8.6543 9.17383C8.99414 9.17383 9.31641 9.08594 9.62109 8.91016C9.92578 8.73438 10.1465 8.50586 10.2832 8.22461V6.92383H9.43359C8.10547 6.92383 7.44141 7.3125 7.44141 8.08984C7.44141 8.42969 7.55469 8.69531 7.78125 8.88672C8.00781 9.07812 8.29883 9.17383 8.6543 9.17383ZM16.1309 4.63281C15.9668 4.60547 15.7891 4.5918 15.5977 4.5918C14.8867 4.5918 14.4043 4.89453 14.1504 5.5V10H13.0664V3.66016H14.1211L14.1387 4.39258C14.4941 3.82617 14.998 3.54297 15.6504 3.54297C15.8613 3.54297 16.0215 3.57031 16.1309 3.625V4.63281ZM4.51172 22.3184C4.51172 22.0254 4.40039 21.7988 4.17773 21.6387C3.95898 21.4746 3.57422 21.334 3.02344 21.2168C2.47656 21.0996 2.04102 20.959 1.7168 20.7949C1.39648 20.6309 1.1582 20.4355 1.00195 20.209C0.849609 19.9824 0.773438 19.7129 0.773438 19.4004C0.773438 18.8809 0.992188 18.4414 1.42969 18.082C1.87109 17.7227 2.43359 17.543 3.11719 17.543C3.83594 17.543 4.41797 17.7285 4.86328 18.0996C5.3125 18.4707 5.53711 18.9453 5.53711 19.5234H4.44727C4.44727 19.2266 4.32031 18.9707 4.06641 18.7559C3.81641 18.541 3.5 18.4336 3.11719 18.4336C2.72266 18.4336 2.41406 18.5195 2.19141 18.6914C1.96875 18.8633 1.85742 19.0879 1.85742 19.3652C1.85742 19.627 1.96094 19.8242 2.16797 19.957C2.375 20.0898 2.74805 20.2168 3.28711 20.3379C3.83008 20.459 4.26953 20.6035 4.60547 20.7715C4.94141 20.9395 5.18945 21.1426 5.34961 21.3809C5.51367 21.6152 5.5957 21.9023 5.5957 22.2422C5.5957 22.8086 5.36914 23.2637 4.91602 23.6074C4.46289 23.9473 3.875 24.1172 3.15234 24.1172C2.64453 24.1172 2.19531 24.0273 1.80469 23.8477C1.41406 23.668 1.10742 23.418 0.884766 23.0977C0.666016 22.7734 0.556641 22.4238 0.556641 22.0488H1.64062C1.66016 22.4121 1.80469 22.7012 2.07422 22.916C2.34766 23.127 2.70703 23.2324 3.15234 23.2324C3.5625 23.2324 3.89062 23.1504 4.13672 22.9863C4.38672 22.8184 4.51172 22.5957 4.51172 22.3184ZM9.63867 24.1172C8.7793 24.1172 8.08008 23.8359 7.54102 23.2734C7.00195 22.707 6.73242 21.9512 6.73242 21.0059V20.8066C6.73242 20.1777 6.85156 19.6172 7.08984 19.125C7.33203 18.6289 7.66797 18.2422 8.09766 17.9648C8.53125 17.6836 9 17.543 9.50391 17.543C10.3281 17.543 10.9688 17.8145 11.4258 18.3574C11.8828 18.9004 12.1113 19.6777 12.1113 20.6895V21.1406H7.81641C7.83203 21.7656 8.01367 22.2715 8.36133 22.6582C8.71289 23.041 9.1582 23.2324 9.69727 23.2324C10.0801 23.2324 10.4043 23.1543 10.6699 22.998C10.9355 22.8418 11.168 22.6348 11.3672 22.377L12.0293 22.8926C11.498 23.709 10.7012 24.1172 9.63867 24.1172ZM9.50391 18.4336C9.06641 18.4336 8.69922 18.5938 8.40234 18.9141C8.10547 19.2305 7.92188 19.6758 7.85156 20.25H11.0273V20.168C10.9961 19.6172 10.8477 19.1914 10.582 18.8906C10.3164 18.5859 9.95703 18.4336 9.50391 18.4336ZM14.3965 17.6602L14.4316 18.457C14.916 17.8477 15.5488 17.543 16.3301 17.543C17.6699 17.543 18.3457 18.2988 18.3574 19.8105V24H17.2734V19.8047C17.2695 19.3477 17.1641 19.0098 16.957 18.791C16.7539 18.5723 16.4355 18.4629 16.002 18.4629C15.6504 18.4629 15.3418 18.5566 15.0762 18.7441C14.8105 18.9316 14.6035 19.1777 14.4551 19.4824V24H13.3711V17.6602H14.3965ZM19.7285 20.7773C19.7285 19.8047 19.959 19.0234 20.4199 18.4336C20.8809 17.8398 21.4844 17.543 22.2305 17.543C22.9727 17.543 23.5605 17.7969 23.9941 18.3047V15H25.0781V24H24.082L24.0293 23.3203C23.5957 23.8516 22.9922 24.1172 22.2188 24.1172C21.4844 24.1172 20.8848 23.8164 20.4199 23.2148C19.959 22.6133 19.7285 21.8281 19.7285 20.8594V20.7773ZM20.8125 20.9004C20.8125 21.6191 20.9609 22.1816 21.2578 22.5879C21.5547 22.9941 21.9648 23.1973 22.4883 23.1973C23.1758 23.1973 23.6777 22.8887 23.9941 22.2715V19.3594C23.6699 18.7617 23.1719 18.4629 22.5 18.4629C21.9688 18.4629 21.5547 18.668 21.2578 19.0781C20.9609 19.4883 20.8125 20.0957 20.8125 20.9004Z" fill="#A43CD6"/>
<path d="M23.1738 4.63281C23.0098 4.60547 22.832 4.5918 22.6406 4.5918C21.9297 4.5918 21.4473 4.89453 21.1934 5.5V10H20.1094V3.66016H21.1641L21.1816 4.39258C21.5371 3.82617 22.041 3.54297 22.6934 3.54297C22.9043 3.54297 23.0645 3.57031 23.1738 3.625V4.63281ZM26.6895 10.1172C25.8301 10.1172 25.1309 9.83594 24.5918 9.27344C24.0527 8.70703 23.7832 7.95117 23.7832 7.00586V6.80664C23.7832 6.17773 23.9023 5.61719 24.1406 5.125C24.3828 4.62891 24.7188 4.24219 25.1484 3.96484C25.582 3.68359 26.0508 3.54297 26.5547 3.54297C27.3789 3.54297 28.0195 3.81445 28.4766 4.35742C28.9336 4.90039 29.1621 5.67773 29.1621 6.68945V7.14062H24.8672C24.8828 7.76562 25.0645 8.27148 25.4121 8.6582C25.7637 9.04102 26.209 9.23242 26.748 9.23242C27.1309 9.23242 27.4551 9.1543 27.7207 8.99805C27.9863 8.8418 28.2188 8.63477 28.418 8.37695L29.0801 8.89258C28.5488 9.70898 27.752 10.1172 26.6895 10.1172ZM26.5547 4.43359C26.1172 4.43359 25.75 4.59375 25.4531 4.91406C25.1562 5.23047 24.9727 5.67578 24.9023 6.25H28.0781V6.16797C28.0469 5.61719 27.8984 5.19141 27.6328 4.89062C27.3672 4.58594 27.0078 4.43359 26.5547 4.43359ZM34.1133 8.31836C34.1133 8.02539 34.002 7.79883 33.7793 7.63867C33.5605 7.47461 33.1758 7.33398 32.625 7.2168C32.0781 7.09961 31.6426 6.95898 31.3184 6.79492C30.998 6.63086 30.7598 6.43555 30.6035 6.20898C30.4512 5.98242 30.375 5.71289 30.375 5.40039C30.375 4.88086 30.5938 4.44141 31.0312 4.08203C31.4727 3.72266 32.0352 3.54297 32.7188 3.54297C33.4375 3.54297 34.0195 3.72852 34.4648 4.09961C34.9141 4.4707 35.1387 4.94531 35.1387 5.52344H34.0488C34.0488 5.22656 33.9219 4.9707 33.668 4.75586C33.418 4.54102 33.1016 4.43359 32.7188 4.43359C32.3242 4.43359 32.0156 4.51953 31.793 4.69141C31.5703 4.86328 31.459 5.08789 31.459 5.36523C31.459 5.62695 31.5625 5.82422 31.7695 5.95703C31.9766 6.08984 32.3496 6.2168 32.8887 6.33789C33.4316 6.45898 33.8711 6.60352 34.207 6.77148C34.543 6.93945 34.791 7.14258 34.9512 7.38086C35.1152 7.61523 35.1973 7.90234 35.1973 8.24219C35.1973 8.80859 34.9707 9.26367 34.5176 9.60742C34.0645 9.94727 33.4766 10.1172 32.7539 10.1172C32.2461 10.1172 31.7969 10.0273 31.4062 9.84766C31.0156 9.66797 30.709 9.41797 30.4863 9.09766C30.2676 8.77344 30.1582 8.42383 30.1582 8.04883H31.2422C31.2617 8.41211 31.4062 8.70117 31.6758 8.91602C31.9492 9.12695 32.3086 9.23242 32.7539 9.23242C33.1641 9.23242 33.4922 9.15039 33.7383 8.98633C33.9883 8.81836 34.1133 8.5957 34.1133 8.31836ZM41.9648 6.90039C41.9648 7.86523 41.7441 8.64258 41.3027 9.23242C40.8613 9.82227 40.2637 10.1172 39.5098 10.1172C38.7402 10.1172 38.1348 9.87305 37.6934 9.38477V12.4375H36.6094V3.66016H37.5996L37.6523 4.36328C38.0938 3.81641 38.707 3.54297 39.4922 3.54297C40.2539 3.54297 40.8555 3.83008 41.2969 4.4043C41.7422 4.97852 41.9648 5.77734 41.9648 6.80078V6.90039ZM40.8809 6.77734C40.8809 6.0625 40.7285 5.49805 40.4238 5.08398C40.1191 4.66992 39.7012 4.46289 39.1699 4.46289C38.5137 4.46289 38.0215 4.75391 37.6934 5.33594V8.36523C38.0176 8.94336 38.5137 9.23242 39.1816 9.23242C39.7012 9.23242 40.1133 9.02734 40.418 8.61719C40.7266 8.20312 40.8809 7.58984 40.8809 6.77734ZM43.0605 6.77148C43.0605 6.15039 43.1816 5.5918 43.4238 5.0957C43.6699 4.59961 44.0098 4.2168 44.4434 3.94727C44.8809 3.67773 45.3789 3.54297 45.9375 3.54297C46.8008 3.54297 47.498 3.8418 48.0293 4.43945C48.5645 5.03711 48.832 5.83203 48.832 6.82422V6.90039C48.832 7.51758 48.7129 8.07227 48.4746 8.56445C48.2402 9.05273 47.9023 9.43359 47.4609 9.70703C47.0234 9.98047 46.5195 10.1172 45.9492 10.1172C45.0898 10.1172 44.3926 9.81836 43.8574 9.2207C43.3262 8.62305 43.0605 7.83203 43.0605 6.84766V6.77148ZM44.1504 6.90039C44.1504 7.60352 44.3125 8.16797 44.6367 8.59375C44.9648 9.01953 45.4023 9.23242 45.9492 9.23242C46.5 9.23242 46.9375 9.01758 47.2617 8.58789C47.5859 8.1543 47.748 7.54883 47.748 6.77148C47.748 6.07617 47.582 5.51367 47.25 5.08398C46.9219 4.65039 46.4844 4.43359 45.9375 4.43359C45.4023 4.43359 44.9707 4.64648 44.6426 5.07227C44.3145 5.49805 44.1504 6.10742 44.1504 6.90039ZM51.2168 3.66016L51.252 4.45703C51.7363 3.84766 52.3691 3.54297 53.1504 3.54297C54.4902 3.54297 55.166 4.29883 55.1777 5.81055V10H54.0938V5.80469C54.0898 5.34766 53.9844 5.00977 53.7773 4.79102C53.5742 4.57227 53.2559 4.46289 52.8223 4.46289C52.4707 4.46289 52.1621 4.55664 51.8965 4.74414C51.6309 4.93164 51.4238 5.17773 51.2754 5.48242V10H50.1914V3.66016H51.2168ZM60.5039 8.31836C60.5039 8.02539 60.3926 7.79883 60.1699 7.63867C59.9512 7.47461 59.5664 7.33398 59.0156 7.2168C58.4688 7.09961 58.0332 6.95898 57.709 6.79492C57.3887 6.63086 57.1504 6.43555 56.9941 6.20898C56.8418 5.98242 56.7656 5.71289 56.7656 5.40039C56.7656 4.88086 56.9844 4.44141 57.4219 4.08203C57.8633 3.72266 58.4258 3.54297 59.1094 3.54297C59.8281 3.54297 60.4102 3.72852 60.8555 4.09961C61.3047 4.4707 61.5293 4.94531 61.5293 5.52344H60.4395C60.4395 5.22656 60.3125 4.9707 60.0586 4.75586C59.8086 4.54102 59.4922 4.43359 59.1094 4.43359C58.7148 4.43359 58.4062 4.51953 58.1836 4.69141C57.9609 4.86328 57.8496 5.08789 57.8496 5.36523C57.8496 5.62695 57.9531 5.82422 58.1602 5.95703C58.3672 6.08984 58.7402 6.2168 59.2793 6.33789C59.8223 6.45898 60.2617 6.60352 60.5977 6.77148C60.9336 6.93945 61.1816 7.14258 61.3418 7.38086C61.5059 7.61523 61.5879 7.90234 61.5879 8.24219C61.5879 8.80859 61.3613 9.26367 60.9082 9.60742C60.4551 9.94727 59.8672 10.1172 59.1445 10.1172C58.6367 10.1172 58.1875 10.0273 57.7969 9.84766C57.4062 9.66797 57.0996 9.41797 56.877 9.09766C56.6582 8.77344 56.5488 8.42383 56.5488 8.04883H57.6328C57.6523 8.41211 57.7969 8.70117 58.0664 8.91602C58.3398 9.12695 58.6992 9.23242 59.1445 9.23242C59.5547 9.23242 59.8828 9.15039 60.1289 8.98633C60.3789 8.81836 60.5039 8.5957 60.5039 8.31836ZM65.6309 10.1172C64.7715 10.1172 64.0723 9.83594 63.5332 9.27344C62.9941 8.70703 62.7246 7.95117 62.7246 7.00586V6.80664C62.7246 6.17773 62.8438 5.61719 63.082 5.125C63.3242 4.62891 63.6602 4.24219 64.0898 3.96484C64.5234 3.68359 64.9922 3.54297 65.4961 3.54297C66.3203 3.54297 66.9609 3.81445 67.418 4.35742C67.875 4.90039 68.1035 5.67773 68.1035 6.68945V7.14062H63.8086C63.8242 7.76562 64.0059 8.27148 64.3535 8.6582C64.7051 9.04102 65.1504 9.23242 65.6895 9.23242C66.0723 9.23242 66.3965 9.1543 66.6621 8.99805C66.9277 8.8418 67.1602 8.63477 67.3594 8.37695L68.0215 8.89258C67.4902 9.70898 66.6934 10.1172 65.6309 10.1172ZM65.4961 4.43359C65.0586 4.43359 64.6914 4.59375 64.3945 4.91406C64.0977 5.23047 63.9141 5.67578 63.8438 6.25H67.0195V6.16797C66.9883 5.61719 66.8398 5.19141 66.5742 4.89062C66.3086 4.58594 65.9492 4.43359 65.4961 4.43359ZM73.1484 0.888672L73.7695 1.31055C73.4062 1.80664 73.2188 2.3418 73.207 2.91602V3.71289H72.1289V3.0332C72.1289 2.63477 72.2227 2.24023 72.4102 1.84961C72.6016 1.45898 72.8477 1.13867 73.1484 0.888672ZM74.9941 0.888672L75.6152 1.31055C75.252 1.80664 75.0645 2.3418 75.0527 2.91602V3.71289H73.9746V3.0332C73.9746 2.63477 74.0684 2.24023 74.2559 1.84961C74.4473 1.45898 74.6934 1.13867 74.9941 0.888672ZM76.752 10V1.46875H79.1602C79.9023 1.46875 80.5586 1.63281 81.1289 1.96094C81.6992 2.28906 82.1387 2.75586 82.4473 3.36133C82.7598 3.9668 82.918 4.66211 82.9219 5.44727V5.99219C82.9219 6.79688 82.7656 7.50195 82.4531 8.10742C82.1445 8.71289 81.7012 9.17773 81.123 9.50195C80.5488 9.82617 79.8789 9.99219 79.1133 10H76.752ZM77.877 2.39453V9.08008H79.0605C79.9277 9.08008 80.6016 8.81055 81.082 8.27148C81.5664 7.73242 81.8086 6.96484 81.8086 5.96875V5.4707C81.8086 4.50195 81.5801 3.75 81.123 3.21484C80.6699 2.67578 80.0254 2.40234 79.1895 2.39453H77.877ZM87.1406 6.19727C86.1758 5.91992 85.4727 5.58008 85.0312 5.17773C84.5938 4.77148 84.375 4.27148 84.375 3.67773C84.375 3.00586 84.6426 2.45117 85.1777 2.01367C85.7168 1.57227 86.416 1.35156 87.2754 1.35156C87.8613 1.35156 88.3828 1.46484 88.8398 1.69141C89.3008 1.91797 89.6562 2.23047 89.9062 2.62891C90.1602 3.02734 90.2871 3.46289 90.2871 3.93555H89.1562C89.1562 3.41992 88.9922 3.01562 88.6641 2.72266C88.3359 2.42578 87.873 2.27734 87.2754 2.27734C86.7207 2.27734 86.2871 2.40039 85.9746 2.64648C85.666 2.88867 85.5117 3.22656 85.5117 3.66016C85.5117 4.00781 85.6582 4.30273 85.9512 4.54492C86.248 4.7832 86.75 5.00195 87.457 5.20117C88.168 5.40039 88.7227 5.62109 89.1211 5.86328C89.5234 6.10156 89.8203 6.38086 90.0117 6.70117C90.207 7.02148 90.3047 7.39844 90.3047 7.83203C90.3047 8.52344 90.0352 9.07812 89.4961 9.49609C88.957 9.91016 88.2363 10.1172 87.334 10.1172C86.748 10.1172 86.2012 10.0059 85.6934 9.7832C85.1855 9.55664 84.793 9.24805 84.5156 8.85742C84.2422 8.4668 84.1055 8.02344 84.1055 7.52734H85.2363C85.2363 8.04297 85.4258 8.45117 85.8047 8.75195C86.1875 9.04883 86.6973 9.19727 87.334 9.19727C87.9277 9.19727 88.3828 9.07617 88.6992 8.83398C89.0156 8.5918 89.1738 8.26172 89.1738 7.84375C89.1738 7.42578 89.0273 7.10352 88.7344 6.87695C88.4414 6.64648 87.9102 6.41992 87.1406 6.19727ZM94.125 9.23242C94.5117 9.23242 94.8496 9.11523 95.1387 8.88086C95.4277 8.64648 95.5879 8.35352 95.6191 8.00195H96.6445C96.625 8.36523 96.5 8.71094 96.2695 9.03906C96.0391 9.36719 95.7305 9.62891 95.3438 9.82422C94.9609 10.0195 94.5547 10.1172 94.125 10.1172C93.2617 10.1172 92.5742 9.83008 92.0625 9.25586C91.5547 8.67773 91.3008 7.88867 91.3008 6.88867V6.70703C91.3008 6.08984 91.4141 5.54102 91.6406 5.06055C91.8672 4.58008 92.1914 4.20703 92.6133 3.94141C93.0391 3.67578 93.541 3.54297 94.1191 3.54297C94.8301 3.54297 95.4199 3.75586 95.8887 4.18164C96.3613 4.60742 96.6133 5.16016 96.6445 5.83984H95.6191C95.5879 5.42969 95.4316 5.09375 95.1504 4.83203C94.873 4.56641 94.5293 4.43359 94.1191 4.43359C93.5684 4.43359 93.1406 4.63281 92.8359 5.03125C92.5352 5.42578 92.3848 5.99805 92.3848 6.74805V6.95312C92.3848 7.68359 92.5352 8.24609 92.8359 8.64062C93.1367 9.03516 93.5664 9.23242 94.125 9.23242ZM100.928 4.63281C100.764 4.60547 100.586 4.5918 100.395 4.5918C99.6836 4.5918 99.2012 4.89453 98.9473 5.5V10H97.8633V3.66016H98.918L98.9355 4.39258C99.291 3.82617 99.7949 3.54297 100.447 3.54297C100.658 3.54297 100.818 3.57031 100.928 3.625V4.63281ZM103.107 10H102.023V3.66016H103.107V10ZM101.936 1.97852C101.936 1.80273 101.988 1.6543 102.094 1.5332C102.203 1.41211 102.363 1.35156 102.574 1.35156C102.785 1.35156 102.945 1.41211 103.055 1.5332C103.164 1.6543 103.219 1.80273 103.219 1.97852C103.219 2.1543 103.164 2.30078 103.055 2.41797C102.945 2.53516 102.785 2.59375 102.574 2.59375C102.363 2.59375 102.203 2.53516 102.094 2.41797C101.988 2.30078 101.936 2.1543 101.936 1.97852ZM110.203 6.90039C110.203 7.86523 109.982 8.64258 109.541 9.23242C109.1 9.82227 108.502 10.1172 107.748 10.1172C106.979 10.1172 106.373 9.87305 105.932 9.38477V12.4375H104.848V3.66016H105.838L105.891 4.36328C106.332 3.81641 106.945 3.54297 107.73 3.54297C108.492 3.54297 109.094 3.83008 109.535 4.4043C109.98 4.97852 110.203 5.77734 110.203 6.80078V6.90039ZM109.119 6.77734C109.119 6.0625 108.967 5.49805 108.662 5.08398C108.357 4.66992 107.939 4.46289 107.408 4.46289C106.752 4.46289 106.26 4.75391 105.932 5.33594V8.36523C106.256 8.94336 106.752 9.23242 107.42 9.23242C107.939 9.23242 108.352 9.02734 108.656 8.61719C108.965 8.20312 109.119 7.58984 109.119 6.77734ZM113.057 2.125V3.66016H114.24V4.49805H113.057V8.42969C113.057 8.68359 113.109 8.875 113.215 9.00391C113.32 9.12891 113.5 9.19141 113.754 9.19141C113.879 9.19141 114.051 9.16797 114.27 9.12109V10C113.984 10.0781 113.707 10.1172 113.438 10.1172C112.953 10.1172 112.588 9.9707 112.342 9.67773C112.096 9.38477 111.973 8.96875 111.973 8.42969V4.49805H110.818V3.66016H111.973V2.125H113.057ZM119.865 10H118.74V1.46875H119.865V10ZM125.449 8.31836C125.449 8.02539 125.338 7.79883 125.115 7.63867C124.896 7.47461 124.512 7.33398 123.961 7.2168C123.414 7.09961 122.979 6.95898 122.654 6.79492C122.334 6.63086 122.096 6.43555 121.939 6.20898C121.787 5.98242 121.711 5.71289 121.711 5.40039C121.711 4.88086 121.93 4.44141 122.367 4.08203C122.809 3.72266 123.371 3.54297 124.055 3.54297C124.773 3.54297 125.355 3.72852 125.801 4.09961C126.25 4.4707 126.475 4.94531 126.475 5.52344H125.385C125.385 5.22656 125.258 4.9707 125.004 4.75586C124.754 4.54102 124.438 4.43359 124.055 4.43359C123.66 4.43359 123.352 4.51953 123.129 4.69141C122.906 4.86328 122.795 5.08789 122.795 5.36523C122.795 5.62695 122.898 5.82422 123.105 5.95703C123.312 6.08984 123.686 6.2168 124.225 6.33789C124.768 6.45898 125.207 6.60352 125.543 6.77148C125.879 6.93945 126.127 7.14258 126.287 7.38086C126.451 7.61523 126.533 7.90234 126.533 8.24219C126.533 8.80859 126.307 9.26367 125.854 9.60742C125.4 9.94727 124.812 10.1172 124.09 10.1172C123.582 10.1172 123.133 10.0273 122.742 9.84766C122.352 9.66797 122.045 9.41797 121.822 9.09766C121.604 8.77344 121.494 8.42383 121.494 8.04883H122.578C122.598 8.41211 122.742 8.70117 123.012 8.91602C123.285 9.12695 123.645 9.23242 124.09 9.23242C124.5 9.23242 124.828 9.15039 125.074 8.98633C125.324 8.81836 125.449 8.5957 125.449 8.31836ZM135.803 7.77344H132.229L131.426 10H130.266L133.523 1.46875H134.508L137.771 10H136.617L135.803 7.77344ZM132.568 6.84766H135.469L134.016 2.85742L132.568 6.84766ZM144.164 8.50586L145.383 3.66016H146.467L144.621 10H143.742L142.201 5.19531L140.701 10H139.822L137.982 3.66016H139.061L140.309 8.40625L141.785 3.66016H142.658L144.164 8.50586ZM150.205 10.1172C149.346 10.1172 148.646 9.83594 148.107 9.27344C147.568 8.70703 147.299 7.95117 147.299 7.00586V6.80664C147.299 6.17773 147.418 5.61719 147.656 5.125C147.898 4.62891 148.234 4.24219 148.664 3.96484C149.098 3.68359 149.566 3.54297 150.07 3.54297C150.895 3.54297 151.535 3.81445 151.992 4.35742C152.449 4.90039 152.678 5.67773 152.678 6.68945V7.14062H148.383C148.398 7.76562 148.58 8.27148 148.928 8.6582C149.279 9.04102 149.725 9.23242 150.264 9.23242C150.646 9.23242 150.971 9.1543 151.236 8.99805C151.502 8.8418 151.734 8.63477 151.934 8.37695L152.596 8.89258C152.064 9.70898 151.268 10.1172 150.205 10.1172ZM150.07 4.43359C149.633 4.43359 149.266 4.59375 148.969 4.91406C148.672 5.23047 148.488 5.67578 148.418 6.25H151.594V6.16797C151.562 5.61719 151.414 5.19141 151.148 4.89062C150.883 4.58594 150.523 4.43359 150.07 4.43359ZM157.629 8.31836C157.629 8.02539 157.518 7.79883 157.295 7.63867C157.076 7.47461 156.691 7.33398 156.141 7.2168C155.594 7.09961 155.158 6.95898 154.834 6.79492C154.514 6.63086 154.275 6.43555 154.119 6.20898C153.967 5.98242 153.891 5.71289 153.891 5.40039C153.891 4.88086 154.109 4.44141 154.547 4.08203C154.988 3.72266 155.551 3.54297 156.234 3.54297C156.953 3.54297 157.535 3.72852 157.98 4.09961C158.43 4.4707 158.654 4.94531 158.654 5.52344H157.564C157.564 5.22656 157.438 4.9707 157.184 4.75586C156.934 4.54102 156.617 4.43359 156.234 4.43359C155.84 4.43359 155.531 4.51953 155.309 4.69141C155.086 4.86328 154.975 5.08789 154.975 5.36523C154.975 5.62695 155.078 5.82422 155.285 5.95703C155.492 6.08984 155.865 6.2168 156.404 6.33789C156.947 6.45898 157.387 6.60352 157.723 6.77148C158.059 6.93945 158.307 7.14258 158.467 7.38086C158.631 7.61523 158.713 7.90234 158.713 8.24219C158.713 8.80859 158.486 9.26367 158.033 9.60742C157.58 9.94727 156.992 10.1172 156.27 10.1172C155.762 10.1172 155.312 10.0273 154.922 9.84766C154.531 9.66797 154.225 9.41797 154.002 9.09766C153.783 8.77344 153.674 8.42383 153.674 8.04883H154.758C154.777 8.41211 154.922 8.70117 155.191 8.91602C155.465 9.12695 155.824 9.23242 156.27 9.23242C156.68 9.23242 157.008 9.15039 157.254 8.98633C157.504 8.81836 157.629 8.5957 157.629 8.31836ZM159.838 6.77148C159.838 6.15039 159.959 5.5918 160.201 5.0957C160.447 4.59961 160.787 4.2168 161.221 3.94727C161.658 3.67773 162.156 3.54297 162.715 3.54297C163.578 3.54297 164.275 3.8418 164.807 4.43945C165.342 5.03711 165.609 5.83203 165.609 6.82422V6.90039C165.609 7.51758 165.49 8.07227 165.252 8.56445C165.018 9.05273 164.68 9.43359 164.238 9.70703C163.801 9.98047 163.297 10.1172 162.727 10.1172C161.867 10.1172 161.17 9.81836 160.635 9.2207C160.104 8.62305 159.838 7.83203 159.838 6.84766V6.77148ZM160.928 6.90039C160.928 7.60352 161.09 8.16797 161.414 8.59375C161.742 9.01953 162.18 9.23242 162.727 9.23242C163.277 9.23242 163.715 9.01758 164.039 8.58789C164.363 8.1543 164.525 7.54883 164.525 6.77148C164.525 6.07617 164.359 5.51367 164.027 5.08398C163.699 4.65039 163.262 4.43359 162.715 4.43359C162.18 4.43359 161.748 4.64648 161.42 5.07227C161.092 5.49805 160.928 6.10742 160.928 6.90039ZM167.988 3.66016L168.018 4.36328C168.482 3.81641 169.109 3.54297 169.898 3.54297C170.785 3.54297 171.389 3.88281 171.709 4.5625C171.92 4.25781 172.193 4.01172 172.529 3.82422C172.869 3.63672 173.27 3.54297 173.73 3.54297C175.121 3.54297 175.828 4.2793 175.852 5.75195V10H174.768V5.81641C174.768 5.36328 174.664 5.02539 174.457 4.80273C174.25 4.57617 173.902 4.46289 173.414 4.46289C173.012 4.46289 172.678 4.58398 172.412 4.82617C172.146 5.06445 171.992 5.38672 171.949 5.79297V10H170.859V5.8457C170.859 4.92383 170.408 4.46289 169.506 4.46289C168.795 4.46289 168.309 4.76562 168.047 5.37109V10H166.963V3.66016H167.988ZM180.123 10.1172C179.264 10.1172 178.564 9.83594 178.025 9.27344C177.486 8.70703 177.217 7.95117 177.217 7.00586V6.80664C177.217 6.17773 177.336 5.61719 177.574 5.125C177.816 4.62891 178.152 4.24219 178.582 3.96484C179.016 3.68359 179.484 3.54297 179.988 3.54297C180.812 3.54297 181.453 3.81445 181.91 4.35742C182.367 4.90039 182.596 5.67773 182.596 6.68945V7.14062H178.301C178.316 7.76562 178.498 8.27148 178.846 8.6582C179.197 9.04102 179.643 9.23242 180.182 9.23242C180.564 9.23242 180.889 9.1543 181.154 8.99805C181.42 8.8418 181.652 8.63477 181.852 8.37695L182.514 8.89258C181.982 9.70898 181.186 10.1172 180.123 10.1172ZM179.988 4.43359C179.551 4.43359 179.184 4.59375 178.887 4.91406C178.59 5.23047 178.406 5.67578 178.336 6.25H181.512V6.16797C181.48 5.61719 181.332 5.19141 181.066 4.89062C180.801 4.58594 180.441 4.43359 179.988 4.43359ZM185.068 7.5918H184.09L184.014 1.46875H185.15L185.068 7.5918ZM183.973 9.45508C183.973 9.2793 184.025 9.13281 184.131 9.01562C184.24 8.89453 184.4 8.83398 184.611 8.83398C184.822 8.83398 184.982 8.89453 185.092 9.01562C185.201 9.13281 185.256 9.2793 185.256 9.45508C185.256 9.63086 185.201 9.77734 185.092 9.89453C184.982 10.0078 184.822 10.0645 184.611 10.0645C184.4 10.0645 184.24 10.0078 184.131 9.89453C184.025 9.77734 183.973 9.63086 183.973 9.45508ZM188.162 7.5918H187.184L187.107 1.46875H188.244L188.162 7.5918ZM187.066 9.45508C187.066 9.2793 187.119 9.13281 187.225 9.01562C187.334 8.89453 187.494 8.83398 187.705 8.83398C187.916 8.83398 188.076 8.89453 188.186 9.01562C188.295 9.13281 188.35 9.2793 188.35 9.45508C188.35 9.63086 188.295 9.77734 188.186 9.89453C188.076 10.0078 187.916 10.0645 187.705 10.0645C187.494 10.0645 187.334 10.0078 187.225 9.89453C187.119 9.77734 187.066 9.63086 187.066 9.45508ZM190.189 3.87109L189.574 3.44922C189.938 2.94141 190.125 2.40625 190.137 1.84375V1H191.209V1.76172C191.205 2.15234 191.107 2.54297 190.916 2.93359C190.729 3.32031 190.486 3.63281 190.189 3.87109ZM191.988 3.87109L191.373 3.44922C191.736 2.94141 191.924 2.40625 191.936 1.84375V1H193.008V1.76172C193.004 2.15234 192.906 2.54297 192.715 2.93359C192.527 3.32031 192.285 3.63281 191.988 3.87109ZM39.5449 18.6328C39.3809 18.6055 39.2031 18.5918 39.0117 18.5918C38.3008 18.5918 37.8184 18.8945 37.5645 19.5V24H36.4805V17.6602H37.5352L37.5527 18.3926C37.9082 17.8262 38.4121 17.543 39.0645 17.543C39.2754 17.543 39.4355 17.5703 39.5449 17.625V18.6328ZM43.0605 24.1172C42.2012 24.1172 41.502 23.8359 40.9629 23.2734C40.4238 22.707 40.1543 21.9512 40.1543 21.0059V20.8066C40.1543 20.1777 40.2734 19.6172 40.5117 19.125C40.7539 18.6289 41.0898 18.2422 41.5195 17.9648C41.9531 17.6836 42.4219 17.543 42.9258 17.543C43.75 17.543 44.3906 17.8145 44.8477 18.3574C45.3047 18.9004 45.5332 19.6777 45.5332 20.6895V21.1406H41.2383C41.2539 21.7656 41.4355 22.2715 41.7832 22.6582C42.1348 23.041 42.5801 23.2324 43.1191 23.2324C43.502 23.2324 43.8262 23.1543 44.0918 22.998C44.3574 22.8418 44.5898 22.6348 44.7891 22.377L45.4512 22.8926C44.9199 23.709 44.123 24.1172 43.0605 24.1172ZM42.9258 18.4336C42.4883 18.4336 42.1211 18.5938 41.8242 18.9141C41.5273 19.2305 41.3438 19.6758 41.2734 20.25H44.4492V20.168C44.418 19.6172 44.2695 19.1914 44.0039 18.8906C43.7383 18.5859 43.3789 18.4336 42.9258 18.4336ZM50.4844 22.3184C50.4844 22.0254 50.373 21.7988 50.1504 21.6387C49.9316 21.4746 49.5469 21.334 48.9961 21.2168C48.4492 21.0996 48.0137 20.959 47.6895 20.7949C47.3691 20.6309 47.1309 20.4355 46.9746 20.209C46.8223 19.9824 46.7461 19.7129 46.7461 19.4004C46.7461 18.8809 46.9648 18.4414 47.4023 18.082C47.8438 17.7227 48.4062 17.543 49.0898 17.543C49.8086 17.543 50.3906 17.7285 50.8359 18.0996C51.2852 18.4707 51.5098 18.9453 51.5098 19.5234H50.4199C50.4199 19.2266 50.293 18.9707 50.0391 18.7559C49.7891 18.541 49.4727 18.4336 49.0898 18.4336C48.6953 18.4336 48.3867 18.5195 48.1641 18.6914C47.9414 18.8633 47.8301 19.0879 47.8301 19.3652C47.8301 19.627 47.9336 19.8242 48.1406 19.957C48.3477 20.0898 48.7207 20.2168 49.2598 20.3379C49.8027 20.459 50.2422 20.6035 50.5781 20.7715C50.9141 20.9395 51.1621 21.1426 51.3223 21.3809C51.4863 21.6152 51.5684 21.9023 51.5684 22.2422C51.5684 22.8086 51.3418 23.2637 50.8887 23.6074C50.4355 23.9473 49.8477 24.1172 49.125 24.1172C48.6172 24.1172 48.168 24.0273 47.7773 23.8477C47.3867 23.668 47.0801 23.418 46.8574 23.0977C46.6387 22.7734 46.5293 22.4238 46.5293 22.0488H47.6133C47.6328 22.4121 47.7773 22.7012 48.0469 22.916C48.3203 23.127 48.6797 23.2324 49.125 23.2324C49.5352 23.2324 49.8633 23.1504 50.1094 22.9863C50.3594 22.8184 50.4844 22.5957 50.4844 22.3184ZM58.3359 20.9004C58.3359 21.8652 58.1152 22.6426 57.6738 23.2324C57.2324 23.8223 56.6348 24.1172 55.8809 24.1172C55.1113 24.1172 54.5059 23.873 54.0645 23.3848V26.4375H52.9805V17.6602H53.9707L54.0234 18.3633C54.4648 17.8164 55.0781 17.543 55.8633 17.543C56.625 17.543 57.2266 17.8301 57.668 18.4043C58.1133 18.9785 58.3359 19.7773 58.3359 20.8008V20.9004ZM57.252 20.7773C57.252 20.0625 57.0996 19.498 56.7949 19.084C56.4902 18.6699 56.0723 18.4629 55.541 18.4629C54.8848 18.4629 54.3926 18.7539 54.0645 19.3359V22.3652C54.3887 22.9434 54.8848 23.2324 55.5527 23.2324C56.0723 23.2324 56.4844 23.0273 56.7891 22.6172C57.0977 22.2031 57.252 21.5898 57.252 20.7773ZM59.4316 20.7715C59.4316 20.1504 59.5527 19.5918 59.7949 19.0957C60.041 18.5996 60.3809 18.2168 60.8145 17.9473C61.252 17.6777 61.75 17.543 62.3086 17.543C63.1719 17.543 63.8691 17.8418 64.4004 18.4395C64.9355 19.0371 65.2031 19.832 65.2031 20.8242V20.9004C65.2031 21.5176 65.084 22.0723 64.8457 22.5645C64.6113 23.0527 64.2734 23.4336 63.832 23.707C63.3945 23.9805 62.8906 24.1172 62.3203 24.1172C61.4609 24.1172 60.7637 23.8184 60.2285 23.2207C59.6973 22.623 59.4316 21.832 59.4316 20.8477V20.7715ZM60.5215 20.9004C60.5215 21.6035 60.6836 22.168 61.0078 22.5938C61.3359 23.0195 61.7734 23.2324 62.3203 23.2324C62.8711 23.2324 63.3086 23.0176 63.6328 22.5879C63.957 22.1543 64.1191 21.5488 64.1191 20.7715C64.1191 20.0762 63.9531 19.5137 63.6211 19.084C63.293 18.6504 62.8555 18.4336 62.3086 18.4336C61.7734 18.4336 61.3418 18.6465 61.0137 19.0723C60.6855 19.498 60.5215 20.1074 60.5215 20.9004ZM67.5879 17.6602L67.623 18.457C68.1074 17.8477 68.7402 17.543 69.5215 17.543C70.8613 17.543 71.5371 18.2988 71.5488 19.8105V24H70.4648V19.8047C70.4609 19.3477 70.3555 19.0098 70.1484 18.791C69.9453 18.5723 69.627 18.4629 69.1934 18.4629C68.8418 18.4629 68.5332 18.5566 68.2676 18.7441C68.002 18.9316 67.7949 19.1777 67.6465 19.4824V24H66.5625V17.6602H67.5879ZM76.875 22.3184C76.875 22.0254 76.7637 21.7988 76.541 21.6387C76.3223 21.4746 75.9375 21.334 75.3867 21.2168C74.8398 21.0996 74.4043 20.959 74.0801 20.7949C73.7598 20.6309 73.5215 20.4355 73.3652 20.209C73.2129 19.9824 73.1367 19.7129 73.1367 19.4004C73.1367 18.8809 73.3555 18.4414 73.793 18.082C74.2344 17.7227 74.7969 17.543 75.4805 17.543C76.1992 17.543 76.7812 17.7285 77.2266 18.0996C77.6758 18.4707 77.9004 18.9453 77.9004 19.5234H76.8105C76.8105 19.2266 76.6836 18.9707 76.4297 18.7559C76.1797 18.541 75.8633 18.4336 75.4805 18.4336C75.0859 18.4336 74.7773 18.5195 74.5547 18.6914C74.332 18.8633 74.2207 19.0879 74.2207 19.3652C74.2207 19.627 74.3242 19.8242 74.5312 19.957C74.7383 20.0898 75.1113 20.2168 75.6504 20.3379C76.1934 20.459 76.6328 20.6035 76.9688 20.7715C77.3047 20.9395 77.5527 21.1426 77.7129 21.3809C77.877 21.6152 77.959 21.9023 77.959 22.2422C77.959 22.8086 77.7324 23.2637 77.2793 23.6074C76.8262 23.9473 76.2383 24.1172 75.5156 24.1172C75.0078 24.1172 74.5586 24.0273 74.168 23.8477C73.7773 23.668 73.4707 23.418 73.248 23.0977C73.0293 22.7734 72.9199 22.4238 72.9199 22.0488H74.0039C74.0234 22.4121 74.168 22.7012 74.4375 22.916C74.7109 23.127 75.0703 23.2324 75.5156 23.2324C75.9258 23.2324 76.2539 23.1504 76.5 22.9863C76.75 22.8184 76.875 22.5957 76.875 22.3184ZM82.002 24.1172C81.1426 24.1172 80.4434 23.8359 79.9043 23.2734C79.3652 22.707 79.0957 21.9512 79.0957 21.0059V20.8066C79.0957 20.1777 79.2148 19.6172 79.4531 19.125C79.6953 18.6289 80.0312 18.2422 80.4609 17.9648C80.8945 17.6836 81.3633 17.543 81.8672 17.543C82.6914 17.543 83.332 17.8145 83.7891 18.3574C84.2461 18.9004 84.4746 19.6777 84.4746 20.6895V21.1406H80.1797C80.1953 21.7656 80.377 22.2715 80.7246 22.6582C81.0762 23.041 81.5215 23.2324 82.0605 23.2324C82.4434 23.2324 82.7676 23.1543 83.0332 22.998C83.2988 22.8418 83.5312 22.6348 83.7305 22.377L84.3926 22.8926C83.8613 23.709 83.0645 24.1172 82.002 24.1172ZM81.8672 18.4336C81.4297 18.4336 81.0625 18.5938 80.7656 18.9141C80.4688 19.2305 80.2852 19.6758 80.2148 20.25H83.3906V20.168C83.3594 19.6172 83.2109 19.1914 82.9453 18.8906C82.6797 18.5859 82.3203 18.4336 81.8672 18.4336Z" fill="black"/>
<path d="M33.9375 21.8027C33.9375 21.4434 33.8105 21.1406 33.5566 20.8945C33.3066 20.6484 32.8828 20.4258 32.2852 20.2266C31.4531 19.9727 30.8457 19.6426 30.4629 19.2363C30.084 18.8262 29.8945 18.3066 29.8945 17.6777C29.8945 17.0371 30.0801 16.5117 30.4512 16.1016C30.8262 15.6914 31.3398 15.4473 31.9922 15.3691V14.0859H32.8652V15.375C33.5215 15.4648 34.0312 15.7402 34.3945 16.2012C34.7617 16.6621 34.9453 17.293 34.9453 18.0938H33.8672C33.8672 17.543 33.7363 17.1055 33.4746 16.7812C33.2129 16.457 32.8594 16.2949 32.4141 16.2949C31.9492 16.2949 31.5938 16.416 31.3477 16.6582C31.1016 16.8965 30.9785 17.2305 30.9785 17.6602C30.9785 18.0586 31.1074 18.377 31.3652 18.6152C31.627 18.8496 32.0547 19.0645 32.6484 19.2598C33.2461 19.4512 33.7109 19.6641 34.043 19.8984C34.3789 20.1289 34.625 20.3984 34.7812 20.707C34.9414 21.0156 35.0215 21.377 35.0215 21.791C35.0215 22.4512 34.8223 22.9824 34.4238 23.3848C34.0293 23.7871 33.4746 24.0254 32.7598 24.0996V25.2188H31.8926V24.0996C31.166 24.0332 30.5957 23.7754 30.1816 23.3262C29.7715 22.873 29.5664 22.2598 29.5664 21.4863H30.6504C30.6504 22.0293 30.793 22.4473 31.0781 22.7402C31.3633 23.0332 31.7676 23.1797 32.291 23.1797C32.8027 23.1797 33.2051 23.0566 33.498 22.8105C33.791 22.5645 33.9375 22.2285 33.9375 21.8027Z" fill="#0784F8"/>
</svg>
