<svg width="294" height="176" viewBox="0 0 294 176" fill="none" xmlns="http://www.w3.org/2000/svg">
<path d="M42.9121 85.5293L44.4824 80.6602H45.5898L43.3164 87H42.4902L40.1934 80.6602H41.3008L42.9121 85.5293ZM50.4531 87C50.3906 86.875 50.3398 86.6523 50.3008 86.332C49.7969 86.8555 49.1953 87.1172 48.4961 87.1172C47.8711 87.1172 47.3574 86.9414 46.9551 86.5898C46.5566 86.2344 46.3574 85.7852 46.3574 85.2422C46.3574 84.582 46.6074 84.0703 47.1074 83.707C47.6113 83.3398 48.3184 83.1562 49.2285 83.1562H50.2832V82.6582C50.2832 82.2793 50.1699 81.9785 49.9434 81.7559C49.7168 81.5293 49.3828 81.416 48.9414 81.416C48.5547 81.416 48.2305 81.5137 47.9688 81.709C47.707 81.9043 47.5762 82.1406 47.5762 82.418H46.4863C46.4863 82.1016 46.5977 81.7969 46.8203 81.5039C47.0469 81.207 47.3516 80.9727 47.7344 80.8008C48.1211 80.6289 48.5449 80.543 49.0059 80.543C49.7363 80.543 50.3086 80.7266 50.7227 81.0938C51.1367 81.457 51.3516 81.959 51.3672 82.5996V85.5176C51.3672 86.0996 51.4414 86.5625 51.5898 86.9062V87H50.4531ZM48.6543 86.1738C48.9941 86.1738 49.3164 86.0859 49.6211 85.9102C49.9258 85.7344 50.1465 85.5059 50.2832 85.2246V83.9238H49.4336C48.1055 83.9238 47.4414 84.3125 47.4414 85.0898C47.4414 85.4297 47.5547 85.6953 47.7812 85.8867C48.0078 86.0781 48.2988 86.1738 48.6543 86.1738ZM56.1309 81.6328C55.9668 81.6055 55.7891 81.5918 55.5977 81.5918C54.8867 81.5918 54.4043 81.8945 54.1504 82.5V87H53.0664V80.6602H54.1211L54.1387 81.3926C54.4941 80.8262 54.998 80.543 55.6504 80.543C55.8613 80.543 56.0215 80.5703 56.1309 80.625V81.6328ZM44.5117 99.3184C44.5117 99.0254 44.4004 98.7988 44.1777 98.6387C43.959 98.4746 43.5742 98.334 43.0234 98.2168C42.4766 98.0996 42.041 97.959 41.7168 97.7949C41.3965 97.6309 41.1582 97.4355 41.002 97.209C40.8496 96.9824 40.7734 96.7129 40.7734 96.4004C40.7734 95.8809 40.9922 95.4414 41.4297 95.082C41.8711 94.7227 42.4336 94.543 43.1172 94.543C43.8359 94.543 44.418 94.7285 44.8633 95.0996C45.3125 95.4707 45.5371 95.9453 45.5371 96.5234H44.4473C44.4473 96.2266 44.3203 95.9707 44.0664 95.7559C43.8164 95.541 43.5 95.4336 43.1172 95.4336C42.7227 95.4336 42.4141 95.5195 42.1914 95.6914C41.9688 95.8633 41.8574 96.0879 41.8574 96.3652C41.8574 96.627 41.9609 96.8242 42.168 96.957C42.375 97.0898 42.748 97.2168 43.2871 97.3379C43.8301 97.459 44.2695 97.6035 44.6055 97.7715C44.9414 97.9395 45.1895 98.1426 45.3496 98.3809C45.5137 98.6152 45.5957 98.9023 45.5957 99.2422C45.5957 99.8086 45.3691 100.264 44.916 100.607C44.4629 100.947 43.875 101.117 43.1523 101.117C42.6445 101.117 42.1953 101.027 41.8047 100.848C41.4141 100.668 41.1074 100.418 40.8848 100.098C40.666 99.7734 40.5566 99.4238 40.5566 99.0488H41.6406C41.6602 99.4121 41.8047 99.7012 42.0742 99.916C42.3477 100.127 42.707 100.232 43.1523 100.232C43.5625 100.232 43.8906 100.15 44.1367 99.9863C44.3867 99.8184 44.5117 99.5957 44.5117 99.3184ZM49.6387 101.117C48.7793 101.117 48.0801 100.836 47.541 100.273C47.002 99.707 46.7324 98.9512 46.7324 98.0059V97.8066C46.7324 97.1777 46.8516 96.6172 47.0898 96.125C47.332 95.6289 47.668 95.2422 48.0977 94.9648C48.5312 94.6836 49 94.543 49.5039 94.543C50.3281 94.543 50.9688 94.8145 51.4258 95.3574C51.8828 95.9004 52.1113 96.6777 52.1113 97.6895V98.1406H47.8164C47.832 98.7656 48.0137 99.2715 48.3613 99.6582C48.7129 100.041 49.1582 100.232 49.6973 100.232C50.0801 100.232 50.4043 100.154 50.6699 99.998C50.9355 99.8418 51.168 99.6348 51.3672 99.377L52.0293 99.8926C51.498 100.709 50.7012 101.117 49.6387 101.117ZM49.5039 95.4336C49.0664 95.4336 48.6992 95.5938 48.4023 95.9141C48.1055 96.2305 47.9219 96.6758 47.8516 97.25H51.0273V97.168C50.9961 96.6172 50.8477 96.1914 50.582 95.8906C50.3164 95.5859 49.957 95.4336 49.5039 95.4336ZM54.3965 94.6602L54.4316 95.457C54.916 94.8477 55.5488 94.543 56.3301 94.543C57.6699 94.543 58.3457 95.2988 58.3574 96.8105V101H57.2734V96.8047C57.2695 96.3477 57.1641 96.0098 56.957 95.791C56.7539 95.5723 56.4355 95.4629 56.002 95.4629C55.6504 95.4629 55.3418 95.5566 55.0762 95.7441C54.8105 95.9316 54.6035 96.1777 54.4551 96.4824V101H53.3711V94.6602H54.3965ZM59.7285 97.7773C59.7285 96.8047 59.959 96.0234 60.4199 95.4336C60.8809 94.8398 61.4844 94.543 62.2305 94.543C62.9727 94.543 63.5605 94.7969 63.9941 95.3047V92H65.0781V101H64.082L64.0293 100.32C63.5957 100.852 62.9922 101.117 62.2188 101.117C61.4844 101.117 60.8848 100.816 60.4199 100.215C59.959 99.6133 59.7285 98.8281 59.7285 97.8594V97.7773ZM60.8125 97.9004C60.8125 98.6191 60.9609 99.1816 61.2578 99.5879C61.5547 99.9941 61.9648 100.197 62.4883 100.197C63.1758 100.197 63.6777 99.8887 63.9941 99.2715V96.3594C63.6699 95.7617 63.1719 95.4629 62.5 95.4629C61.9688 95.4629 61.5547 95.668 61.2578 96.0781C60.9609 96.4883 60.8125 97.0957 60.8125 97.9004Z" fill="#A43CD6"/>
<path d="M63.1738 81.6328C63.0098 81.6055 62.832 81.5918 62.6406 81.5918C61.9297 81.5918 61.4473 81.8945 61.1934 82.5V87H60.1094V80.6602H61.1641L61.1816 81.3926C61.5371 80.8262 62.041 80.543 62.6934 80.543C62.9043 80.543 63.0645 80.5703 63.1738 80.625V81.6328ZM66.6895 87.1172C65.8301 87.1172 65.1309 86.8359 64.5918 86.2734C64.0527 85.707 63.7832 84.9512 63.7832 84.0059V83.8066C63.7832 83.1777 63.9023 82.6172 64.1406 82.125C64.3828 81.6289 64.7188 81.2422 65.1484 80.9648C65.582 80.6836 66.0508 80.543 66.5547 80.543C67.3789 80.543 68.0195 80.8145 68.4766 81.3574C68.9336 81.9004 69.1621 82.6777 69.1621 83.6895V84.1406H64.8672C64.8828 84.7656 65.0645 85.2715 65.4121 85.6582C65.7637 86.041 66.209 86.2324 66.748 86.2324C67.1309 86.2324 67.4551 86.1543 67.7207 85.998C67.9863 85.8418 68.2188 85.6348 68.418 85.377L69.0801 85.8926C68.5488 86.709 67.752 87.1172 66.6895 87.1172ZM66.5547 81.4336C66.1172 81.4336 65.75 81.5938 65.4531 81.9141C65.1562 82.2305 64.9727 82.6758 64.9023 83.25H68.0781V83.168C68.0469 82.6172 67.8984 82.1914 67.6328 81.8906C67.3672 81.5859 67.0078 81.4336 66.5547 81.4336ZM74.1133 85.3184C74.1133 85.0254 74.002 84.7988 73.7793 84.6387C73.5605 84.4746 73.1758 84.334 72.625 84.2168C72.0781 84.0996 71.6426 83.959 71.3184 83.7949C70.998 83.6309 70.7598 83.4355 70.6035 83.209C70.4512 82.9824 70.375 82.7129 70.375 82.4004C70.375 81.8809 70.5938 81.4414 71.0312 81.082C71.4727 80.7227 72.0352 80.543 72.7188 80.543C73.4375 80.543 74.0195 80.7285 74.4648 81.0996C74.9141 81.4707 75.1387 81.9453 75.1387 82.5234H74.0488C74.0488 82.2266 73.9219 81.9707 73.668 81.7559C73.418 81.541 73.1016 81.4336 72.7188 81.4336C72.3242 81.4336 72.0156 81.5195 71.793 81.6914C71.5703 81.8633 71.459 82.0879 71.459 82.3652C71.459 82.627 71.5625 82.8242 71.7695 82.957C71.9766 83.0898 72.3496 83.2168 72.8887 83.3379C73.4316 83.459 73.8711 83.6035 74.207 83.7715C74.543 83.9395 74.791 84.1426 74.9512 84.3809C75.1152 84.6152 75.1973 84.9023 75.1973 85.2422C75.1973 85.8086 74.9707 86.2637 74.5176 86.6074C74.0645 86.9473 73.4766 87.1172 72.7539 87.1172C72.2461 87.1172 71.7969 87.0273 71.4062 86.8477C71.0156 86.668 70.709 86.418 70.4863 86.0977C70.2676 85.7734 70.1582 85.4238 70.1582 85.0488H71.2422C71.2617 85.4121 71.4062 85.7012 71.6758 85.916C71.9492 86.127 72.3086 86.2324 72.7539 86.2324C73.1641 86.2324 73.4922 86.1504 73.7383 85.9863C73.9883 85.8184 74.1133 85.5957 74.1133 85.3184ZM81.9648 83.9004C81.9648 84.8652 81.7441 85.6426 81.3027 86.2324C80.8613 86.8223 80.2637 87.1172 79.5098 87.1172C78.7402 87.1172 78.1348 86.873 77.6934 86.3848V89.4375H76.6094V80.6602H77.5996L77.6523 81.3633C78.0938 80.8164 78.707 80.543 79.4922 80.543C80.2539 80.543 80.8555 80.8301 81.2969 81.4043C81.7422 81.9785 81.9648 82.7773 81.9648 83.8008V83.9004ZM80.8809 83.7773C80.8809 83.0625 80.7285 82.498 80.4238 82.084C80.1191 81.6699 79.7012 81.4629 79.1699 81.4629C78.5137 81.4629 78.0215 81.7539 77.6934 82.3359V85.3652C78.0176 85.9434 78.5137 86.2324 79.1816 86.2324C79.7012 86.2324 80.1133 86.0273 80.418 85.6172C80.7266 85.2031 80.8809 84.5898 80.8809 83.7773ZM83.0605 83.7715C83.0605 83.1504 83.1816 82.5918 83.4238 82.0957C83.6699 81.5996 84.0098 81.2168 84.4434 80.9473C84.8809 80.6777 85.3789 80.543 85.9375 80.543C86.8008 80.543 87.498 80.8418 88.0293 81.4395C88.5645 82.0371 88.832 82.832 88.832 83.8242V83.9004C88.832 84.5176 88.7129 85.0723 88.4746 85.5645C88.2402 86.0527 87.9023 86.4336 87.4609 86.707C87.0234 86.9805 86.5195 87.1172 85.9492 87.1172C85.0898 87.1172 84.3926 86.8184 83.8574 86.2207C83.3262 85.623 83.0605 84.832 83.0605 83.8477V83.7715ZM84.1504 83.9004C84.1504 84.6035 84.3125 85.168 84.6367 85.5938C84.9648 86.0195 85.4023 86.2324 85.9492 86.2324C86.5 86.2324 86.9375 86.0176 87.2617 85.5879C87.5859 85.1543 87.748 84.5488 87.748 83.7715C87.748 83.0762 87.582 82.5137 87.25 82.084C86.9219 81.6504 86.4844 81.4336 85.9375 81.4336C85.4023 81.4336 84.9707 81.6465 84.6426 82.0723C84.3145 82.498 84.1504 83.1074 84.1504 83.9004ZM91.2168 80.6602L91.252 81.457C91.7363 80.8477 92.3691 80.543 93.1504 80.543C94.4902 80.543 95.166 81.2988 95.1777 82.8105V87H94.0938V82.8047C94.0898 82.3477 93.9844 82.0098 93.7773 81.791C93.5742 81.5723 93.2559 81.4629 92.8223 81.4629C92.4707 81.4629 92.1621 81.5566 91.8965 81.7441C91.6309 81.9316 91.4238 82.1777 91.2754 82.4824V87H90.1914V80.6602H91.2168ZM100.504 85.3184C100.504 85.0254 100.393 84.7988 100.17 84.6387C99.9512 84.4746 99.5664 84.334 99.0156 84.2168C98.4688 84.0996 98.0332 83.959 97.709 83.7949C97.3887 83.6309 97.1504 83.4355 96.9941 83.209C96.8418 82.9824 96.7656 82.7129 96.7656 82.4004C96.7656 81.8809 96.9844 81.4414 97.4219 81.082C97.8633 80.7227 98.4258 80.543 99.1094 80.543C99.8281 80.543 100.41 80.7285 100.855 81.0996C101.305 81.4707 101.529 81.9453 101.529 82.5234H100.439C100.439 82.2266 100.312 81.9707 100.059 81.7559C99.8086 81.541 99.4922 81.4336 99.1094 81.4336C98.7148 81.4336 98.4062 81.5195 98.1836 81.6914C97.9609 81.8633 97.8496 82.0879 97.8496 82.3652C97.8496 82.627 97.9531 82.8242 98.1602 82.957C98.3672 83.0898 98.7402 83.2168 99.2793 83.3379C99.8223 83.459 100.262 83.6035 100.598 83.7715C100.934 83.9395 101.182 84.1426 101.342 84.3809C101.506 84.6152 101.588 84.9023 101.588 85.2422C101.588 85.8086 101.361 86.2637 100.908 86.6074C100.455 86.9473 99.8672 87.1172 99.1445 87.1172C98.6367 87.1172 98.1875 87.0273 97.7969 86.8477C97.4062 86.668 97.0996 86.418 96.877 86.0977C96.6582 85.7734 96.5488 85.4238 96.5488 85.0488H97.6328C97.6523 85.4121 97.7969 85.7012 98.0664 85.916C98.3398 86.127 98.6992 86.2324 99.1445 86.2324C99.5547 86.2324 99.8828 86.1504 100.129 85.9863C100.379 85.8184 100.504 85.5957 100.504 85.3184ZM105.631 87.1172C104.771 87.1172 104.072 86.8359 103.533 86.2734C102.994 85.707 102.725 84.9512 102.725 84.0059V83.8066C102.725 83.1777 102.844 82.6172 103.082 82.125C103.324 81.6289 103.66 81.2422 104.09 80.9648C104.523 80.6836 104.992 80.543 105.496 80.543C106.32 80.543 106.961 80.8145 107.418 81.3574C107.875 81.9004 108.104 82.6777 108.104 83.6895V84.1406H103.809C103.824 84.7656 104.006 85.2715 104.354 85.6582C104.705 86.041 105.15 86.2324 105.689 86.2324C106.072 86.2324 106.396 86.1543 106.662 85.998C106.928 85.8418 107.16 85.6348 107.359 85.377L108.021 85.8926C107.49 86.709 106.693 87.1172 105.631 87.1172ZM105.496 81.4336C105.059 81.4336 104.691 81.5938 104.395 81.9141C104.098 82.2305 103.914 82.6758 103.844 83.25H107.02V83.168C106.988 82.6172 106.84 82.1914 106.574 81.8906C106.309 81.5859 105.949 81.4336 105.496 81.4336ZM113.148 77.8887L113.77 78.3105C113.406 78.8066 113.219 79.3418 113.207 79.916V80.7129H112.129V80.0332C112.129 79.6348 112.223 79.2402 112.41 78.8496C112.602 78.459 112.848 78.1387 113.148 77.8887ZM114.994 77.8887L115.615 78.3105C115.252 78.8066 115.064 79.3418 115.053 79.916V80.7129H113.975V80.0332C113.975 79.6348 114.068 79.2402 114.256 78.8496C114.447 78.459 114.693 78.1387 114.994 77.8887ZM116.752 87V78.4688H119.16C119.902 78.4688 120.559 78.6328 121.129 78.9609C121.699 79.2891 122.139 79.7559 122.447 80.3613C122.76 80.9668 122.918 81.6621 122.922 82.4473V82.9922C122.922 83.7969 122.766 84.502 122.453 85.1074C122.145 85.7129 121.701 86.1777 121.123 86.502C120.549 86.8262 119.879 86.9922 119.113 87H116.752ZM117.877 79.3945V86.0801H119.061C119.928 86.0801 120.602 85.8105 121.082 85.2715C121.566 84.7324 121.809 83.9648 121.809 82.9688V82.4707C121.809 81.502 121.58 80.75 121.123 80.2148C120.67 79.6758 120.025 79.4023 119.189 79.3945H117.877ZM127.141 83.1973C126.176 82.9199 125.473 82.5801 125.031 82.1777C124.594 81.7715 124.375 81.2715 124.375 80.6777C124.375 80.0059 124.643 79.4512 125.178 79.0137C125.717 78.5723 126.416 78.3516 127.275 78.3516C127.861 78.3516 128.383 78.4648 128.84 78.6914C129.301 78.918 129.656 79.2305 129.906 79.6289C130.16 80.0273 130.287 80.4629 130.287 80.9355H129.156C129.156 80.4199 128.992 80.0156 128.664 79.7227C128.336 79.4258 127.873 79.2773 127.275 79.2773C126.721 79.2773 126.287 79.4004 125.975 79.6465C125.666 79.8887 125.512 80.2266 125.512 80.6602C125.512 81.0078 125.658 81.3027 125.951 81.5449C126.248 81.7832 126.75 82.002 127.457 82.2012C128.168 82.4004 128.723 82.6211 129.121 82.8633C129.523 83.1016 129.82 83.3809 130.012 83.7012C130.207 84.0215 130.305 84.3984 130.305 84.832C130.305 85.5234 130.035 86.0781 129.496 86.4961C128.957 86.9102 128.236 87.1172 127.334 87.1172C126.748 87.1172 126.201 87.0059 125.693 86.7832C125.186 86.5566 124.793 86.248 124.516 85.8574C124.242 85.4668 124.105 85.0234 124.105 84.5273H125.236C125.236 85.043 125.426 85.4512 125.805 85.752C126.188 86.0488 126.697 86.1973 127.334 86.1973C127.928 86.1973 128.383 86.0762 128.699 85.834C129.016 85.5918 129.174 85.2617 129.174 84.8438C129.174 84.4258 129.027 84.1035 128.734 83.877C128.441 83.6465 127.91 83.4199 127.141 83.1973ZM134.125 86.2324C134.512 86.2324 134.85 86.1152 135.139 85.8809C135.428 85.6465 135.588 85.3535 135.619 85.002H136.645C136.625 85.3652 136.5 85.7109 136.27 86.0391C136.039 86.3672 135.73 86.6289 135.344 86.8242C134.961 87.0195 134.555 87.1172 134.125 87.1172C133.262 87.1172 132.574 86.8301 132.062 86.2559C131.555 85.6777 131.301 84.8887 131.301 83.8887V83.707C131.301 83.0898 131.414 82.541 131.641 82.0605C131.867 81.5801 132.191 81.207 132.613 80.9414C133.039 80.6758 133.541 80.543 134.119 80.543C134.83 80.543 135.42 80.7559 135.889 81.1816C136.361 81.6074 136.613 82.1602 136.645 82.8398H135.619C135.588 82.4297 135.432 82.0938 135.15 81.832C134.873 81.5664 134.529 81.4336 134.119 81.4336C133.568 81.4336 133.141 81.6328 132.836 82.0312C132.535 82.4258 132.385 82.998 132.385 83.748V83.9531C132.385 84.6836 132.535 85.2461 132.836 85.6406C133.137 86.0352 133.566 86.2324 134.125 86.2324ZM140.928 81.6328C140.764 81.6055 140.586 81.5918 140.395 81.5918C139.684 81.5918 139.201 81.8945 138.947 82.5V87H137.863V80.6602H138.918L138.936 81.3926C139.291 80.8262 139.795 80.543 140.447 80.543C140.658 80.543 140.818 80.5703 140.928 80.625V81.6328ZM143.107 87H142.023V80.6602H143.107V87ZM141.936 78.9785C141.936 78.8027 141.988 78.6543 142.094 78.5332C142.203 78.4121 142.363 78.3516 142.574 78.3516C142.785 78.3516 142.945 78.4121 143.055 78.5332C143.164 78.6543 143.219 78.8027 143.219 78.9785C143.219 79.1543 143.164 79.3008 143.055 79.418C142.945 79.5352 142.785 79.5938 142.574 79.5938C142.363 79.5938 142.203 79.5352 142.094 79.418C141.988 79.3008 141.936 79.1543 141.936 78.9785ZM150.203 83.9004C150.203 84.8652 149.982 85.6426 149.541 86.2324C149.1 86.8223 148.502 87.1172 147.748 87.1172C146.979 87.1172 146.373 86.873 145.932 86.3848V89.4375H144.848V80.6602H145.838L145.891 81.3633C146.332 80.8164 146.945 80.543 147.73 80.543C148.492 80.543 149.094 80.8301 149.535 81.4043C149.98 81.9785 150.203 82.7773 150.203 83.8008V83.9004ZM149.119 83.7773C149.119 83.0625 148.967 82.498 148.662 82.084C148.357 81.6699 147.939 81.4629 147.408 81.4629C146.752 81.4629 146.26 81.7539 145.932 82.3359V85.3652C146.256 85.9434 146.752 86.2324 147.42 86.2324C147.939 86.2324 148.352 86.0273 148.656 85.6172C148.965 85.2031 149.119 84.5898 149.119 83.7773ZM153.057 79.125V80.6602H154.24V81.498H153.057V85.4297C153.057 85.6836 153.109 85.875 153.215 86.0039C153.32 86.1289 153.5 86.1914 153.754 86.1914C153.879 86.1914 154.051 86.168 154.27 86.1211V87C153.984 87.0781 153.707 87.1172 153.438 87.1172C152.953 87.1172 152.588 86.9707 152.342 86.6777C152.096 86.3848 151.973 85.9688 151.973 85.4297V81.498H150.818V80.6602H151.973V79.125H153.057ZM159.865 87H158.74V78.4688H159.865V87ZM165.449 85.3184C165.449 85.0254 165.338 84.7988 165.115 84.6387C164.896 84.4746 164.512 84.334 163.961 84.2168C163.414 84.0996 162.979 83.959 162.654 83.7949C162.334 83.6309 162.096 83.4355 161.939 83.209C161.787 82.9824 161.711 82.7129 161.711 82.4004C161.711 81.8809 161.93 81.4414 162.367 81.082C162.809 80.7227 163.371 80.543 164.055 80.543C164.773 80.543 165.355 80.7285 165.801 81.0996C166.25 81.4707 166.475 81.9453 166.475 82.5234H165.385C165.385 82.2266 165.258 81.9707 165.004 81.7559C164.754 81.541 164.438 81.4336 164.055 81.4336C163.66 81.4336 163.352 81.5195 163.129 81.6914C162.906 81.8633 162.795 82.0879 162.795 82.3652C162.795 82.627 162.898 82.8242 163.105 82.957C163.312 83.0898 163.686 83.2168 164.225 83.3379C164.768 83.459 165.207 83.6035 165.543 83.7715C165.879 83.9395 166.127 84.1426 166.287 84.3809C166.451 84.6152 166.533 84.9023 166.533 85.2422C166.533 85.8086 166.307 86.2637 165.854 86.6074C165.4 86.9473 164.812 87.1172 164.09 87.1172C163.582 87.1172 163.133 87.0273 162.742 86.8477C162.352 86.668 162.045 86.418 161.822 86.0977C161.604 85.7734 161.494 85.4238 161.494 85.0488H162.578C162.598 85.4121 162.742 85.7012 163.012 85.916C163.285 86.127 163.645 86.2324 164.09 86.2324C164.5 86.2324 164.828 86.1504 165.074 85.9863C165.324 85.8184 165.449 85.5957 165.449 85.3184ZM175.803 84.7734H172.229L171.426 87H170.266L173.523 78.4688H174.508L177.771 87H176.617L175.803 84.7734ZM172.568 83.8477H175.469L174.016 79.8574L172.568 83.8477ZM184.164 85.5059L185.383 80.6602H186.467L184.621 87H183.742L182.201 82.1953L180.701 87H179.822L177.982 80.6602H179.061L180.309 85.4062L181.785 80.6602H182.658L184.164 85.5059ZM190.205 87.1172C189.346 87.1172 188.646 86.8359 188.107 86.2734C187.568 85.707 187.299 84.9512 187.299 84.0059V83.8066C187.299 83.1777 187.418 82.6172 187.656 82.125C187.898 81.6289 188.234 81.2422 188.664 80.9648C189.098 80.6836 189.566 80.543 190.07 80.543C190.895 80.543 191.535 80.8145 191.992 81.3574C192.449 81.9004 192.678 82.6777 192.678 83.6895V84.1406H188.383C188.398 84.7656 188.58 85.2715 188.928 85.6582C189.279 86.041 189.725 86.2324 190.264 86.2324C190.646 86.2324 190.971 86.1543 191.236 85.998C191.502 85.8418 191.734 85.6348 191.934 85.377L192.596 85.8926C192.064 86.709 191.268 87.1172 190.205 87.1172ZM190.07 81.4336C189.633 81.4336 189.266 81.5938 188.969 81.9141C188.672 82.2305 188.488 82.6758 188.418 83.25H191.594V83.168C191.562 82.6172 191.414 82.1914 191.148 81.8906C190.883 81.5859 190.523 81.4336 190.07 81.4336ZM197.629 85.3184C197.629 85.0254 197.518 84.7988 197.295 84.6387C197.076 84.4746 196.691 84.334 196.141 84.2168C195.594 84.0996 195.158 83.959 194.834 83.7949C194.514 83.6309 194.275 83.4355 194.119 83.209C193.967 82.9824 193.891 82.7129 193.891 82.4004C193.891 81.8809 194.109 81.4414 194.547 81.082C194.988 80.7227 195.551 80.543 196.234 80.543C196.953 80.543 197.535 80.7285 197.98 81.0996C198.43 81.4707 198.654 81.9453 198.654 82.5234H197.564C197.564 82.2266 197.438 81.9707 197.184 81.7559C196.934 81.541 196.617 81.4336 196.234 81.4336C195.84 81.4336 195.531 81.5195 195.309 81.6914C195.086 81.8633 194.975 82.0879 194.975 82.3652C194.975 82.627 195.078 82.8242 195.285 82.957C195.492 83.0898 195.865 83.2168 196.404 83.3379C196.947 83.459 197.387 83.6035 197.723 83.7715C198.059 83.9395 198.307 84.1426 198.467 84.3809C198.631 84.6152 198.713 84.9023 198.713 85.2422C198.713 85.8086 198.486 86.2637 198.033 86.6074C197.58 86.9473 196.992 87.1172 196.27 87.1172C195.762 87.1172 195.312 87.0273 194.922 86.8477C194.531 86.668 194.225 86.418 194.002 86.0977C193.783 85.7734 193.674 85.4238 193.674 85.0488H194.758C194.777 85.4121 194.922 85.7012 195.191 85.916C195.465 86.127 195.824 86.2324 196.27 86.2324C196.68 86.2324 197.008 86.1504 197.254 85.9863C197.504 85.8184 197.629 85.5957 197.629 85.3184ZM199.838 83.7715C199.838 83.1504 199.959 82.5918 200.201 82.0957C200.447 81.5996 200.787 81.2168 201.221 80.9473C201.658 80.6777 202.156 80.543 202.715 80.543C203.578 80.543 204.275 80.8418 204.807 81.4395C205.342 82.0371 205.609 82.832 205.609 83.8242V83.9004C205.609 84.5176 205.49 85.0723 205.252 85.5645C205.018 86.0527 204.68 86.4336 204.238 86.707C203.801 86.9805 203.297 87.1172 202.727 87.1172C201.867 87.1172 201.17 86.8184 200.635 86.2207C200.104 85.623 199.838 84.832 199.838 83.8477V83.7715ZM200.928 83.9004C200.928 84.6035 201.09 85.168 201.414 85.5938C201.742 86.0195 202.18 86.2324 202.727 86.2324C203.277 86.2324 203.715 86.0176 204.039 85.5879C204.363 85.1543 204.525 84.5488 204.525 83.7715C204.525 83.0762 204.359 82.5137 204.027 82.084C203.699 81.6504 203.262 81.4336 202.715 81.4336C202.18 81.4336 201.748 81.6465 201.42 82.0723C201.092 82.498 200.928 83.1074 200.928 83.9004ZM207.988 80.6602L208.018 81.3633C208.482 80.8164 209.109 80.543 209.898 80.543C210.785 80.543 211.389 80.8828 211.709 81.5625C211.92 81.2578 212.193 81.0117 212.529 80.8242C212.869 80.6367 213.27 80.543 213.73 80.543C215.121 80.543 215.828 81.2793 215.852 82.752V87H214.768V82.8164C214.768 82.3633 214.664 82.0254 214.457 81.8027C214.25 81.5762 213.902 81.4629 213.414 81.4629C213.012 81.4629 212.678 81.584 212.412 81.8262C212.146 82.0645 211.992 82.3867 211.949 82.793V87H210.859V82.8457C210.859 81.9238 210.408 81.4629 209.506 81.4629C208.795 81.4629 208.309 81.7656 208.047 82.3711V87H206.963V80.6602H207.988ZM220.123 87.1172C219.264 87.1172 218.564 86.8359 218.025 86.2734C217.486 85.707 217.217 84.9512 217.217 84.0059V83.8066C217.217 83.1777 217.336 82.6172 217.574 82.125C217.816 81.6289 218.152 81.2422 218.582 80.9648C219.016 80.6836 219.484 80.543 219.988 80.543C220.812 80.543 221.453 80.8145 221.91 81.3574C222.367 81.9004 222.596 82.6777 222.596 83.6895V84.1406H218.301C218.316 84.7656 218.498 85.2715 218.846 85.6582C219.197 86.041 219.643 86.2324 220.182 86.2324C220.564 86.2324 220.889 86.1543 221.154 85.998C221.42 85.8418 221.652 85.6348 221.852 85.377L222.514 85.8926C221.982 86.709 221.186 87.1172 220.123 87.1172ZM219.988 81.4336C219.551 81.4336 219.184 81.5938 218.887 81.9141C218.59 82.2305 218.406 82.6758 218.336 83.25H221.512V83.168C221.48 82.6172 221.332 82.1914 221.066 81.8906C220.801 81.5859 220.441 81.4336 219.988 81.4336ZM225.068 84.5918H224.09L224.014 78.4688H225.15L225.068 84.5918ZM223.973 86.4551C223.973 86.2793 224.025 86.1328 224.131 86.0156C224.24 85.8945 224.4 85.834 224.611 85.834C224.822 85.834 224.982 85.8945 225.092 86.0156C225.201 86.1328 225.256 86.2793 225.256 86.4551C225.256 86.6309 225.201 86.7773 225.092 86.8945C224.982 87.0078 224.822 87.0645 224.611 87.0645C224.4 87.0645 224.24 87.0078 224.131 86.8945C224.025 86.7773 223.973 86.6309 223.973 86.4551ZM228.162 84.5918H227.184L227.107 78.4688H228.244L228.162 84.5918ZM227.066 86.4551C227.066 86.2793 227.119 86.1328 227.225 86.0156C227.334 85.8945 227.494 85.834 227.705 85.834C227.916 85.834 228.076 85.8945 228.186 86.0156C228.295 86.1328 228.35 86.2793 228.35 86.4551C228.35 86.6309 228.295 86.7773 228.186 86.8945C228.076 87.0078 227.916 87.0645 227.705 87.0645C227.494 87.0645 227.334 87.0078 227.225 86.8945C227.119 86.7773 227.066 86.6309 227.066 86.4551ZM230.189 80.8711L229.574 80.4492C229.938 79.9414 230.125 79.4062 230.137 78.8438V78H231.209V78.7617C231.205 79.1523 231.107 79.543 230.916 79.9336C230.729 80.3203 230.486 80.6328 230.189 80.8711ZM231.988 80.8711L231.373 80.4492C231.736 79.9414 231.924 79.4062 231.936 78.8438V78H233.008V78.7617C233.004 79.1523 232.906 79.543 232.715 79.9336C232.527 80.3203 232.285 80.6328 231.988 80.8711ZM79.5449 95.6328C79.3809 95.6055 79.2031 95.5918 79.0117 95.5918C78.3008 95.5918 77.8184 95.8945 77.5645 96.5V101H76.4805V94.6602H77.5352L77.5527 95.3926C77.9082 94.8262 78.4121 94.543 79.0645 94.543C79.2754 94.543 79.4355 94.5703 79.5449 94.625V95.6328ZM83.0605 101.117C82.2012 101.117 81.502 100.836 80.9629 100.273C80.4238 99.707 80.1543 98.9512 80.1543 98.0059V97.8066C80.1543 97.1777 80.2734 96.6172 80.5117 96.125C80.7539 95.6289 81.0898 95.2422 81.5195 94.9648C81.9531 94.6836 82.4219 94.543 82.9258 94.543C83.75 94.543 84.3906 94.8145 84.8477 95.3574C85.3047 95.9004 85.5332 96.6777 85.5332 97.6895V98.1406H81.2383C81.2539 98.7656 81.4355 99.2715 81.7832 99.6582C82.1348 100.041 82.5801 100.232 83.1191 100.232C83.502 100.232 83.8262 100.154 84.0918 99.998C84.3574 99.8418 84.5898 99.6348 84.7891 99.377L85.4512 99.8926C84.9199 100.709 84.123 101.117 83.0605 101.117ZM82.9258 95.4336C82.4883 95.4336 82.1211 95.5938 81.8242 95.9141C81.5273 96.2305 81.3438 96.6758 81.2734 97.25H84.4492V97.168C84.418 96.6172 84.2695 96.1914 84.0039 95.8906C83.7383 95.5859 83.3789 95.4336 82.9258 95.4336ZM90.4844 99.3184C90.4844 99.0254 90.373 98.7988 90.1504 98.6387C89.9316 98.4746 89.5469 98.334 88.9961 98.2168C88.4492 98.0996 88.0137 97.959 87.6895 97.7949C87.3691 97.6309 87.1309 97.4355 86.9746 97.209C86.8223 96.9824 86.7461 96.7129 86.7461 96.4004C86.7461 95.8809 86.9648 95.4414 87.4023 95.082C87.8438 94.7227 88.4062 94.543 89.0898 94.543C89.8086 94.543 90.3906 94.7285 90.8359 95.0996C91.2852 95.4707 91.5098 95.9453 91.5098 96.5234H90.4199C90.4199 96.2266 90.293 95.9707 90.0391 95.7559C89.7891 95.541 89.4727 95.4336 89.0898 95.4336C88.6953 95.4336 88.3867 95.5195 88.1641 95.6914C87.9414 95.8633 87.8301 96.0879 87.8301 96.3652C87.8301 96.627 87.9336 96.8242 88.1406 96.957C88.3477 97.0898 88.7207 97.2168 89.2598 97.3379C89.8027 97.459 90.2422 97.6035 90.5781 97.7715C90.9141 97.9395 91.1621 98.1426 91.3223 98.3809C91.4863 98.6152 91.5684 98.9023 91.5684 99.2422C91.5684 99.8086 91.3418 100.264 90.8887 100.607C90.4355 100.947 89.8477 101.117 89.125 101.117C88.6172 101.117 88.168 101.027 87.7773 100.848C87.3867 100.668 87.0801 100.418 86.8574 100.098C86.6387 99.7734 86.5293 99.4238 86.5293 99.0488H87.6133C87.6328 99.4121 87.7773 99.7012 88.0469 99.916C88.3203 100.127 88.6797 100.232 89.125 100.232C89.5352 100.232 89.8633 100.15 90.1094 99.9863C90.3594 99.8184 90.4844 99.5957 90.4844 99.3184ZM98.3359 97.9004C98.3359 98.8652 98.1152 99.6426 97.6738 100.232C97.2324 100.822 96.6348 101.117 95.8809 101.117C95.1113 101.117 94.5059 100.873 94.0645 100.385V103.438H92.9805V94.6602H93.9707L94.0234 95.3633C94.4648 94.8164 95.0781 94.543 95.8633 94.543C96.625 94.543 97.2266 94.8301 97.668 95.4043C98.1133 95.9785 98.3359 96.7773 98.3359 97.8008V97.9004ZM97.252 97.7773C97.252 97.0625 97.0996 96.498 96.7949 96.084C96.4902 95.6699 96.0723 95.4629 95.541 95.4629C94.8848 95.4629 94.3926 95.7539 94.0645 96.3359V99.3652C94.3887 99.9434 94.8848 100.232 95.5527 100.232C96.0723 100.232 96.4844 100.027 96.7891 99.6172C97.0977 99.2031 97.252 98.5898 97.252 97.7773ZM99.4316 97.7715C99.4316 97.1504 99.5527 96.5918 99.7949 96.0957C100.041 95.5996 100.381 95.2168 100.814 94.9473C101.252 94.6777 101.75 94.543 102.309 94.543C103.172 94.543 103.869 94.8418 104.4 95.4395C104.936 96.0371 105.203 96.832 105.203 97.8242V97.9004C105.203 98.5176 105.084 99.0723 104.846 99.5645C104.611 100.053 104.273 100.434 103.832 100.707C103.395 100.98 102.891 101.117 102.32 101.117C101.461 101.117 100.764 100.818 100.229 100.221C99.6973 99.623 99.4316 98.832 99.4316 97.8477V97.7715ZM100.521 97.9004C100.521 98.6035 100.684 99.168 101.008 99.5938C101.336 100.02 101.773 100.232 102.32 100.232C102.871 100.232 103.309 100.018 103.633 99.5879C103.957 99.1543 104.119 98.5488 104.119 97.7715C104.119 97.0762 103.953 96.5137 103.621 96.084C103.293 95.6504 102.855 95.4336 102.309 95.4336C101.773 95.4336 101.342 95.6465 101.014 96.0723C100.686 96.498 100.521 97.1074 100.521 97.9004ZM107.588 94.6602L107.623 95.457C108.107 94.8477 108.74 94.543 109.521 94.543C110.861 94.543 111.537 95.2988 111.549 96.8105V101H110.465V96.8047C110.461 96.3477 110.355 96.0098 110.148 95.791C109.945 95.5723 109.627 95.4629 109.193 95.4629C108.842 95.4629 108.533 95.5566 108.268 95.7441C108.002 95.9316 107.795 96.1777 107.646 96.4824V101H106.562V94.6602H107.588ZM116.875 99.3184C116.875 99.0254 116.764 98.7988 116.541 98.6387C116.322 98.4746 115.938 98.334 115.387 98.2168C114.84 98.0996 114.404 97.959 114.08 97.7949C113.76 97.6309 113.521 97.4355 113.365 97.209C113.213 96.9824 113.137 96.7129 113.137 96.4004C113.137 95.8809 113.355 95.4414 113.793 95.082C114.234 94.7227 114.797 94.543 115.48 94.543C116.199 94.543 116.781 94.7285 117.227 95.0996C117.676 95.4707 117.9 95.9453 117.9 96.5234H116.811C116.811 96.2266 116.684 95.9707 116.43 95.7559C116.18 95.541 115.863 95.4336 115.48 95.4336C115.086 95.4336 114.777 95.5195 114.555 95.6914C114.332 95.8633 114.221 96.0879 114.221 96.3652C114.221 96.627 114.324 96.8242 114.531 96.957C114.738 97.0898 115.111 97.2168 115.65 97.3379C116.193 97.459 116.633 97.6035 116.969 97.7715C117.305 97.9395 117.553 98.1426 117.713 98.3809C117.877 98.6152 117.959 98.9023 117.959 99.2422C117.959 99.8086 117.732 100.264 117.279 100.607C116.826 100.947 116.238 101.117 115.516 101.117C115.008 101.117 114.559 101.027 114.168 100.848C113.777 100.668 113.471 100.418 113.248 100.098C113.029 99.7734 112.92 99.4238 112.92 99.0488H114.004C114.023 99.4121 114.168 99.7012 114.438 99.916C114.711 100.127 115.07 100.232 115.516 100.232C115.926 100.232 116.254 100.15 116.5 99.9863C116.75 99.8184 116.875 99.5957 116.875 99.3184ZM122.002 101.117C121.143 101.117 120.443 100.836 119.904 100.273C119.365 99.707 119.096 98.9512 119.096 98.0059V97.8066C119.096 97.1777 119.215 96.6172 119.453 96.125C119.695 95.6289 120.031 95.2422 120.461 94.9648C120.895 94.6836 121.363 94.543 121.867 94.543C122.691 94.543 123.332 94.8145 123.789 95.3574C124.246 95.9004 124.475 96.6777 124.475 97.6895V98.1406H120.18C120.195 98.7656 120.377 99.2715 120.725 99.6582C121.076 100.041 121.521 100.232 122.061 100.232C122.443 100.232 122.768 100.154 123.033 99.998C123.299 99.8418 123.531 99.6348 123.73 99.377L124.393 99.8926C123.861 100.709 123.064 101.117 122.002 101.117ZM121.867 95.4336C121.43 95.4336 121.062 95.5938 120.766 95.9141C120.469 96.2305 120.285 96.6758 120.215 97.25H123.391V97.168C123.359 96.6172 123.211 96.1914 122.945 95.8906C122.68 95.5859 122.32 95.4336 121.867 95.4336Z" fill="black"/>
<path d="M73.9375 98.8027C73.9375 98.4434 73.8105 98.1406 73.5566 97.8945C73.3066 97.6484 72.8828 97.4258 72.2852 97.2266C71.4531 96.9727 70.8457 96.6426 70.4629 96.2363C70.084 95.8262 69.8945 95.3066 69.8945 94.6777C69.8945 94.0371 70.0801 93.5117 70.4512 93.1016C70.8262 92.6914 71.3398 92.4473 71.9922 92.3691V91.0859H72.8652V92.375C73.5215 92.4648 74.0312 92.7402 74.3945 93.2012C74.7617 93.6621 74.9453 94.293 74.9453 95.0938H73.8672C73.8672 94.543 73.7363 94.1055 73.4746 93.7812C73.2129 93.457 72.8594 93.2949 72.4141 93.2949C71.9492 93.2949 71.5938 93.416 71.3477 93.6582C71.1016 93.8965 70.9785 94.2305 70.9785 94.6602C70.9785 95.0586 71.1074 95.377 71.3652 95.6152C71.627 95.8496 72.0547 96.0645 72.6484 96.2598C73.2461 96.4512 73.7109 96.6641 74.043 96.8984C74.3789 97.1289 74.625 97.3984 74.7812 97.707C74.9414 98.0156 75.0215 98.377 75.0215 98.791C75.0215 99.4512 74.8223 99.9824 74.4238 100.385C74.0293 100.787 73.4746 101.025 72.7598 101.1V102.219H71.8926V101.1C71.166 101.033 70.5957 100.775 70.1816 100.326C69.7715 99.873 69.5664 99.2598 69.5664 98.4863H70.6504C70.6504 99.0293 70.793 99.4473 71.0781 99.7402C71.3633 100.033 71.7676 100.18 72.291 100.18C72.8027 100.18 73.2051 100.057 73.498 99.8105C73.791 99.5645 73.9375 99.2285 73.9375 98.8027Z" fill="#0784F8"/>
<path d="M47.9393 72.0607C48.5251 72.6464 49.4749 72.6464 50.0607 72.0607L59.6066 62.5147C60.1924 61.9289 60.1924 60.9792 59.6066 60.3934C59.0208 59.8076 58.0711 59.8076 57.4853 60.3934L49 68.8787L40.5147 60.3934C39.9289 59.8076 38.9792 59.8076 38.3934 60.3934C37.8076 60.9792 37.8076 61.9289 38.3934 62.5147L47.9393 72.0607ZM47.5 19V71H50.5V19H47.5Z" fill="black"/>
<path d="M7.26562 8.29297C7.16016 9.19531 6.82617 9.89258 6.26367 10.3848C5.70508 10.873 4.96094 11.1172 4.03125 11.1172C3.02344 11.1172 2.21484 10.7559 1.60547 10.0332C1 9.31055 0.697266 8.34375 0.697266 7.13281V6.3125C0.697266 5.51953 0.837891 4.82227 1.11914 4.2207C1.4043 3.61914 1.80664 3.1582 2.32617 2.83789C2.8457 2.51367 3.44727 2.35156 4.13086 2.35156C5.03711 2.35156 5.76367 2.60547 6.31055 3.11328C6.85742 3.61719 7.17578 4.31641 7.26562 5.21094H6.13477C6.03711 4.53125 5.82422 4.03906 5.49609 3.73438C5.17188 3.42969 4.7168 3.27734 4.13086 3.27734C3.41211 3.27734 2.84766 3.54297 2.4375 4.07422C2.03125 4.60547 1.82812 5.36133 1.82812 6.3418V7.16797C1.82812 8.09375 2.02148 8.83008 2.4082 9.37695C2.79492 9.92383 3.33594 10.1973 4.03125 10.1973C4.65625 10.1973 5.13477 10.0566 5.4668 9.77539C5.80273 9.49023 6.02539 8.99609 6.13477 8.29297H7.26562ZM11.7012 5.63281C11.5371 5.60547 11.3594 5.5918 11.168 5.5918C10.457 5.5918 9.97461 5.89453 9.7207 6.5V11H8.63672V4.66016H9.69141L9.70898 5.39258C10.0645 4.82617 10.5684 4.54297 11.2207 4.54297C11.4316 4.54297 11.5918 4.57031 11.7012 4.625V5.63281ZM15.2168 11.1172C14.3574 11.1172 13.6582 10.8359 13.1191 10.2734C12.5801 9.70703 12.3105 8.95117 12.3105 8.00586V7.80664C12.3105 7.17773 12.4297 6.61719 12.668 6.125C12.9102 5.62891 13.2461 5.24219 13.6758 4.96484C14.1094 4.68359 14.5781 4.54297 15.082 4.54297C15.9062 4.54297 16.5469 4.81445 17.0039 5.35742C17.4609 5.90039 17.6895 6.67773 17.6895 7.68945V8.14062H13.3945C13.4102 8.76562 13.5918 9.27148 13.9395 9.6582C14.291 10.041 14.7363 10.2324 15.2754 10.2324C15.6582 10.2324 15.9824 10.1543 16.248 9.99805C16.5137 9.8418 16.7461 9.63477 16.9453 9.37695L17.6074 9.89258C17.0762 10.709 16.2793 11.1172 15.2168 11.1172ZM15.082 5.43359C14.6445 5.43359 14.2773 5.59375 13.9805 5.91406C13.6836 6.23047 13.5 6.67578 13.4297 7.25H16.6055V7.16797C16.5742 6.61719 16.4258 6.19141 16.1602 5.89062C15.8945 5.58594 15.5352 5.43359 15.082 5.43359ZM22.8633 11C22.8008 10.875 22.75 10.6523 22.7109 10.332C22.207 10.8555 21.6055 11.1172 20.9062 11.1172C20.2812 11.1172 19.7676 10.9414 19.3652 10.5898C18.9668 10.2344 18.7676 9.78516 18.7676 9.24219C18.7676 8.58203 19.0176 8.07031 19.5176 7.70703C20.0215 7.33984 20.7285 7.15625 21.6387 7.15625H22.6934V6.6582C22.6934 6.2793 22.5801 5.97852 22.3535 5.75586C22.127 5.5293 21.793 5.41602 21.3516 5.41602C20.9648 5.41602 20.6406 5.51367 20.3789 5.70898C20.1172 5.9043 19.9863 6.14062 19.9863 6.41797H18.8965C18.8965 6.10156 19.0078 5.79688 19.2305 5.50391C19.457 5.20703 19.7617 4.97266 20.1445 4.80078C20.5312 4.62891 20.9551 4.54297 21.416 4.54297C22.1465 4.54297 22.7188 4.72656 23.1328 5.09375C23.5469 5.45703 23.7617 5.95898 23.7773 6.59961V9.51758C23.7773 10.0996 23.8516 10.5625 24 10.9062V11H22.8633ZM21.0645 10.1738C21.4043 10.1738 21.7266 10.0859 22.0312 9.91016C22.3359 9.73438 22.5566 9.50586 22.6934 9.22461V7.92383H21.8438C20.5156 7.92383 19.8516 8.3125 19.8516 9.08984C19.8516 9.42969 19.9648 9.69531 20.1914 9.88672C20.418 10.0781 20.709 10.1738 21.0645 10.1738ZM26.9473 3.125V4.66016H28.1309V5.49805H26.9473V9.42969C26.9473 9.68359 27 9.875 27.1055 10.0039C27.2109 10.1289 27.3906 10.1914 27.6445 10.1914C27.7695 10.1914 27.9414 10.168 28.1602 10.1211V11C27.875 11.0781 27.5977 11.1172 27.3281 11.1172C26.8438 11.1172 26.4785 10.9707 26.2324 10.6777C25.9863 10.3848 25.8633 9.96875 25.8633 9.42969V5.49805H24.709V4.66016H25.8633V3.125H26.9473ZM32.0332 11.1172C31.1738 11.1172 30.4746 10.8359 29.9355 10.2734C29.3965 9.70703 29.127 8.95117 29.127 8.00586V7.80664C29.127 7.17773 29.2461 6.61719 29.4844 6.125C29.7266 5.62891 30.0625 5.24219 30.4922 4.96484C30.9258 4.68359 31.3945 4.54297 31.8984 4.54297C32.7227 4.54297 33.3633 4.81445 33.8203 5.35742C34.2773 5.90039 34.5059 6.67773 34.5059 7.68945V8.14062H30.2109C30.2266 8.76562 30.4082 9.27148 30.7559 9.6582C31.1074 10.041 31.5527 10.2324 32.0918 10.2324C32.4746 10.2324 32.7988 10.1543 33.0645 9.99805C33.3301 9.8418 33.5625 9.63477 33.7617 9.37695L34.4238 9.89258C33.8926 10.709 33.0957 11.1172 32.0332 11.1172ZM31.8984 5.43359C31.4609 5.43359 31.0938 5.59375 30.7969 5.91406C30.5 6.23047 30.3164 6.67578 30.2461 7.25H33.4219V7.16797C33.3906 6.61719 33.2422 6.19141 32.9766 5.89062C32.7109 5.58594 32.3516 5.43359 31.8984 5.43359ZM39.457 9.31836C39.457 9.02539 39.3457 8.79883 39.123 8.63867C38.9043 8.47461 38.5195 8.33398 37.9688 8.2168C37.4219 8.09961 36.9863 7.95898 36.6621 7.79492C36.3418 7.63086 36.1035 7.43555 35.9473 7.20898C35.7949 6.98242 35.7188 6.71289 35.7188 6.40039C35.7188 5.88086 35.9375 5.44141 36.375 5.08203C36.8164 4.72266 37.3789 4.54297 38.0625 4.54297C38.7812 4.54297 39.3633 4.72852 39.8086 5.09961C40.2578 5.4707 40.4824 5.94531 40.4824 6.52344H39.3926C39.3926 6.22656 39.2656 5.9707 39.0117 5.75586C38.7617 5.54102 38.4453 5.43359 38.0625 5.43359C37.668 5.43359 37.3594 5.51953 37.1367 5.69141C36.9141 5.86328 36.8027 6.08789 36.8027 6.36523C36.8027 6.62695 36.9062 6.82422 37.1133 6.95703C37.3203 7.08984 37.6934 7.2168 38.2324 7.33789C38.7754 7.45898 39.2148 7.60352 39.5508 7.77148C39.8867 7.93945 40.1348 8.14258 40.2949 8.38086C40.459 8.61523 40.541 8.90234 40.541 9.24219C40.541 9.80859 40.3145 10.2637 39.8613 10.6074C39.4082 10.9473 38.8203 11.1172 38.0977 11.1172C37.5898 11.1172 37.1406 11.0273 36.75 10.8477C36.3594 10.668 36.0527 10.418 35.8301 10.0977C35.6113 9.77344 35.502 9.42383 35.502 9.04883H36.5859C36.6055 9.41211 36.75 9.70117 37.0195 9.91602C37.293 10.127 37.6523 10.2324 38.0977 10.2324C38.5078 10.2324 38.8359 10.1504 39.082 9.98633C39.332 9.81836 39.457 9.5957 39.457 9.31836ZM48.8438 11C48.7812 10.875 48.7305 10.6523 48.6914 10.332C48.1875 10.8555 47.5859 11.1172 46.8867 11.1172C46.2617 11.1172 45.748 10.9414 45.3457 10.5898C44.9473 10.2344 44.748 9.78516 44.748 9.24219C44.748 8.58203 44.998 8.07031 45.498 7.70703C46.002 7.33984 46.709 7.15625 47.6191 7.15625H48.6738V6.6582C48.6738 6.2793 48.5605 5.97852 48.334 5.75586C48.1074 5.5293 47.7734 5.41602 47.332 5.41602C46.9453 5.41602 46.6211 5.51367 46.3594 5.70898C46.0977 5.9043 45.9668 6.14062 45.9668 6.41797H44.877C44.877 6.10156 44.9883 5.79688 45.2109 5.50391C45.4375 5.20703 45.7422 4.97266 46.125 4.80078C46.5117 4.62891 46.9355 4.54297 47.3965 4.54297C48.127 4.54297 48.6992 4.72656 49.1133 5.09375C49.5273 5.45703 49.7422 5.95898 49.7578 6.59961V9.51758C49.7578 10.0996 49.832 10.5625 49.9805 10.9062V11H48.8438ZM47.0449 10.1738C47.3848 10.1738 47.707 10.0859 48.0117 9.91016C48.3164 9.73438 48.5371 9.50586 48.6738 9.22461V7.92383H47.8242C46.4961 7.92383 45.832 8.3125 45.832 9.08984C45.832 9.42969 45.9453 9.69531 46.1719 9.88672C46.3984 10.0781 46.6895 10.1738 47.0449 10.1738ZM57.4277 9.50586L59.8652 2.46875H61.0957L57.9316 11H56.9355L53.7773 2.46875H55.002L57.4277 9.50586ZM65.7188 11C65.6562 10.875 65.6055 10.6523 65.5664 10.332C65.0625 10.8555 64.4609 11.1172 63.7617 11.1172C63.1367 11.1172 62.623 10.9414 62.2207 10.5898C61.8223 10.2344 61.623 9.78516 61.623 9.24219C61.623 8.58203 61.873 8.07031 62.373 7.70703C62.877 7.33984 63.584 7.15625 64.4941 7.15625H65.5488V6.6582C65.5488 6.2793 65.4355 5.97852 65.209 5.75586C64.9824 5.5293 64.6484 5.41602 64.207 5.41602C63.8203 5.41602 63.4961 5.51367 63.2344 5.70898C62.9727 5.9043 62.8418 6.14062 62.8418 6.41797H61.752C61.752 6.10156 61.8633 5.79688 62.0859 5.50391C62.3125 5.20703 62.6172 4.97266 63 4.80078C63.3867 4.62891 63.8105 4.54297 64.2715 4.54297C65.002 4.54297 65.5742 4.72656 65.9883 5.09375C66.4023 5.45703 66.6172 5.95898 66.6328 6.59961V9.51758C66.6328 10.0996 66.707 10.5625 66.8555 10.9062V11H65.7188ZM63.9199 10.1738C64.2598 10.1738 64.582 10.0859 64.8867 9.91016C65.1914 9.73438 65.4121 9.50586 65.5488 9.22461V7.92383H64.6992C63.3711 7.92383 62.707 8.3125 62.707 9.08984C62.707 9.42969 62.8203 9.69531 63.0469 9.88672C63.2734 10.0781 63.5645 10.1738 63.9199 10.1738ZM71.3965 5.63281C71.2324 5.60547 71.0547 5.5918 70.8633 5.5918C70.1523 5.5918 69.6699 5.89453 69.416 6.5V11H68.332V4.66016H69.3867L69.4043 5.39258C69.7598 4.82617 70.2637 4.54297 70.916 4.54297C71.127 4.54297 71.2871 4.57031 71.3965 4.625V5.63281ZM73.5762 11H72.4922V4.66016H73.5762V11ZM72.4043 2.97852C72.4043 2.80273 72.457 2.6543 72.5625 2.5332C72.6719 2.41211 72.832 2.35156 73.043 2.35156C73.2539 2.35156 73.4141 2.41211 73.5234 2.5332C73.6328 2.6543 73.6875 2.80273 73.6875 2.97852C73.6875 3.1543 73.6328 3.30078 73.5234 3.41797C73.4141 3.53516 73.2539 3.59375 73.043 3.59375C72.832 3.59375 72.6719 3.53516 72.5625 3.41797C72.457 3.30078 72.4043 3.1543 72.4043 2.97852ZM79.2305 11C79.168 10.875 79.1172 10.6523 79.0781 10.332C78.5742 10.8555 77.9727 11.1172 77.2734 11.1172C76.6484 11.1172 76.1348 10.9414 75.7324 10.5898C75.334 10.2344 75.1348 9.78516 75.1348 9.24219C75.1348 8.58203 75.3848 8.07031 75.8848 7.70703C76.3887 7.33984 77.0957 7.15625 78.0059 7.15625H79.0605V6.6582C79.0605 6.2793 78.9473 5.97852 78.7207 5.75586C78.4941 5.5293 78.1602 5.41602 77.7188 5.41602C77.332 5.41602 77.0078 5.51367 76.7461 5.70898C76.4844 5.9043 76.3535 6.14062 76.3535 6.41797H75.2637C75.2637 6.10156 75.375 5.79688 75.5977 5.50391C75.8242 5.20703 76.1289 4.97266 76.5117 4.80078C76.8984 4.62891 77.3223 4.54297 77.7832 4.54297C78.5137 4.54297 79.0859 4.72656 79.5 5.09375C79.9141 5.45703 80.1289 5.95898 80.1445 6.59961V9.51758C80.1445 10.0996 80.2188 10.5625 80.3672 10.9062V11H79.2305ZM77.4316 10.1738C77.7715 10.1738 78.0938 10.0859 78.3984 9.91016C78.7031 9.73438 78.9238 9.50586 79.0605 9.22461V7.92383H78.2109C76.8828 7.92383 76.2188 8.3125 76.2188 9.08984C76.2188 9.42969 76.332 9.69531 76.5586 9.88672C76.7852 10.0781 77.0762 10.1738 77.4316 10.1738ZM87.2109 7.90039C87.2109 8.86914 86.9883 9.64844 86.543 10.2383C86.0977 10.8242 85.5 11.1172 84.75 11.1172C83.9492 11.1172 83.3301 10.834 82.8926 10.2676L82.8398 11H81.8438V2H82.9277V5.35742C83.3652 4.81445 83.9688 4.54297 84.7383 4.54297C85.5078 4.54297 86.1113 4.83398 86.5488 5.41602C86.9902 5.99805 87.2109 6.79492 87.2109 7.80664V7.90039ZM86.127 7.77734C86.127 7.03906 85.9844 6.46875 85.6992 6.06641C85.4141 5.66406 85.0039 5.46289 84.4688 5.46289C83.7539 5.46289 83.2402 5.79492 82.9277 6.45898V9.20117C83.2598 9.86523 83.7773 10.1973 84.4805 10.1973C85 10.1973 85.4043 9.99609 85.6934 9.59375C85.9824 9.19141 86.127 8.58594 86.127 7.77734ZM89.7598 11H88.6758V2H89.7598V11ZM94.1309 11.1172C93.2715 11.1172 92.5723 10.8359 92.0332 10.2734C91.4941 9.70703 91.2246 8.95117 91.2246 8.00586V7.80664C91.2246 7.17773 91.3438 6.61719 91.582 6.125C91.8242 5.62891 92.1602 5.24219 92.5898 4.96484C93.0234 4.68359 93.4922 4.54297 93.9961 4.54297C94.8203 4.54297 95.4609 4.81445 95.918 5.35742C96.375 5.90039 96.6035 6.67773 96.6035 7.68945V8.14062H92.3086C92.3242 8.76562 92.5059 9.27148 92.8535 9.6582C93.2051 10.041 93.6504 10.2324 94.1895 10.2324C94.5723 10.2324 94.8965 10.1543 95.1621 9.99805C95.4277 9.8418 95.6602 9.63477 95.8594 9.37695L96.5215 9.89258C95.9902 10.709 95.1934 11.1172 94.1309 11.1172ZM93.9961 5.43359C93.5586 5.43359 93.1914 5.59375 92.8945 5.91406C92.5977 6.23047 92.4141 6.67578 92.3438 7.25H95.5195V7.16797C95.4883 6.61719 95.3398 6.19141 95.0742 5.89062C94.8086 5.58594 94.4492 5.43359 93.9961 5.43359Z" fill="black"/>
<path d="M48.8306 110.51C48.0075 110.603 47.4161 111.346 47.5096 112.169L49.0339 125.583C49.1274 126.406 49.8705 126.998 50.6936 126.904C51.5168 126.811 52.1082 126.067 52.0147 125.244L50.6598 113.321L62.583 111.966C63.4062 111.873 63.9976 111.129 63.9041 110.306C63.8105 109.483 63.0674 108.892 62.2443 108.985L48.8306 110.51ZM98.9341 149.826L49.9341 110.826L48.0659 113.174L97.0659 152.174L98.9341 149.826Z" fill="black"/>
<path d="M89.5039 169.197C88.5391 168.92 87.8359 168.58 87.3945 168.178C86.957 167.771 86.7383 167.271 86.7383 166.678C86.7383 166.006 87.0059 165.451 87.541 165.014C88.0801 164.572 88.7793 164.352 89.6387 164.352C90.2246 164.352 90.7461 164.465 91.2031 164.691C91.6641 164.918 92.0195 165.23 92.2695 165.629C92.5234 166.027 92.6504 166.463 92.6504 166.936H91.5195C91.5195 166.42 91.3555 166.016 91.0273 165.723C90.6992 165.426 90.2363 165.277 89.6387 165.277C89.084 165.277 88.6504 165.4 88.3379 165.646C88.0293 165.889 87.875 166.227 87.875 166.66C87.875 167.008 88.0215 167.303 88.3145 167.545C88.6113 167.783 89.1133 168.002 89.8203 168.201C90.5312 168.4 91.0859 168.621 91.4844 168.863C91.8867 169.102 92.1836 169.381 92.375 169.701C92.5703 170.021 92.668 170.398 92.668 170.832C92.668 171.523 92.3984 172.078 91.8594 172.496C91.3203 172.91 90.5996 173.117 89.6973 173.117C89.1113 173.117 88.5645 173.006 88.0566 172.783C87.5488 172.557 87.1562 172.248 86.8789 171.857C86.6055 171.467 86.4688 171.023 86.4688 170.527H87.5996C87.5996 171.043 87.7891 171.451 88.168 171.752C88.5508 172.049 89.0605 172.197 89.6973 172.197C90.291 172.197 90.7461 172.076 91.0625 171.834C91.3789 171.592 91.5371 171.262 91.5371 170.844C91.5371 170.426 91.3906 170.104 91.0977 169.877C90.8047 169.646 90.2734 169.42 89.5039 169.197ZM96.5762 173.117C95.7168 173.117 95.0176 172.836 94.4785 172.273C93.9395 171.707 93.6699 170.951 93.6699 170.006V169.807C93.6699 169.178 93.7891 168.617 94.0273 168.125C94.2695 167.629 94.6055 167.242 95.0352 166.965C95.4688 166.684 95.9375 166.543 96.4414 166.543C97.2656 166.543 97.9062 166.814 98.3633 167.357C98.8203 167.9 99.0488 168.678 99.0488 169.689V170.141H94.7539C94.7695 170.766 94.9512 171.271 95.2988 171.658C95.6504 172.041 96.0957 172.232 96.6348 172.232C97.0176 172.232 97.3418 172.154 97.6074 171.998C97.873 171.842 98.1055 171.635 98.3047 171.377L98.9668 171.893C98.4355 172.709 97.6387 173.117 96.5762 173.117ZM96.4414 167.434C96.0039 167.434 95.6367 167.594 95.3398 167.914C95.043 168.23 94.8594 168.676 94.7891 169.25H97.9648V169.168C97.9336 168.617 97.7852 168.191 97.5195 167.891C97.2539 167.586 96.8945 167.434 96.4414 167.434ZM101.334 166.66L101.369 167.457C101.854 166.848 102.486 166.543 103.268 166.543C104.607 166.543 105.283 167.299 105.295 168.811V173H104.211V168.805C104.207 168.348 104.102 168.01 103.895 167.791C103.691 167.572 103.373 167.463 102.939 167.463C102.588 167.463 102.279 167.557 102.014 167.744C101.748 167.932 101.541 168.178 101.393 168.482V173H100.309V166.66H101.334ZM106.666 169.777C106.666 168.805 106.896 168.023 107.357 167.434C107.818 166.84 108.422 166.543 109.168 166.543C109.91 166.543 110.498 166.797 110.932 167.305V164H112.016V173H111.02L110.967 172.32C110.533 172.852 109.93 173.117 109.156 173.117C108.422 173.117 107.822 172.816 107.357 172.215C106.896 171.613 106.666 170.828 106.666 169.859V169.777ZM107.75 169.9C107.75 170.619 107.898 171.182 108.195 171.588C108.492 171.994 108.902 172.197 109.426 172.197C110.113 172.197 110.615 171.889 110.932 171.271V168.359C110.607 167.762 110.109 167.463 109.438 167.463C108.906 167.463 108.492 167.668 108.195 168.078C107.898 168.488 107.75 169.096 107.75 169.9ZM117.395 171.318C117.395 171.025 117.283 170.799 117.061 170.639C116.842 170.475 116.457 170.334 115.906 170.217C115.359 170.1 114.924 169.959 114.6 169.795C114.279 169.631 114.041 169.436 113.885 169.209C113.732 168.982 113.656 168.713 113.656 168.4C113.656 167.881 113.875 167.441 114.312 167.082C114.754 166.723 115.316 166.543 116 166.543C116.719 166.543 117.301 166.729 117.746 167.1C118.195 167.471 118.42 167.945 118.42 168.523H117.33C117.33 168.227 117.203 167.971 116.949 167.756C116.699 167.541 116.383 167.434 116 167.434C115.605 167.434 115.297 167.52 115.074 167.691C114.852 167.863 114.74 168.088 114.74 168.365C114.74 168.627 114.844 168.824 115.051 168.957C115.258 169.09 115.631 169.217 116.17 169.338C116.713 169.459 117.152 169.604 117.488 169.771C117.824 169.939 118.072 170.143 118.232 170.381C118.396 170.615 118.479 170.902 118.479 171.242C118.479 171.809 118.252 172.264 117.799 172.607C117.346 172.947 116.758 173.117 116.035 173.117C115.527 173.117 115.078 173.027 114.688 172.848C114.297 172.668 113.99 172.418 113.768 172.098C113.549 171.773 113.439 171.424 113.439 171.049H114.523C114.543 171.412 114.688 171.701 114.957 171.916C115.23 172.127 115.59 172.232 116.035 172.232C116.445 172.232 116.773 172.15 117.02 171.986C117.27 171.818 117.395 171.596 117.395 171.318ZM124.338 165.125V166.66H125.521V167.498H124.338V171.43C124.338 171.684 124.391 171.875 124.496 172.004C124.602 172.129 124.781 172.191 125.035 172.191C125.16 172.191 125.332 172.168 125.551 172.121V173C125.266 173.078 124.988 173.117 124.719 173.117C124.234 173.117 123.869 172.971 123.623 172.678C123.377 172.385 123.254 171.969 123.254 171.43V167.498H122.1V166.66H123.254V165.125H124.338ZM127.877 167.428C128.357 166.838 128.982 166.543 129.752 166.543C131.092 166.543 131.768 167.299 131.779 168.811V173H130.695V168.805C130.691 168.348 130.586 168.01 130.379 167.791C130.176 167.572 129.857 167.463 129.424 167.463C129.072 167.463 128.764 167.557 128.498 167.744C128.232 167.932 128.025 168.178 127.877 168.482V173H126.793V164H127.877V167.428ZM136.033 173.117C135.174 173.117 134.475 172.836 133.936 172.273C133.396 171.707 133.127 170.951 133.127 170.006V169.807C133.127 169.178 133.246 168.617 133.484 168.125C133.727 167.629 134.062 167.242 134.492 166.965C134.926 166.684 135.395 166.543 135.898 166.543C136.723 166.543 137.363 166.814 137.82 167.357C138.277 167.9 138.506 168.678 138.506 169.689V170.141H134.211C134.227 170.766 134.408 171.271 134.756 171.658C135.107 172.041 135.553 172.232 136.092 172.232C136.475 172.232 136.799 172.154 137.064 171.998C137.33 171.842 137.562 171.635 137.762 171.377L138.424 171.893C137.893 172.709 137.096 173.117 136.033 173.117ZM135.898 167.434C135.461 167.434 135.094 167.594 134.797 167.914C134.5 168.23 134.316 168.676 134.246 169.25H137.422V169.168C137.391 168.617 137.242 168.191 136.977 167.891C136.711 167.586 136.352 167.434 135.898 167.434ZM145.285 172.232C145.672 172.232 146.01 172.115 146.299 171.881C146.588 171.646 146.748 171.354 146.779 171.002H147.805C147.785 171.365 147.66 171.711 147.43 172.039C147.199 172.367 146.891 172.629 146.504 172.824C146.121 173.02 145.715 173.117 145.285 173.117C144.422 173.117 143.734 172.83 143.223 172.256C142.715 171.678 142.461 170.889 142.461 169.889V169.707C142.461 169.09 142.574 168.541 142.801 168.061C143.027 167.58 143.352 167.207 143.773 166.941C144.199 166.676 144.701 166.543 145.279 166.543C145.99 166.543 146.58 166.756 147.049 167.182C147.521 167.607 147.773 168.16 147.805 168.84H146.779C146.748 168.43 146.592 168.094 146.311 167.832C146.033 167.566 145.689 167.434 145.279 167.434C144.729 167.434 144.301 167.633 143.996 168.031C143.695 168.426 143.545 168.998 143.545 169.748V169.953C143.545 170.684 143.695 171.246 143.996 171.641C144.297 172.035 144.727 172.232 145.285 172.232ZM148.736 169.771C148.736 169.15 148.857 168.592 149.1 168.096C149.346 167.6 149.686 167.217 150.119 166.947C150.557 166.678 151.055 166.543 151.613 166.543C152.477 166.543 153.174 166.842 153.705 167.439C154.24 168.037 154.508 168.832 154.508 169.824V169.9C154.508 170.518 154.389 171.072 154.15 171.564C153.916 172.053 153.578 172.434 153.137 172.707C152.699 172.98 152.195 173.117 151.625 173.117C150.766 173.117 150.068 172.818 149.533 172.221C149.002 171.623 148.736 170.832 148.736 169.848V169.771ZM149.826 169.9C149.826 170.604 149.988 171.168 150.312 171.594C150.641 172.02 151.078 172.232 151.625 172.232C152.176 172.232 152.613 172.018 152.938 171.588C153.262 171.154 153.424 170.549 153.424 169.771C153.424 169.076 153.258 168.514 152.926 168.084C152.598 167.65 152.16 167.434 151.613 167.434C151.078 167.434 150.646 167.646 150.318 168.072C149.99 168.498 149.826 169.107 149.826 169.9ZM156.893 166.66L156.928 167.457C157.412 166.848 158.045 166.543 158.826 166.543C160.166 166.543 160.842 167.299 160.854 168.811V173H159.77V168.805C159.766 168.348 159.66 168.01 159.453 167.791C159.25 167.572 158.932 167.463 158.498 167.463C158.146 167.463 157.838 167.557 157.572 167.744C157.307 167.932 157.1 168.178 156.951 168.482V173H155.867V166.66H156.893ZM163.959 165.125V166.66H165.143V167.498H163.959V171.43C163.959 171.684 164.012 171.875 164.117 172.004C164.223 172.129 164.402 172.191 164.656 172.191C164.781 172.191 164.953 172.168 165.172 172.121V173C164.887 173.078 164.609 173.117 164.34 173.117C163.855 173.117 163.49 172.971 163.244 172.678C162.998 172.385 162.875 171.969 162.875 171.43V167.498H161.721V166.66H162.875V165.125H163.959ZM169.045 173.117C168.186 173.117 167.486 172.836 166.947 172.273C166.408 171.707 166.139 170.951 166.139 170.006V169.807C166.139 169.178 166.258 168.617 166.496 168.125C166.738 167.629 167.074 167.242 167.504 166.965C167.938 166.684 168.406 166.543 168.91 166.543C169.734 166.543 170.375 166.814 170.832 167.357C171.289 167.9 171.518 168.678 171.518 169.689V170.141H167.223C167.238 170.766 167.42 171.271 167.768 171.658C168.119 172.041 168.564 172.232 169.104 172.232C169.486 172.232 169.811 172.154 170.076 171.998C170.342 171.842 170.574 171.635 170.773 171.377L171.436 171.893C170.904 172.709 170.107 173.117 169.045 173.117ZM168.91 167.434C168.473 167.434 168.105 167.594 167.809 167.914C167.512 168.23 167.328 168.676 167.258 169.25H170.434V169.168C170.402 168.617 170.254 168.191 169.988 167.891C169.723 167.586 169.363 167.434 168.91 167.434ZM173.803 166.66L173.838 167.457C174.322 166.848 174.955 166.543 175.736 166.543C177.076 166.543 177.752 167.299 177.764 168.811V173H176.68V168.805C176.676 168.348 176.57 168.01 176.363 167.791C176.16 167.572 175.842 167.463 175.408 167.463C175.057 167.463 174.748 167.557 174.482 167.744C174.217 167.932 174.01 168.178 173.861 168.482V173H172.777V166.66H173.803ZM180.869 165.125V166.66H182.053V167.498H180.869V171.43C180.869 171.684 180.922 171.875 181.027 172.004C181.133 172.129 181.312 172.191 181.566 172.191C181.691 172.191 181.863 172.168 182.082 172.121V173C181.797 173.078 181.52 173.117 181.25 173.117C180.766 173.117 180.4 172.971 180.154 172.678C179.908 172.385 179.785 171.969 179.785 171.43V167.498H178.631V166.66H179.785V165.125H180.869ZM187.771 165.125V166.66H188.955V167.498H187.771V171.43C187.771 171.684 187.824 171.875 187.93 172.004C188.035 172.129 188.215 172.191 188.469 172.191C188.594 172.191 188.766 172.168 188.984 172.121V173C188.699 173.078 188.422 173.117 188.152 173.117C187.668 173.117 187.303 172.971 187.057 172.678C186.811 172.385 186.688 171.969 186.688 171.43V167.498H185.533V166.66H186.688V165.125H187.771ZM189.822 169.771C189.822 169.15 189.943 168.592 190.186 168.096C190.432 167.6 190.771 167.217 191.205 166.947C191.643 166.678 192.141 166.543 192.699 166.543C193.562 166.543 194.26 166.842 194.791 167.439C195.326 168.037 195.594 168.832 195.594 169.824V169.9C195.594 170.518 195.475 171.072 195.236 171.564C195.002 172.053 194.664 172.434 194.223 172.707C193.785 172.98 193.281 173.117 192.711 173.117C191.852 173.117 191.154 172.818 190.619 172.221C190.088 171.623 189.822 170.832 189.822 169.848V169.771ZM190.912 169.9C190.912 170.604 191.074 171.168 191.398 171.594C191.727 172.02 192.164 172.232 192.711 172.232C193.262 172.232 193.699 172.018 194.023 171.588C194.348 171.154 194.51 170.549 194.51 169.771C194.51 169.076 194.344 168.514 194.012 168.084C193.684 167.65 193.246 167.434 192.699 167.434C192.164 167.434 191.732 167.646 191.404 168.072C191.076 168.498 190.912 169.107 190.912 169.9ZM201.4 165.125V166.66H202.584V167.498H201.4V171.43C201.4 171.684 201.453 171.875 201.559 172.004C201.664 172.129 201.844 172.191 202.098 172.191C202.223 172.191 202.395 172.168 202.613 172.121V173C202.328 173.078 202.051 173.117 201.781 173.117C201.297 173.117 200.932 172.971 200.686 172.678C200.439 172.385 200.316 171.969 200.316 171.43V167.498H199.162V166.66H200.316V165.125H201.4ZM204.939 167.428C205.42 166.838 206.045 166.543 206.814 166.543C208.154 166.543 208.83 167.299 208.842 168.811V173H207.758V168.805C207.754 168.348 207.648 168.01 207.441 167.791C207.238 167.572 206.92 167.463 206.486 167.463C206.135 167.463 205.826 167.557 205.561 167.744C205.295 167.932 205.088 168.178 204.939 168.482V173H203.855V164H204.939V167.428ZM213.096 173.117C212.236 173.117 211.537 172.836 210.998 172.273C210.459 171.707 210.189 170.951 210.189 170.006V169.807C210.189 169.178 210.309 168.617 210.547 168.125C210.789 167.629 211.125 167.242 211.555 166.965C211.988 166.684 212.457 166.543 212.961 166.543C213.785 166.543 214.426 166.814 214.883 167.357C215.34 167.9 215.568 168.678 215.568 169.689V170.141H211.273C211.289 170.766 211.471 171.271 211.818 171.658C212.17 172.041 212.615 172.232 213.154 172.232C213.537 172.232 213.861 172.154 214.127 171.998C214.393 171.842 214.625 171.635 214.824 171.377L215.486 171.893C214.955 172.709 214.158 173.117 213.096 173.117ZM212.961 167.434C212.523 167.434 212.156 167.594 211.859 167.914C211.562 168.23 211.379 168.676 211.309 169.25H214.484V169.168C214.453 168.617 214.305 168.191 214.039 167.891C213.773 167.586 213.414 167.434 212.961 167.434ZM223.496 171.318C223.496 171.025 223.385 170.799 223.162 170.639C222.943 170.475 222.559 170.334 222.008 170.217C221.461 170.1 221.025 169.959 220.701 169.795C220.381 169.631 220.143 169.436 219.986 169.209C219.834 168.982 219.758 168.713 219.758 168.4C219.758 167.881 219.977 167.441 220.414 167.082C220.855 166.723 221.418 166.543 222.102 166.543C222.82 166.543 223.402 166.729 223.848 167.1C224.297 167.471 224.521 167.945 224.521 168.523H223.432C223.432 168.227 223.305 167.971 223.051 167.756C222.801 167.541 222.484 167.434 222.102 167.434C221.707 167.434 221.398 167.52 221.176 167.691C220.953 167.863 220.842 168.088 220.842 168.365C220.842 168.627 220.945 168.824 221.152 168.957C221.359 169.09 221.732 169.217 222.271 169.338C222.814 169.459 223.254 169.604 223.59 169.771C223.926 169.939 224.174 170.143 224.334 170.381C224.498 170.615 224.58 170.902 224.58 171.242C224.58 171.809 224.354 172.264 223.9 172.607C223.447 172.947 222.859 173.117 222.137 173.117C221.629 173.117 221.18 173.027 220.789 172.848C220.398 172.668 220.092 172.418 219.869 172.098C219.65 171.773 219.541 171.424 219.541 171.049H220.625C220.645 171.412 220.789 171.701 221.059 171.916C221.332 172.127 221.691 172.232 222.137 172.232C222.547 172.232 222.875 172.15 223.121 171.986C223.371 171.818 223.496 171.596 223.496 171.318ZM229.906 173C229.844 172.875 229.793 172.652 229.754 172.332C229.25 172.855 228.648 173.117 227.949 173.117C227.324 173.117 226.811 172.941 226.408 172.59C226.01 172.234 225.811 171.785 225.811 171.242C225.811 170.582 226.061 170.07 226.561 169.707C227.064 169.34 227.771 169.156 228.682 169.156H229.736V168.658C229.736 168.279 229.623 167.979 229.396 167.756C229.17 167.529 228.836 167.416 228.395 167.416C228.008 167.416 227.684 167.514 227.422 167.709C227.16 167.904 227.029 168.141 227.029 168.418H225.939C225.939 168.102 226.051 167.797 226.273 167.504C226.5 167.207 226.805 166.973 227.188 166.801C227.574 166.629 227.998 166.543 228.459 166.543C229.189 166.543 229.762 166.727 230.176 167.094C230.59 167.457 230.805 167.959 230.82 168.6V171.518C230.82 172.1 230.895 172.562 231.043 172.906V173H229.906ZM228.107 172.174C228.447 172.174 228.77 172.086 229.074 171.91C229.379 171.734 229.6 171.506 229.736 171.225V169.924H228.887C227.559 169.924 226.895 170.312 226.895 171.09C226.895 171.43 227.008 171.695 227.234 171.887C227.461 172.078 227.752 172.174 228.107 172.174ZM233.539 166.66L233.568 167.363C234.033 166.816 234.66 166.543 235.449 166.543C236.336 166.543 236.939 166.883 237.26 167.562C237.471 167.258 237.744 167.012 238.08 166.824C238.42 166.637 238.82 166.543 239.281 166.543C240.672 166.543 241.379 167.279 241.402 168.752V173H240.318V168.816C240.318 168.363 240.215 168.025 240.008 167.803C239.801 167.576 239.453 167.463 238.965 167.463C238.562 167.463 238.229 167.584 237.963 167.826C237.697 168.064 237.543 168.387 237.5 168.793V173H236.41V168.846C236.41 167.924 235.959 167.463 235.057 167.463C234.346 167.463 233.859 167.766 233.598 168.371V173H232.514V166.66H233.539ZM245.674 173.117C244.814 173.117 244.115 172.836 243.576 172.273C243.037 171.707 242.768 170.951 242.768 170.006V169.807C242.768 169.178 242.887 168.617 243.125 168.125C243.367 167.629 243.703 167.242 244.133 166.965C244.566 166.684 245.035 166.543 245.539 166.543C246.363 166.543 247.004 166.814 247.461 167.357C247.918 167.9 248.146 168.678 248.146 169.689V170.141H243.852C243.867 170.766 244.049 171.271 244.396 171.658C244.748 172.041 245.193 172.232 245.732 172.232C246.115 172.232 246.439 172.154 246.705 171.998C246.971 171.842 247.203 171.635 247.402 171.377L248.064 171.893C247.533 172.709 246.736 173.117 245.674 173.117ZM245.539 167.434C245.102 167.434 244.734 167.594 244.438 167.914C244.141 168.23 243.957 168.676 243.887 169.25H247.062V169.168C247.031 168.617 246.883 168.191 246.617 167.891C246.352 167.586 245.992 167.434 245.539 167.434ZM254.926 172.232C255.312 172.232 255.65 172.115 255.939 171.881C256.229 171.646 256.389 171.354 256.42 171.002H257.445C257.426 171.365 257.301 171.711 257.07 172.039C256.84 172.367 256.531 172.629 256.145 172.824C255.762 173.02 255.355 173.117 254.926 173.117C254.062 173.117 253.375 172.83 252.863 172.256C252.355 171.678 252.102 170.889 252.102 169.889V169.707C252.102 169.09 252.215 168.541 252.441 168.061C252.668 167.58 252.992 167.207 253.414 166.941C253.84 166.676 254.342 166.543 254.92 166.543C255.631 166.543 256.221 166.756 256.689 167.182C257.162 167.607 257.414 168.16 257.445 168.84H256.42C256.389 168.43 256.232 168.094 255.951 167.832C255.674 167.566 255.33 167.434 254.92 167.434C254.369 167.434 253.941 167.633 253.637 168.031C253.336 168.426 253.186 168.998 253.186 169.748V169.953C253.186 170.684 253.336 171.246 253.637 171.641C253.938 172.035 254.367 172.232 254.926 172.232ZM259.748 167.428C260.229 166.838 260.854 166.543 261.623 166.543C262.963 166.543 263.639 167.299 263.65 168.811V173H262.566V168.805C262.562 168.348 262.457 168.01 262.25 167.791C262.047 167.572 261.729 167.463 261.295 167.463C260.943 167.463 260.635 167.557 260.369 167.744C260.104 167.932 259.896 168.178 259.748 168.482V173H258.664V164H259.748V167.428ZM269.188 173C269.125 172.875 269.074 172.652 269.035 172.332C268.531 172.855 267.93 173.117 267.23 173.117C266.605 173.117 266.092 172.941 265.689 172.59C265.291 172.234 265.092 171.785 265.092 171.242C265.092 170.582 265.342 170.07 265.842 169.707C266.346 169.34 267.053 169.156 267.963 169.156H269.018V168.658C269.018 168.279 268.904 167.979 268.678 167.756C268.451 167.529 268.117 167.416 267.676 167.416C267.289 167.416 266.965 167.514 266.703 167.709C266.441 167.904 266.311 168.141 266.311 168.418H265.221C265.221 168.102 265.332 167.797 265.555 167.504C265.781 167.207 266.086 166.973 266.469 166.801C266.855 166.629 267.279 166.543 267.74 166.543C268.471 166.543 269.043 166.727 269.457 167.094C269.871 167.457 270.086 167.959 270.102 168.6V171.518C270.102 172.1 270.176 172.562 270.324 172.906V173H269.188ZM267.389 172.174C267.729 172.174 268.051 172.086 268.355 171.91C268.66 171.734 268.881 171.506 269.018 171.225V169.924H268.168C266.84 169.924 266.176 170.312 266.176 171.09C266.176 171.43 266.289 171.695 266.516 171.887C266.742 172.078 267.033 172.174 267.389 172.174ZM272.826 166.66L272.861 167.457C273.346 166.848 273.979 166.543 274.76 166.543C276.1 166.543 276.775 167.299 276.787 168.811V173H275.703V168.805C275.699 168.348 275.594 168.01 275.387 167.791C275.184 167.572 274.865 167.463 274.432 167.463C274.08 167.463 273.771 167.557 273.506 167.744C273.24 167.932 273.033 168.178 272.885 168.482V173H271.801V166.66H272.826ZM279.447 166.66L279.482 167.457C279.967 166.848 280.6 166.543 281.381 166.543C282.721 166.543 283.396 167.299 283.408 168.811V173H282.324V168.805C282.32 168.348 282.215 168.01 282.008 167.791C281.805 167.572 281.486 167.463 281.053 167.463C280.701 167.463 280.393 167.557 280.127 167.744C279.861 167.932 279.654 168.178 279.506 168.482V173H278.422V166.66H279.447ZM287.674 173.117C286.814 173.117 286.115 172.836 285.576 172.273C285.037 171.707 284.768 170.951 284.768 170.006V169.807C284.768 169.178 284.887 168.617 285.125 168.125C285.367 167.629 285.703 167.242 286.133 166.965C286.566 166.684 287.035 166.543 287.539 166.543C288.363 166.543 289.004 166.814 289.461 167.357C289.918 167.9 290.146 168.678 290.146 169.689V170.141H285.852C285.867 170.766 286.049 171.271 286.396 171.658C286.748 172.041 287.193 172.232 287.732 172.232C288.115 172.232 288.439 172.154 288.705 171.998C288.971 171.842 289.203 171.635 289.402 171.377L290.064 171.893C289.533 172.709 288.736 173.117 287.674 173.117ZM287.539 167.434C287.102 167.434 286.734 167.594 286.438 167.914C286.141 168.23 285.957 168.676 285.887 169.25H289.062V169.168C289.031 168.617 288.883 168.191 288.617 167.891C288.352 167.586 287.992 167.434 287.539 167.434ZM292.584 173H291.5V164H292.584V173Z" fill="black"/>
<path d="M108.617 76.5801C108.937 77.3441 109.816 77.7037 110.58 77.3833L123.03 72.1625C123.794 71.8421 124.153 70.9631 123.833 70.1991C123.513 69.4351 122.634 69.0755 121.87 69.3959L110.803 74.0366L106.162 62.9703C105.842 62.2063 104.963 61.8467 104.199 62.1671C103.435 62.4875 103.076 63.3665 103.396 64.1305L108.617 76.5801ZM126.612 31.4321L108.612 75.432L111.388 76.5679L129.388 32.5679L126.612 31.4321Z" fill="black"/>
<path d="M111.547 29H110.416L106.121 22.4258V29H104.99V20.4688H106.121L110.428 27.0723V20.4688H111.547V29ZM113.088 25.7715C113.088 25.1504 113.209 24.5918 113.451 24.0957C113.697 23.5996 114.037 23.2168 114.471 22.9473C114.908 22.6777 115.406 22.543 115.965 22.543C116.828 22.543 117.525 22.8418 118.057 23.4395C118.592 24.0371 118.859 24.832 118.859 25.8242V25.9004C118.859 26.5176 118.74 27.0723 118.502 27.5645C118.268 28.0527 117.93 28.4336 117.488 28.707C117.051 28.9805 116.547 29.1172 115.977 29.1172C115.117 29.1172 114.42 28.8184 113.885 28.2207C113.354 27.623 113.088 26.832 113.088 25.8477V25.7715ZM114.178 25.9004C114.178 26.6035 114.34 27.168 114.664 27.5938C114.992 28.0195 115.43 28.2324 115.977 28.2324C116.527 28.2324 116.965 28.0176 117.289 27.5879C117.613 27.1543 117.775 26.5488 117.775 25.7715C117.775 25.0762 117.609 24.5137 117.277 24.084C116.949 23.6504 116.512 23.4336 115.965 23.4336C115.43 23.4336 114.998 23.6465 114.67 24.0723C114.342 24.498 114.178 25.1074 114.178 25.9004ZM123.957 19.8887L124.578 20.3105C124.215 20.8066 124.027 21.3418 124.016 21.916V22.7129H122.938V22.0332C122.938 21.6348 123.031 21.2402 123.219 20.8496C123.41 20.459 123.656 20.1387 123.957 19.8887ZM130.555 24.2305H125.668V23.2871H130.555V24.2305ZM130.555 26.6621H125.668V25.7246H130.555V26.6621ZM132.26 22.8711L131.645 22.4492C132.008 21.9414 132.195 21.4062 132.207 20.8438V20H133.279V20.7617C133.275 21.1523 133.178 21.543 132.986 21.9336C132.799 22.3203 132.557 22.6328 132.26 22.8711ZM141.254 27.3184C141.254 27.0254 141.143 26.7988 140.92 26.6387C140.701 26.4746 140.316 26.334 139.766 26.2168C139.219 26.0996 138.783 25.959 138.459 25.7949C138.139 25.6309 137.9 25.4355 137.744 25.209C137.592 24.9824 137.516 24.7129 137.516 24.4004C137.516 23.8809 137.734 23.4414 138.172 23.082C138.613 22.7227 139.176 22.543 139.859 22.543C140.578 22.543 141.16 22.7285 141.605 23.0996C142.055 23.4707 142.279 23.9453 142.279 24.5234H141.189C141.189 24.2266 141.062 23.9707 140.809 23.7559C140.559 23.541 140.242 23.4336 139.859 23.4336C139.465 23.4336 139.156 23.5195 138.934 23.6914C138.711 23.8633 138.6 24.0879 138.6 24.3652C138.6 24.627 138.703 24.8242 138.91 24.957C139.117 25.0898 139.49 25.2168 140.029 25.3379C140.572 25.459 141.012 25.6035 141.348 25.7715C141.684 25.9395 141.932 26.1426 142.092 26.3809C142.256 26.6152 142.338 26.9023 142.338 27.2422C142.338 27.8086 142.111 28.2637 141.658 28.6074C141.205 28.9473 140.617 29.1172 139.895 29.1172C139.387 29.1172 138.938 29.0273 138.547 28.8477C138.156 28.668 137.85 28.418 137.627 28.0977C137.408 27.7734 137.299 27.4238 137.299 27.0488H138.383C138.402 27.4121 138.547 27.7012 138.816 27.916C139.09 28.127 139.449 28.2324 139.895 28.2324C140.305 28.2324 140.633 28.1504 140.879 27.9863C141.129 27.8184 141.254 27.5957 141.254 27.3184ZM145.824 27.4121L147.301 22.6602H148.461L145.912 29.9785C145.518 31.0332 144.891 31.5605 144.031 31.5605L143.826 31.543L143.422 31.4668V30.5879L143.715 30.6113C144.082 30.6113 144.367 30.5371 144.57 30.3887C144.777 30.2402 144.947 29.9688 145.08 29.5742L145.32 28.9297L143.059 22.6602H144.242L145.824 27.4121ZM150.453 22.6602L150.482 23.3633C150.947 22.8164 151.574 22.543 152.363 22.543C153.25 22.543 153.854 22.8828 154.174 23.5625C154.385 23.2578 154.658 23.0117 154.994 22.8242C155.334 22.6367 155.734 22.543 156.195 22.543C157.586 22.543 158.293 23.2793 158.316 24.752V29H157.232V24.8164C157.232 24.3633 157.129 24.0254 156.922 23.8027C156.715 23.5762 156.367 23.4629 155.879 23.4629C155.477 23.4629 155.143 23.584 154.877 23.8262C154.611 24.0645 154.457 24.3867 154.414 24.793V29H153.324V24.8457C153.324 23.9238 152.873 23.4629 151.971 23.4629C151.26 23.4629 150.773 23.7656 150.512 24.3711V29H149.428V22.6602H150.453ZM165.324 25.9004C165.324 26.8691 165.102 27.6484 164.656 28.2383C164.211 28.8242 163.613 29.1172 162.863 29.1172C162.062 29.1172 161.443 28.834 161.006 28.2676L160.953 29H159.957V20H161.041V23.3574C161.479 22.8145 162.082 22.543 162.852 22.543C163.621 22.543 164.225 22.834 164.662 23.416C165.104 23.998 165.324 24.7949 165.324 25.8066V25.9004ZM164.24 25.7773C164.24 25.0391 164.098 24.4688 163.812 24.0664C163.527 23.6641 163.117 23.4629 162.582 23.4629C161.867 23.4629 161.354 23.7949 161.041 24.459V27.2012C161.373 27.8652 161.891 28.1973 162.594 28.1973C163.113 28.1973 163.518 27.9961 163.807 27.5938C164.096 27.1914 164.24 26.5859 164.24 25.7773ZM166.408 25.7715C166.408 25.1504 166.529 24.5918 166.771 24.0957C167.018 23.5996 167.357 23.2168 167.791 22.9473C168.229 22.6777 168.727 22.543 169.285 22.543C170.148 22.543 170.846 22.8418 171.377 23.4395C171.912 24.0371 172.18 24.832 172.18 25.8242V25.9004C172.18 26.5176 172.061 27.0723 171.822 27.5645C171.588 28.0527 171.25 28.4336 170.809 28.707C170.371 28.9805 169.867 29.1172 169.297 29.1172C168.438 29.1172 167.74 28.8184 167.205 28.2207C166.674 27.623 166.408 26.832 166.408 25.8477V25.7715ZM167.498 25.9004C167.498 26.6035 167.66 27.168 167.984 27.5938C168.312 28.0195 168.75 28.2324 169.297 28.2324C169.848 28.2324 170.285 28.0176 170.609 27.5879C170.934 27.1543 171.096 26.5488 171.096 25.7715C171.096 25.0762 170.93 24.5137 170.598 24.084C170.27 23.6504 169.832 23.4336 169.285 23.4336C168.75 23.4336 168.318 23.6465 167.99 24.0723C167.662 24.498 167.498 25.1074 167.498 25.9004ZM174.717 29H173.633V20H174.717V29ZM177.67 26.5918H176.691L176.615 20.4688H177.752L177.67 26.5918ZM176.574 28.4551C176.574 28.2793 176.627 28.1328 176.732 28.0156C176.842 27.8945 177.002 27.834 177.213 27.834C177.424 27.834 177.584 27.8945 177.693 28.0156C177.803 28.1328 177.857 28.2793 177.857 28.4551C177.857 28.6309 177.803 28.7773 177.693 28.8945C177.584 29.0078 177.424 29.0645 177.213 29.0645C177.002 29.0645 176.842 29.0078 176.732 28.8945C176.627 28.7773 176.574 28.6309 176.574 28.4551Z" fill="black"/>
</svg>
